<svg width="60" height="20" viewBox="0 0 60 20" fill="none" xmlns="http://www.w3.org/2000/svg">
<path d="M0 3.5C0 1.84315 1.34315 0.5 3 0.5H57C58.6569 0.5 60 1.84315 60 3.5V16.5C60 18.1569 58.6569 19.5 57 19.5H3C1.34315 19.5 0 18.1569 0 16.5V3.5Z" fill="#A8071A" fill-opacity="0.1"/>
<path d="M16.94 12.08H14.03L13.53 13.5H12.34L14.83 6.54H16.15L18.64 13.5H17.44L16.94 12.08ZM16.62 11.15L15.49 7.92L14.35 11.15H16.62ZM20.8627 8.81C21.056 8.54333 21.3193 8.32667 21.6527 8.16C21.9927 7.98667 22.3693 7.9 22.7827 7.9C23.2693 7.9 23.7093 8.01667 24.1027 8.25C24.496 8.48333 24.806 8.81667 25.0327 9.25C25.2593 9.67667 25.3727 10.1667 25.3727 10.72C25.3727 11.2733 25.2593 11.77 25.0327 12.21C24.806 12.6433 24.4927 12.9833 24.0927 13.23C23.6993 13.47 23.2627 13.59 22.7827 13.59C22.356 13.59 21.976 13.5067 21.6427 13.34C21.316 13.1733 21.056 12.96 20.8627 12.7V13.5H19.7227V6.1H20.8627V8.81ZM24.2127 10.72C24.2127 10.34 24.1327 10.0133 23.9727 9.74C23.8193 9.46 23.6127 9.25 23.3527 9.11C23.0993 8.96333 22.826 8.89 22.5327 8.89C22.246 8.89 21.9727 8.96333 21.7127 9.11C21.4593 9.25667 21.2527 9.47 21.0927 9.75C20.9393 10.03 20.8627 10.36 20.8627 10.74C20.8627 11.12 20.9393 11.4533 21.0927 11.74C21.2527 12.02 21.4593 12.2333 21.7127 12.38C21.9727 12.5267 22.246 12.6 22.5327 12.6C22.826 12.6 23.0993 12.5267 23.3527 12.38C23.6127 12.2267 23.8193 12.0067 23.9727 11.72C24.1327 11.4333 24.2127 11.1 24.2127 10.72ZM28.5 13.59C28.0667 13.59 27.6767 13.5133 27.33 13.36C26.99 13.2 26.72 12.9867 26.52 12.72C26.32 12.4467 26.2133 12.1433 26.2 11.81H27.38C27.4 12.0433 27.51 12.24 27.71 12.4C27.9167 12.5533 28.1733 12.63 28.48 12.63C28.8 12.63 29.0467 12.57 29.22 12.45C29.4 12.3233 29.49 12.1633 29.49 11.97C29.49 11.7633 29.39 11.61 29.19 11.51C28.9967 11.41 28.6867 11.3 28.26 11.18C27.8467 11.0667 27.51 10.9567 27.25 10.85C26.99 10.7433 26.7633 10.58 26.57 10.36C26.3833 10.14 26.29 9.85 26.29 9.49C26.29 9.19667 26.3767 8.93 26.55 8.69C26.7233 8.44333 26.97 8.25 27.29 8.11C27.6167 7.97 27.99 7.9 28.41 7.9C29.0367 7.9 29.54 8.06 29.92 8.38C30.3067 8.69333 30.5133 9.12333 30.54 9.67H29.4C29.38 9.42333 29.28 9.22667 29.1 9.08C28.92 8.93333 28.6767 8.86 28.37 8.86C28.07 8.86 27.84 8.91667 27.68 9.03C27.52 9.14333 27.44 9.29333 27.44 9.48C27.44 9.62667 27.4933 9.75 27.6 9.85C27.7067 9.95 27.8367 10.03 27.99 10.09C28.1433 10.1433 28.37 10.2133 28.67 10.3C29.07 10.4067 29.3967 10.5167 29.65 10.63C29.91 10.7367 30.1333 10.8967 30.32 11.11C30.5067 11.3233 30.6033 11.6067 30.61 11.96C30.61 12.2733 30.5233 12.5533 30.35 12.8C30.1767 13.0467 29.93 13.24 29.61 13.38C29.2967 13.52 28.9267 13.59 28.5 13.59ZM36.8918 10.61C36.8918 10.8167 36.8785 11.0033 36.8518 11.17H32.6418C32.6751 11.61 32.8385 11.9633 33.1318 12.23C33.4251 12.4967 33.7851 12.63 34.2118 12.63C34.8251 12.63 35.2585 12.3733 35.5118 11.86H36.7418C36.5751 12.3667 36.2718 12.7833 35.8318 13.11C35.3985 13.43 34.8585 13.59 34.2118 13.59C33.6851 13.59 33.2118 13.4733 32.7918 13.24C32.3785 13 32.0518 12.6667 31.8118 12.24C31.5785 11.8067 31.4618 11.3067 31.4618 10.74C31.4618 10.1733 31.5751 9.67667 31.8018 9.25C32.0351 8.81667 32.3585 8.48333 32.7718 8.25C33.1918 8.01667 33.6718 7.9 34.2118 7.9C34.7318 7.9 35.1951 8.01333 35.6018 8.24C36.0085 8.46667 36.3251 8.78667 36.5518 9.2C36.7785 9.60667 36.8918 10.0767 36.8918 10.61ZM35.7018 10.25C35.6951 9.83 35.5451 9.49333 35.2518 9.24C34.9585 8.98667 34.5951 8.86 34.1618 8.86C33.7685 8.86 33.4318 8.98667 33.1518 9.24C32.8718 9.48667 32.7051 9.82333 32.6518 10.25H35.7018ZM40.7937 7.9C41.227 7.9 41.6137 7.99 41.9537 8.17C42.3003 8.35 42.5703 8.61667 42.7637 8.97C42.957 9.32333 43.0537 9.75 43.0537 10.25V13.5H41.9237V10.42C41.9237 9.92667 41.8003 9.55 41.5537 9.29C41.307 9.02333 40.9703 8.89 40.5437 8.89C40.117 8.89 39.777 9.02333 39.5237 9.29C39.277 9.55 39.1537 9.92667 39.1537 10.42V13.5H38.0137V7.99H39.1537V8.62C39.3403 8.39333 39.577 8.21667 39.8637 8.09C40.157 7.96333 40.467 7.9 40.7937 7.9ZM45.8378 8.92V11.97C45.8378 12.1767 45.8845 12.3267 45.9778 12.42C46.0778 12.5067 46.2445 12.55 46.4778 12.55H47.1778V13.5H46.2778C45.7645 13.5 45.3711 13.38 45.0978 13.14C44.8245 12.9 44.6878 12.51 44.6878 11.97V8.92H44.0378V7.99H44.6878V6.62H45.8378V7.99H47.1778V8.92H45.8378Z" fill="#A8071A"/>
</svg>