<svg width="60" height="20" viewBox="0 0 60 20" fill="none" xmlns="http://www.w3.org/2000/svg">
<path d="M0 3.5C0 1.84315 1.34315 0.5 3 0.5H57C58.6569 0.5 60 1.84315 60 3.5V16.5C60 18.1569 58.6569 19.5 57 19.5H3C1.34315 19.5 0 18.1569 0 16.5V3.5Z" fill="#065F46" fill-opacity="0.1"/>
<path d="M16.61 8.62C16.61 8.97333 16.5267 9.30667 16.36 9.62C16.1933 9.93333 15.9267 10.19 15.56 10.39C15.1933 10.5833 14.7233 10.68 14.15 10.68H12.89V13.5H11.75V6.55H14.15C14.6833 6.55 15.1333 6.64333 15.5 6.83C15.8733 7.01 16.15 7.25667 16.33 7.57C16.5167 7.88333 16.61 8.23333 16.61 8.62ZM14.15 9.75C14.5833 9.75 14.9067 9.65333 15.12 9.46C15.3333 9.26 15.44 8.98 15.44 8.62C15.44 7.86 15.01 7.48 14.15 7.48H12.89V9.75H14.15ZM18.8373 8.79C19.0039 8.51 19.2239 8.29333 19.4973 8.14C19.7773 7.98 20.1073 7.9 20.4873 7.9V9.08H20.1973C19.7506 9.08 19.4106 9.19333 19.1773 9.42C18.9506 9.64667 18.8373 10.04 18.8373 10.6V13.5H17.6973V7.99H18.8373V8.79ZM26.5852 10.61C26.5852 10.8167 26.5718 11.0033 26.5452 11.17H22.3352C22.3685 11.61 22.5318 11.9633 22.8252 12.23C23.1185 12.4967 23.4785 12.63 23.9052 12.63C24.5185 12.63 24.9518 12.3733 25.2052 11.86H26.4352C26.2685 12.3667 25.9652 12.7833 25.5252 13.11C25.0918 13.43 24.5518 13.59 23.9052 13.59C23.3785 13.59 22.9052 13.4733 22.4852 13.24C22.0718 13 21.7452 12.6667 21.5052 12.24C21.2718 11.8067 21.1552 11.3067 21.1552 10.74C21.1552 10.1733 21.2685 9.67667 21.4952 9.25C21.7285 8.81667 22.0518 8.48333 22.4652 8.25C22.8852 8.01667 23.3652 7.9 23.9052 7.9C24.4252 7.9 24.8885 8.01333 25.2952 8.24C25.7018 8.46667 26.0185 8.78667 26.2452 9.2C26.4718 9.60667 26.5852 10.0767 26.5852 10.61ZM25.3952 10.25C25.3885 9.83 25.2385 9.49333 24.9452 9.24C24.6518 8.98667 24.2885 8.86 23.8552 8.86C23.4618 8.86 23.1252 8.98667 22.8452 9.24C22.5652 9.48667 22.3985 9.82333 22.3452 10.25H25.3952ZM29.707 13.59C29.2737 13.59 28.8837 13.5133 28.537 13.36C28.197 13.2 27.927 12.9867 27.727 12.72C27.527 12.4467 27.4204 12.1433 27.407 11.81H28.587C28.607 12.0433 28.717 12.24 28.917 12.4C29.1237 12.5533 29.3804 12.63 29.687 12.63C30.007 12.63 30.2537 12.57 30.427 12.45C30.607 12.3233 30.697 12.1633 30.697 11.97C30.697 11.7633 30.597 11.61 30.397 11.51C30.2037 11.41 29.8937 11.3 29.467 11.18C29.0537 11.0667 28.717 10.9567 28.457 10.85C28.197 10.7433 27.9704 10.58 27.777 10.36C27.5904 10.14 27.497 9.85 27.497 9.49C27.497 9.19667 27.5837 8.93 27.757 8.69C27.9304 8.44333 28.177 8.25 28.497 8.11C28.8237 7.97 29.197 7.9 29.617 7.9C30.2437 7.9 30.747 8.06 31.127 8.38C31.5137 8.69333 31.7204 9.12333 31.747 9.67H30.607C30.587 9.42333 30.487 9.22667 30.307 9.08C30.127 8.93333 29.8837 8.86 29.577 8.86C29.277 8.86 29.047 8.91667 28.887 9.03C28.727 9.14333 28.647 9.29333 28.647 9.48C28.647 9.62667 28.7004 9.75 28.807 9.85C28.9137 9.95 29.0437 10.03 29.197 10.09C29.3504 10.1433 29.577 10.2133 29.877 10.3C30.277 10.4067 30.6037 10.5167 30.857 10.63C31.117 10.7367 31.3404 10.8967 31.527 11.11C31.7137 11.3233 31.8104 11.6067 31.817 11.96C31.817 12.2733 31.7304 12.5533 31.557 12.8C31.3837 13.0467 31.137 13.24 30.817 13.38C30.5037 13.52 30.1337 13.59 29.707 13.59ZM38.0988 10.61C38.0988 10.8167 38.0855 11.0033 38.0588 11.17H33.8488C33.8822 11.61 34.0455 11.9633 34.3388 12.23C34.6322 12.4967 34.9922 12.63 35.4188 12.63C36.0322 12.63 36.4655 12.3733 36.7188 11.86H37.9488C37.7822 12.3667 37.4788 12.7833 37.0388 13.11C36.6055 13.43 36.0655 13.59 35.4188 13.59C34.8922 13.59 34.4188 13.4733 33.9988 13.24C33.5855 13 33.2588 12.6667 33.0188 12.24C32.7855 11.8067 32.6688 11.3067 32.6688 10.74C32.6688 10.1733 32.7822 9.67667 33.0088 9.25C33.2422 8.81667 33.5655 8.48333 33.9788 8.25C34.3988 8.01667 34.8788 7.9 35.4188 7.9C35.9388 7.9 36.4022 8.01333 36.8088 8.24C37.2155 8.46667 37.5322 8.78667 37.7588 9.2C37.9855 9.60667 38.0988 10.0767 38.0988 10.61ZM36.9088 10.25C36.9022 9.83 36.7522 9.49333 36.4588 9.24C36.1655 8.98667 35.8022 8.86 35.3688 8.86C34.9755 8.86 34.6388 8.98667 34.3588 9.24C34.0788 9.48667 33.9122 9.82333 33.8588 10.25H36.9088ZM42.0007 7.9C42.434 7.9 42.8207 7.99 43.1607 8.17C43.5074 8.35 43.7774 8.61667 43.9707 8.97C44.164 9.32333 44.2607 9.75 44.2607 10.25V13.5H43.1307V10.42C43.1307 9.92667 43.0074 9.55 42.7607 9.29C42.514 9.02333 42.1774 8.89 41.7507 8.89C41.324 8.89 40.984 9.02333 40.7307 9.29C40.484 9.55 40.3607 9.92667 40.3607 10.42V13.5H39.2207V7.99H40.3607V8.62C40.5474 8.39333 40.784 8.21667 41.0707 8.09C41.364 7.96333 41.674 7.9 42.0007 7.9ZM47.0448 8.92V11.97C47.0448 12.1767 47.0915 12.3267 47.1848 12.42C47.2848 12.5067 47.4515 12.55 47.6848 12.55H48.3848V13.5H47.4848C46.9715 13.5 46.5782 13.38 46.3048 13.14C46.0315 12.9 45.8948 12.51 45.8948 11.97V8.92H45.2448V7.99H45.8948V6.62H47.0448V7.99H48.3848V8.92H47.0448Z" fill="#065F46"/>
</svg>