<svg width="20" height="22" viewBox="0 0 20 22" fill="none" xmlns="http://www.w3.org/2000/svg">
<path d="M16 7.00003C16 5.40873 15.3679 3.88261 14.2426 2.75739C13.1174 1.63217 11.5913 1.00003 10 1.00003C8.4087 1.00003 6.88258 1.63217 5.75736 2.75739C4.63214 3.88261 4 5.40873 4 7.00003C4 14 1 16 1 16H19C19 16 16 14 16 7.00003Z" stroke="#97A7C3" stroke-width="2" stroke-linecap="round" stroke-linejoin="round"/>
<path d="M11.73 20C11.5542 20.3031 11.3019 20.5547 10.9982 20.7295C10.6946 20.9044 10.3504 20.9965 10 20.9965C9.64964 20.9965 9.30541 20.9044 9.00179 20.7295C8.69818 20.5547 8.44583 20.3031 8.27002 20" stroke="#97A7C3" stroke-width="2" stroke-linecap="round" stroke-linejoin="round"/>
</svg>
