<svg width="17" height="17" viewBox="0 0 17 17" fill="none" xmlns="http://www.w3.org/2000/svg">
<path d="M7.74899 2.87695H2.79068C2.41496 2.87695 2.05463 3.02621 1.78895 3.29188C1.52328 3.55756 1.37402 3.9179 1.37402 4.29362V14.2103C1.37402 14.586 1.52328 14.9463 1.78895 15.212C2.05463 15.4777 2.41496 15.6269 2.79068 15.6269H12.7073C13.083 15.6269 13.4434 15.4777 13.709 15.212C13.9747 14.9463 14.124 14.586 14.124 14.2103V9.25194" stroke="#1479FF" stroke-width="1.5" stroke-linecap="round" stroke-linejoin="round"/>
<path d="M13.0616 1.81413C13.3434 1.53233 13.7256 1.37402 14.1241 1.37402C14.5226 1.37402 14.9048 1.53233 15.1866 1.81413C15.4684 2.09592 15.6267 2.47811 15.6267 2.87663C15.6267 3.27514 15.4684 3.65733 15.1866 3.93913L8.45738 10.6683L5.62402 11.3766L6.33236 8.5433L13.0616 1.81413Z" stroke="#1479FF" stroke-width="1.5" stroke-linecap="round" stroke-linejoin="round"/>
</svg>
