<svg width="21" height="19" viewBox="0 0 21 19" fill="none" xmlns="http://www.w3.org/2000/svg">
<path d="M14.875 17.375V15.625C14.875 14.6967 14.5063 13.8065 13.8499 13.1501C13.1935 12.4937 12.3033 12.125 11.375 12.125H4.375C3.44674 12.125 2.5565 12.4937 1.90013 13.1501C1.24375 13.8065 0.875 14.6967 0.875 15.625V17.375" stroke="#193566" stroke-width="1.5" stroke-linecap="round" stroke-linejoin="round"/>
<path d="M7.875 8.625C9.808 8.625 11.375 7.058 11.375 5.125C11.375 3.192 9.808 1.625 7.875 1.625C5.942 1.625 4.375 3.192 4.375 5.125C4.375 7.058 5.942 8.625 7.875 8.625Z" stroke="#193566" stroke-width="1.5" stroke-linecap="round" stroke-linejoin="round"/>
<path d="M20.125 17.375V15.625C20.1244 14.8495 19.8663 14.0962 19.3912 13.4833C18.9161 12.8704 18.2509 12.4326 17.5 12.2388" stroke="#193566" stroke-width="1.5" stroke-linecap="round" stroke-linejoin="round"/>
<path d="M14 1.73877C14.7529 1.93153 15.4202 2.36938 15.8967 2.98329C16.3732 3.5972 16.6319 4.35225 16.6319 5.12939C16.6319 5.90654 16.3732 6.66159 15.8967 7.2755C15.4202 7.8894 14.7529 8.32726 14 8.52002" stroke="#193566" stroke-width="1.5" stroke-linecap="round" stroke-linejoin="round"/>
</svg>
