<svg width="39" height="39" viewBox="0 0 39 39" fill="none" xmlns="http://www.w3.org/2000/svg">
<circle cx="19.5" cy="19.5" r="19.5" fill="#1479FF" fill-opacity="0.2"/>
<path d="M21.9796 15.7862L22.0668 15.963L22.2619 15.9914L27.2892 16.722C27.2894 16.722 27.2895 16.7221 27.2897 16.7221C27.4347 16.7439 27.5295 16.8763 27.5084 17.0128L27.5078 17.0169C27.4999 17.0723 27.4737 17.124 27.4326 17.1644C27.4325 17.1645 27.4324 17.1645 27.4324 17.1646L23.7949 20.7109L23.6538 20.8485L23.6871 21.0429L24.5466 26.0515L24.5467 26.0518C24.5708 26.1913 24.477 26.3249 24.3356 26.3493L24.3351 26.3494C24.2789 26.3592 24.2211 26.3498 24.1735 26.3244L24.1718 26.3235L19.6742 23.9589L19.4997 23.8671L19.3251 23.9589L14.8275 26.3235L14.8269 26.3238C14.7843 26.3463 14.7363 26.3564 14.6882 26.353C14.6402 26.3496 14.5941 26.3328 14.5551 26.3045L14.3347 26.6079L14.5551 26.3045C14.5161 26.2762 14.4859 26.2375 14.4677 26.1929C14.4496 26.1482 14.4444 26.0994 14.4526 26.052L14.4527 26.0515L15.3122 21.0429L15.3455 20.8485L15.2044 20.7109L11.5663 17.1639L11.5662 17.1639C11.5169 17.1158 11.4887 17.0502 11.4878 16.9813C11.4869 16.9127 11.5132 16.8466 11.5609 16.7973C11.6013 16.7562 11.6528 16.7302 11.708 16.7223L11.7089 16.7222L16.7374 15.9914L16.9325 15.963L17.0197 15.7862L19.2667 11.2309C19.2668 11.2307 19.2669 11.2305 19.267 11.2302C19.332 11.1013 19.4884 11.0499 19.6149 11.1123L19.6153 11.1125C19.6658 11.1374 19.7067 11.1783 19.7316 11.2288L19.7317 11.2291L21.9796 15.7862Z" fill="#1479FF" fill-opacity="0.4" stroke="#1479FF" stroke-width="0.75"/>
</svg>
