<svg width="23" height="22" viewBox="0 0 23 22" fill="none" xmlns="http://www.w3.org/2000/svg">
<path d="M11.1146 2.40014L18.0287 3.0287L18.6572 9.94279L10.6257 17.9743C10.2553 18.3448 9.78648 18.5865 9.32245 18.6464C8.85843 18.7063 8.4372 18.5793 8.15142 18.2936L2.76382 12.906C2.47804 12.6202 2.35113 12.199 2.41101 11.7349C2.47088 11.2709 2.71263 10.8021 3.08308 10.4317L11.1146 2.40014Z" stroke="#1479FF" stroke-linecap="round" stroke-linejoin="round"/>
<circle cx="15" cy="6" r="1" fill="#1479FF"/>
<path d="M6.11198 12.2343C5.80226 11.9246 5.64953 11.5936 5.65377 11.2415C5.65801 10.8809 5.80226 10.5584 6.08652 10.2742C6.37078 9.98991 6.6911 9.84778 7.04748 9.84778C7.40386 9.83929 7.73691 9.98991 8.04662 10.2996C8.35633 10.6093 8.50907 10.9445 8.50483 11.3051C8.50483 11.6615 8.3627 11.9818 8.07844 12.2661C7.79418 12.5503 7.47174 12.6946 7.11112 12.6988C6.75474 12.6988 6.42169 12.544 6.11198 12.2343ZM9.08395 7.4422L10.974 14.4107L10.2613 15.1235L8.37118 8.15496L9.08395 7.4422ZM6.52563 10.7133C6.25835 10.9806 6.30926 11.2988 6.67837 11.6679C7.05172 12.0412 7.37204 12.0943 7.63933 11.827C7.76661 11.6997 7.81964 11.5576 7.79843 11.4006C7.77721 11.2351 7.67115 11.0569 7.48023 10.866C7.11112 10.4969 6.79292 10.446 6.52563 10.7133ZM11.305 12.247C10.9953 11.9373 10.8425 11.6064 10.8468 11.2542C10.851 10.8936 10.9953 10.5711 11.2795 10.2869C11.5595 10.0069 11.8777 9.86687 12.2341 9.86687C12.5905 9.85838 12.9235 10.009 13.2332 10.3187C13.543 10.6284 13.6957 10.9636 13.6915 11.3242C13.6915 11.6806 13.5514 11.9988 13.2714 12.2788C12.9872 12.5631 12.6647 12.7073 12.3041 12.7116C11.9477 12.7116 11.6147 12.5567 11.305 12.247ZM11.7123 10.7324C11.445 10.9997 11.4959 11.3179 11.865 11.687C12.2341 12.0561 12.5523 12.107 12.8196 11.8397C13.0869 11.5724 13.036 11.2542 12.6669 10.8851C12.2977 10.516 11.9795 10.4651 11.7123 10.7324Z" fill="#1479FF"/>
</svg>
