<svg width="15" height="12" viewBox="0 0 15 12" fill="none" xmlns="http://www.w3.org/2000/svg">
<path d="M1.72926 5.18418C1.35136 4.78142 0.718517 4.76127 0.315759 5.13916C-0.0869977 5.51706 -0.107152 6.1499 0.270744 6.55266L1.72926 5.18418ZM5.81482 11L5.08556 11.6842C5.28265 11.8943 5.56075 12.0092 5.84862 11.9994C6.1365 11.9897 6.4062 11.8563 6.58864 11.6334L5.81482 11ZM14.7738 1.63339C15.1236 1.20602 15.0608 0.575984 14.6334 0.22617C14.206 -0.123643 13.576 -0.0607681 13.2262 0.366606L14.7738 1.63339ZM0.270744 6.55266L5.08556 11.6842L6.54407 10.3158L1.72926 5.18418L0.270744 6.55266ZM6.58864 11.6334L14.7738 1.63339L13.2262 0.366606L5.04099 10.3666L6.58864 11.6334Z" fill="#1479FF"/>
</svg>
