<svg width="16" height="17" viewBox="0 0 16 17" fill="none" xmlns="http://www.w3.org/2000/svg">
<path d="M14.75 11.5V5.50005C14.7497 5.237 14.6803 4.97866 14.5487 4.75092C14.417 4.52318 14.2278 4.33407 14 4.20255L8.75 1.20255C8.52197 1.0709 8.2633 1.00159 8 1.00159C7.7367 1.00159 7.47803 1.0709 7.25 1.20255L2 4.20255C1.7722 4.33407 1.58299 4.52318 1.45135 4.75092C1.31971 4.97866 1.25027 5.237 1.25 5.50005V11.5C1.25027 11.7631 1.31971 12.0214 1.45135 12.2492C1.58299 12.4769 1.7722 12.666 2 12.7975L7.25 15.7975C7.47803 15.9292 7.7367 15.9985 8 15.9985C8.2633 15.9985 8.52197 15.9292 8.75 15.7975L14 12.7975C14.2278 12.666 14.417 12.4769 14.5487 12.2492C14.6803 12.0214 14.7497 11.7631 14.75 11.5Z" stroke="#475D85" stroke-opacity="0.75" stroke-width="1.25" stroke-linecap="round" stroke-linejoin="round"/>
<path d="M1.45251 4.72009L8.00001 8.50759L14.5475 4.72009" stroke="#475D85" stroke-opacity="0.75" stroke-width="1.25" stroke-linecap="round" stroke-linejoin="round"/>
<path d="M8 16.06V8.5" stroke="#475D85" stroke-opacity="0.75" stroke-width="1.25" stroke-linecap="round" stroke-linejoin="round"/>
</svg>
