<svg width="26" height="26" viewBox="0 0 26 26" fill="none" xmlns="http://www.w3.org/2000/svg">
<path d="M12.9999 12.2778C13.9998 12.2778 14.9772 11.9813 15.8086 11.4258C16.64 10.8702 17.288 10.0807 17.6706 9.15689C18.0533 8.23311 18.1534 7.21661 17.9583 6.23593C17.7632 5.25524 17.2817 4.35443 16.5747 3.6474C15.8677 2.94036 14.9669 2.45887 13.9862 2.2638C13.0055 2.06873 11.989 2.16885 11.0652 2.55149C10.1414 2.93413 9.35186 3.58212 8.79635 4.4135C8.24084 5.24488 7.94434 6.22232 7.94434 7.22222C7.94434 8.56303 8.47697 9.84893 9.42507 10.797C10.3732 11.7451 11.6591 12.2778 12.9999 12.2778ZM12.9999 3.6111C13.7141 3.6111 14.4123 3.82289 15.0061 4.21969C15.6 4.61648 16.0628 5.18046 16.3361 5.8403C16.6094 6.50015 16.681 7.22622 16.5416 7.92671C16.4023 8.6272 16.0584 9.27063 15.5533 9.77566C15.0483 10.2807 14.4049 10.6246 13.7044 10.7639C13.0039 10.9033 12.2778 10.8318 11.618 10.5584C10.9581 10.2851 10.3942 9.82229 9.99736 9.22844C9.60057 8.6346 9.38878 7.93643 9.38878 7.22222C9.38878 6.26449 9.76924 5.34599 10.4464 4.66877C11.1237 3.99156 12.0422 3.6111 12.9999 3.6111Z" fill="#97A7C3"/>
<path d="M22.0063 17.6006C20.8481 16.3765 19.4524 15.4014 17.9045 14.735C16.3566 14.0686 14.6891 13.7249 13.0038 13.7249C11.3186 13.7249 9.65105 14.0686 8.10316 14.735C6.55527 15.4014 5.15955 16.3765 4.00133 17.6006C3.75022 17.8688 3.61076 18.2227 3.61133 18.5901V22.389C3.61133 22.772 3.76351 23.1394 4.0344 23.4103C4.30528 23.6812 4.67268 23.8334 5.05577 23.8334H20.9447C21.3278 23.8334 21.6952 23.6812 21.966 23.4103C22.2369 23.1394 22.3891 22.772 22.3891 22.389V18.5901C22.3916 18.2236 22.2548 17.8699 22.0063 17.6006ZM20.9447 22.389H5.05577V18.5828C6.07933 17.5051 7.31148 16.6468 8.67725 16.0603C10.043 15.4739 11.5139 15.1714 13.0002 15.1714C14.4866 15.1714 15.9574 15.4739 17.3232 16.0603C18.689 16.6468 19.9211 17.5051 20.9447 18.5828V22.389Z" fill="#97A7C3"/>
</svg>
