<svg width="58" height="58" viewBox="0 0 58 58" fill="none" xmlns="http://www.w3.org/2000/svg">
<path d="M0 4C0 1.79086 1.79086 0 4 0H54C56.2091 0 58 1.79086 58 4V54C58 56.2091 56.2091 58 54 58H4C1.79086 58 0 56.2091 0 54V4Z" fill="#FDF0F0"/>
<path d="M35.9997 24.3337H37.1663C38.404 24.3337 39.591 24.8253 40.4662 25.7005C41.3413 26.5757 41.833 27.7626 41.833 29.0003C41.833 30.238 41.3413 31.425 40.4662 32.3002C39.591 33.1753 38.404 33.667 37.1663 33.667H35.9997M21.9997 16.167V19.667M26.6663 16.167V19.667M31.333 16.167V19.667M35.9997 24.3337H17.333V34.8337C17.333 36.0713 17.8247 37.2583 18.6998 38.1335C19.575 39.0087 20.762 39.5003 21.9997 39.5003H31.333C32.5707 39.5003 33.7577 39.0087 34.6328 38.1335C35.508 37.2583 35.9997 36.0713 35.9997 34.8337V24.3337Z" stroke="#E66666" stroke-width="2" stroke-linecap="round" stroke-linejoin="round"/>
</svg>
