<svg width="21" height="21" viewBox="0 0 21 21" fill="none" xmlns="http://www.w3.org/2000/svg">
<path d="M12.4036 3.69446C12.4046 2.62015 10.2139 1.75 7.51478 1.75C4.81562 1.75 2.62696 2.62112 2.625 3.69446M2.625 3.69446C2.625 4.76878 4.81366 5.63893 7.51478 5.63893C10.2159 5.63893 12.4046 4.76878 12.4046 3.69446L12.4046 11.2389M2.625 3.69446V15.3612C2.62598 16.4355 4.81464 17.3056 7.51478 17.3056C8.82426 17.3056 10.0066 17.0986 10.8838 16.7651M2.62598 7.58338C2.62598 8.6577 4.81464 9.52784 7.51576 9.52784C10.2169 9.52784 12.4055 8.6577 12.4055 7.58338M10.9425 12.8578C10.0604 13.2029 8.85067 13.4168 7.51478 13.4168C4.81464 13.4168 2.62598 12.5467 2.62598 11.4724M17.9613 11.7816C19.6796 13.4898 19.6796 16.2606 17.9613 17.9688C16.243 19.6771 13.4559 19.6771 11.7376 17.9688C10.0193 16.2606 10.0193 13.4898 11.7376 11.7816C13.4559 10.0733 16.243 10.0733 17.9613 11.7816Z" stroke="#193566" stroke-width="1.25" stroke-linecap="round" stroke-linejoin="round"/>
</svg>
