<svg width="25" height="25" viewBox="0 0 25 25" fill="none" xmlns="http://www.w3.org/2000/svg">
<path d="M14.7662 4.39821C14.7673 3.11926 12.1594 2.08337 8.94616 2.08337C5.73288 2.08337 3.12733 3.12042 3.125 4.39821M3.125 4.39821C3.125 5.67716 5.73055 6.71305 8.94616 6.71305C12.1618 6.71305 14.7673 5.67716 14.7673 4.39821L14.7673 13.3797M3.125 4.39821V18.2872C3.12616 19.5661 5.73172 20.602 8.94616 20.602C10.5051 20.602 11.9126 20.3555 12.9569 19.9585M3.12616 9.02787C3.12616 10.3068 5.73172 11.3427 8.94733 11.3427C12.1629 11.3427 14.7685 10.3068 14.7685 9.02787M13.0268 15.3069C11.9767 15.7178 10.5365 15.9725 8.94616 15.9725C5.73172 15.9725 3.12616 14.9366 3.12616 13.6576M21.3825 14.0257C23.4281 16.0593 23.4281 19.3579 21.3825 21.3915C19.3369 23.4251 16.0189 23.4251 13.9733 21.3915C11.9278 19.3579 11.9278 16.0593 13.9733 14.0257C16.0189 11.9921 19.3369 11.9921 21.3825 14.0257Z" stroke="#1479FF" stroke-width="1.5" stroke-linecap="round" stroke-linejoin="round"/>
</svg>
