<svg width="24" height="25" viewBox="0 0 24 25" fill="none" xmlns="http://www.w3.org/2000/svg">
<path d="M13.9475 3.75003C13.9487 2.36876 11.1322 1.25 7.66186 1.25C4.19151 1.25 1.37751 2.37001 1.375 3.75003M1.375 3.75003C1.375 5.13129 4.189 6.25005 7.66186 6.25005C11.1347 6.25005 13.9487 5.13129 13.9487 3.75003L13.9487 13.45M1.375 3.75003V18.7501C1.37626 20.1314 4.19026 21.2501 7.66186 21.2501C9.34548 21.2501 10.8656 20.9839 11.9935 20.5551M1.37626 8.75006C1.37626 10.1313 4.19026 11.2501 7.66312 11.2501C11.136 11.2501 13.95 10.1313 13.95 8.75006M12.0689 15.5315C10.9348 15.9752 9.37943 16.2502 7.66186 16.2502C4.19026 16.2502 1.37626 15.1314 1.37626 13.7502M21.0931 14.1477C23.3023 16.344 23.3023 19.9065 21.0931 22.1028C18.8839 24.2991 15.3004 24.2991 13.0912 22.1028C10.882 19.9065 10.882 16.344 13.0912 14.1477C15.3004 11.9514 18.8839 11.9514 21.0931 14.1477Z" stroke="#1479FF" stroke-width="1.75" stroke-linecap="round" stroke-linejoin="round"/>
</svg>
