<svg width="19" height="17" viewBox="0 0 19 17" fill="none" xmlns="http://www.w3.org/2000/svg">
<path d="M16.4737 16.7121L13.5373 13.7756C12.2703 14.3524 10.8919 14.6431 9.5 14.627C8.06489 14.6448 6.64462 14.3351 5.34725 13.7213C4.3416 13.2307 3.43856 12.553 2.68638 11.7246C1.88793 10.8687 1.26039 9.86813 0.8375 8.7767L0.75 8.50195L0.841875 8.22545C1.47433 6.61221 2.53872 5.20422 3.91838 4.15583L1.625 1.86245L2.86138 0.626953L17.7092 15.4748L16.4755 16.7121H16.4737ZM5.1565 5.39483C4.03818 6.17875 3.15507 7.25307 2.60238 8.50195C3.78749 11.2362 6.52139 12.9703 9.5 12.877C10.4186 12.8845 11.3319 12.7366 12.2011 12.4395L10.6261 10.8645C10.2755 11.0363 9.89044 11.1261 9.5 11.127C8.05403 11.1179 6.88407 9.94793 6.875 8.50195C6.87542 8.11062 6.9652 7.72456 7.1375 7.3732L5.1565 5.39483ZM16.3705 11.6607L15.1525 10.4436C15.6649 9.86425 16.0849 9.20934 16.3976 8.50195C15.2141 5.76634 12.4792 4.03165 9.5 4.12695C9.28388 4.12695 9.06688 4.13483 8.85688 4.1497L7.3125 2.60358C8.03143 2.44978 8.76482 2.3738 9.5 2.37695C10.9351 2.35914 12.3554 2.66887 13.6528 3.28258C14.6584 3.77322 15.5615 4.45087 16.3136 5.27933C17.1117 6.13417 17.7392 7.13352 18.1625 8.2237L18.25 8.50195L18.1581 8.77845C17.7485 9.84427 17.1424 10.8237 16.3714 11.666L16.3705 11.6607Z" fill="#97A7C3"/>
</svg>
