<svg width="26" height="26" viewBox="0 0 26 26" fill="none" xmlns="http://www.w3.org/2000/svg">
<path fill-rule="evenodd" clip-rule="evenodd" d="M4.8534 1.73334H4.76673C4.3698 1.73334 4.02833 1.73334 3.72673 1.8044C3.25983 1.91597 2.83294 2.15462 2.49334 2.49391C2.15375 2.83319 1.91472 3.25987 1.80273 3.72667C1.7334 4.02827 1.7334 4.368 1.7334 4.76667V9.1C1.7334 9.49694 1.7334 9.8384 1.80447 10.14C1.91603 10.6069 2.15468 11.0338 2.49397 11.3734C2.83325 11.713 3.25994 11.952 3.72673 12.064C4.02833 12.1333 4.36806 12.1333 4.76673 12.1333H9.10006C9.497 12.1333 9.83846 12.1333 10.1401 12.0623C10.607 11.9507 11.0339 11.7121 11.3735 11.3728C11.713 11.0335 11.9521 10.6068 12.0641 10.14C12.1334 9.8384 12.1334 9.49867 12.1334 9.1V4.76667C12.1334 4.36974 12.1334 4.02827 12.0623 3.72667C11.9508 3.25977 11.7121 2.83288 11.3728 2.49328C11.0335 2.15369 10.6069 1.91466 10.1401 1.80267C9.83846 1.73334 9.49873 1.73334 9.10006 1.73334H4.8534ZM4.1306 3.49094C4.20513 3.4736 4.32126 3.46667 4.8534 3.46667H9.0134C9.54726 3.46667 9.66166 3.47187 9.7362 3.49094C9.8919 3.52817 10.0343 3.60781 10.1475 3.72101C10.2607 3.83422 10.3403 3.97657 10.3775 4.13227C10.3949 4.20507 10.4001 4.31947 10.4001 4.85334V9.01334C10.4001 9.5472 10.3949 9.6616 10.3758 9.73614C10.3386 9.89184 10.2589 10.0342 10.1457 10.1474C10.0325 10.2606 9.89017 10.3402 9.73446 10.3775C9.6634 10.3931 9.549 10.4 9.0134 10.4H4.8534C4.31953 10.4 4.20513 10.3948 4.1306 10.3757C3.97489 10.3385 3.83254 10.2589 3.71934 10.1457C3.60614 10.0325 3.5265 9.89011 3.48926 9.7344C3.47366 9.66334 3.46673 9.54894 3.46673 9.01334V4.85334C3.46673 4.31947 3.47193 4.20507 3.491 4.13054C3.52823 3.97483 3.60787 3.83248 3.72107 3.71928C3.83428 3.60607 3.97663 3.52644 4.13233 3.4892L4.1306 3.49094ZM16.9867 1.73334H16.9001C16.5031 1.73334 16.1617 1.73334 15.8601 1.8044C15.3932 1.91597 14.9663 2.15462 14.6267 2.49391C14.2871 2.83319 14.048 3.25987 13.9361 3.72667C13.8667 4.02827 13.8667 4.368 13.8667 4.76667V9.1C13.8667 9.49694 13.8667 9.8384 13.9378 10.14C14.0494 10.6069 14.288 11.0338 14.6273 11.3734C14.9666 11.713 15.3933 11.952 15.8601 12.064C16.1617 12.1333 16.5014 12.1333 16.9001 12.1333H21.2334C21.6303 12.1333 21.9718 12.1333 22.2734 12.0623C22.7403 11.9507 23.1672 11.7121 23.5068 11.3728C23.8464 11.0335 24.0854 10.6068 24.1974 10.14C24.2667 9.8384 24.2667 9.49867 24.2667 9.1V4.76667C24.2667 4.36974 24.2667 4.02827 24.1957 3.72667C24.0841 3.25977 23.8454 2.83288 23.5062 2.49328C23.1669 2.15369 22.7402 1.91466 22.2734 1.80267C21.9718 1.73334 21.6321 1.73334 21.2334 1.73334H16.9867ZM16.2639 3.49094C16.3385 3.4736 16.4546 3.46667 16.9867 3.46667H21.1467C21.6806 3.46667 21.795 3.47187 21.8695 3.49094C22.0252 3.52817 22.1676 3.60781 22.2808 3.72101C22.394 3.83422 22.4736 3.97657 22.5109 4.13227C22.5282 4.20507 22.5334 4.31947 22.5334 4.85334V9.01334C22.5334 9.5472 22.5265 9.6616 22.5091 9.73614C22.4719 9.89184 22.3923 10.0342 22.2791 10.1474C22.1659 10.2606 22.0235 10.3402 21.8678 10.3775C21.795 10.3948 21.6806 10.4 21.1467 10.4H16.9867C16.4529 10.4 16.3385 10.3948 16.2639 10.3757C16.1082 10.3385 15.9659 10.2589 15.8527 10.1457C15.7395 10.0325 15.6598 9.89011 15.6226 9.7344C15.607 9.66334 15.6001 9.54894 15.6001 9.01334V4.85334C15.6001 4.31947 15.6053 4.20507 15.6243 4.13054C15.6616 3.97483 15.7412 3.83248 15.8544 3.71928C15.9676 3.60607 16.11 3.52644 16.2657 3.4892L16.2639 3.49094ZM4.76673 13.8667H9.10006C9.497 13.8667 9.83846 13.8667 10.1401 13.9377C10.607 14.0493 11.0339 14.2879 11.3735 14.6272C11.713 14.9665 11.9521 15.3932 12.0641 15.86C12.1334 16.1616 12.1334 16.5013 12.1334 16.9V21.2333C12.1334 21.6303 12.1334 21.9717 12.0623 22.2733C11.9508 22.7402 11.7121 23.1671 11.3728 23.5067C11.0335 23.8463 10.6069 24.0853 10.1401 24.1973C9.83846 24.2667 9.49873 24.2667 9.10006 24.2667H4.76673C4.3698 24.2667 4.02833 24.2667 3.72673 24.1956C3.25983 24.084 2.83294 23.8454 2.49334 23.5061C2.15375 23.1668 1.91472 22.7401 1.80273 22.2733C1.7334 21.9717 1.7334 21.632 1.7334 21.2333V16.9C1.7334 16.5031 1.7334 16.1616 1.80447 15.86C1.91603 15.3931 2.15468 14.9662 2.49397 14.6266C2.83325 14.287 3.25994 14.048 3.72673 13.936C4.02833 13.8667 4.36806 13.8667 4.76673 13.8667ZM4.8534 15.6C4.31953 15.6 4.20513 15.6052 4.1306 15.6243C3.97489 15.6615 3.83254 15.7411 3.71934 15.8543C3.60614 15.9675 3.5265 16.1099 3.48926 16.2656C3.47366 16.3367 3.46673 16.4511 3.46673 16.9867V21.1467C3.46673 21.6805 3.47193 21.7949 3.491 21.8695C3.52823 22.0252 3.60787 22.1675 3.72107 22.2807C3.83428 22.3939 3.97663 22.4736 4.13233 22.5108C4.20513 22.5281 4.31953 22.5333 4.8534 22.5333H9.0134C9.54726 22.5333 9.66166 22.5264 9.7362 22.5091C9.8919 22.4718 10.0343 22.3922 10.1475 22.279C10.2607 22.1658 10.3403 22.0234 10.3775 21.8677C10.3949 21.7949 10.4001 21.6805 10.4001 21.1467V16.9867C10.4001 16.4528 10.3949 16.3384 10.3758 16.2639C10.3386 16.1082 10.2589 15.9658 10.1457 15.8526C10.0325 15.7394 9.89017 15.6598 9.73446 15.6225C9.6634 15.6069 9.549 15.6 9.0134 15.6H4.8534ZM16.9867 13.8667H16.9001C16.5031 13.8667 16.1617 13.8667 15.8601 13.9377C15.3932 14.0493 14.9663 14.2879 14.6267 14.6272C14.2871 14.9665 14.048 15.3932 13.9361 15.86C13.8667 16.1616 13.8667 16.5013 13.8667 16.9V21.2333C13.8667 21.6303 13.8667 21.9717 13.9378 22.2733C14.0494 22.7402 14.288 23.1671 14.6273 23.5067C14.9666 23.8463 15.3933 24.0853 15.8601 24.1973C16.1617 24.2684 16.5031 24.2684 16.9001 24.2684H21.2334C21.6303 24.2684 21.9718 24.2684 22.2734 24.1973C22.74 24.0855 23.1665 23.8467 23.5058 23.5074C23.845 23.1682 24.0838 22.7416 24.1957 22.2751C24.2667 21.9735 24.2667 21.632 24.2667 21.2351V16.9C24.2667 16.5031 24.2667 16.1616 24.1957 15.86C24.0841 15.3931 23.8454 14.9662 23.5062 14.6266C23.1669 14.287 22.7402 14.048 22.2734 13.936C21.9718 13.8667 21.6321 13.8667 21.2334 13.8667H16.9867ZM16.2639 15.6243C16.3385 15.6069 16.4546 15.6 16.9867 15.6H21.1467C21.6806 15.6 21.795 15.6052 21.8695 15.6243C22.0252 15.6615 22.1676 15.7411 22.2808 15.8543C22.394 15.9675 22.4736 16.1099 22.5109 16.2656C22.5282 16.3384 22.5334 16.4528 22.5334 16.9867V21.1467C22.5334 21.6805 22.5265 21.7949 22.5091 21.8695C22.4719 22.0252 22.3923 22.1675 22.2791 22.2807C22.1659 22.3939 22.0235 22.4736 21.8678 22.5108C21.795 22.5281 21.6806 22.5333 21.1467 22.5333H16.9867C16.4529 22.5333 16.3385 22.5264 16.2639 22.5091C16.1082 22.4718 15.9659 22.3922 15.8527 22.279C15.7395 22.1658 15.6598 22.0234 15.6226 21.8677C15.607 21.7967 15.6001 21.6823 15.6001 21.1467V16.9867C15.6001 16.4528 15.6053 16.3384 15.6243 16.2639C15.6616 16.1082 15.7412 15.9658 15.8544 15.8526C15.9676 15.7394 16.11 15.6598 16.2657 15.6225L16.2639 15.6243Z" fill="#97A7C3"/>
</svg>
