<svg width="19" height="19" viewBox="0 0 19 19" fill="none" xmlns="http://www.w3.org/2000/svg">
<g opacity="0.75">
<path d="M7.125 7.125H8.3125V14.25H7.125V7.125Z" fill="#E66666"/>
<path d="M10.6875 7.125H11.875V14.25H10.6875V7.125Z" fill="#E66666"/>
<path d="M2.375 3.5625V4.75H3.5625V16.625C3.5625 16.9399 3.68761 17.242 3.91031 17.4647C4.13301 17.6874 4.43506 17.8125 4.75 17.8125H14.25C14.5649 17.8125 14.867 17.6874 15.0897 17.4647C15.3124 17.242 15.4375 16.9399 15.4375 16.625V4.75H16.625V3.5625H2.375ZM4.75 16.625V4.75H14.25V16.625H4.75Z" fill="#E66666"/>
<path d="M7.125 1.1875H11.875V2.375H7.125V1.1875Z" fill="#E66666"/>
</g>
</svg>
