<svg width="17" height="20" viewBox="0 0 17 20" fill="none" xmlns="http://www.w3.org/2000/svg">
<path d="M1.50002 15.9004C1.16865 15.9004 0.900024 16.169 0.900024 16.5004C0.900024 16.8318 1.16865 17.1004 1.50002 17.1004V15.9004ZM15.5 16.5004L15.8905 16.956C16.0235 16.842 16.1 16.6756 16.1 16.5004C16.1 16.3253 16.0235 16.1588 15.8905 16.0449L15.5 16.5004ZM12.9739 13.5449C12.7223 13.3292 12.3435 13.3583 12.1278 13.6099C11.9122 13.8615 11.9413 14.2403 12.1929 14.456L12.9739 13.5449ZM12.1929 18.5449C11.9413 18.7605 11.9122 19.1393 12.1278 19.3909C12.3435 19.6425 12.7223 19.6716 12.9739 19.456L12.1929 18.5449ZM1.50002 17.1004H15.5V15.9004H1.50002V17.1004ZM12.1929 14.456L15.1095 16.956L15.8905 16.0449L12.9739 13.5449L12.1929 14.456ZM15.1095 16.0449L12.1929 18.5449L12.9739 19.456L15.8905 16.956L15.1095 16.0449Z" fill="#193566"/>
<path d="M11.5425 3.86914L11.1606 5.18066H3.45752L3.83935 3.86914H11.5425ZM8.08936 13L3.69824 7.87012L3.68994 6.84082H5.71533C6.30192 6.84082 6.78613 6.74398 7.16797 6.55029C7.55534 6.35107 7.84587 6.08268 8.03955 5.74512C8.23324 5.40755 8.33008 5.02848 8.33008 4.60791C8.33008 4.13753 8.23877 3.72526 8.05615 3.37109C7.87354 3.01139 7.58577 2.73193 7.19287 2.53271C6.8055 2.32796 6.29639 2.22559 5.66553 2.22559H3.47412L3.86426 0.914062H5.66553C6.62842 0.914062 7.42253 1.06071 8.04785 1.354C8.67871 1.64176 9.14909 2.06234 9.45898 2.61572C9.76888 3.16911 9.92383 3.8387 9.92383 4.62451C9.92383 5.29964 9.79378 5.9056 9.53369 6.44238C9.27913 6.97363 8.85579 7.39144 8.26367 7.6958C7.67708 8.00016 6.88574 8.15234 5.88965 8.15234L9.97363 12.9004V13H8.08936ZM11.5425 0.914062L11.1606 2.22559H4.95166L5.3335 0.914062H11.5425Z" fill="#193566"/>
</svg>
