<svg width="15" height="15" viewBox="0 0 15 15" fill="none" xmlns="http://www.w3.org/2000/svg">
<path d="M0.400547 3.44C0.400547 2.46667 0.680547 1.70667 1.24055 1.16C1.81388 0.599999 2.54721 0.319999 3.44055 0.319999C4.33388 0.319999 5.06055 0.599999 5.62055 1.16C6.19388 1.70667 6.48055 2.46667 6.48055 3.44C6.48055 4.41333 6.19388 5.18 5.62055 5.74C5.06055 6.3 4.33388 6.58 3.44055 6.58C2.54721 6.58 1.81388 6.3 1.24055 5.74C0.680547 5.18 0.400547 4.41333 0.400547 3.44ZM12.6005 0.579999L4.62055 14.5H2.38055L10.3605 0.579999H12.6005ZM3.44055 1.7C2.60055 1.7 2.18055 2.28 2.18055 3.44C2.18055 4.61333 2.60055 5.2 3.44055 5.2C3.84055 5.2 4.14721 5.06 4.36055 4.78C4.58721 4.48667 4.70055 4.04 4.70055 3.44C4.70055 2.28 4.28055 1.7 3.44055 1.7ZM8.54055 11.62C8.54055 10.6467 8.82055 9.88667 9.38055 9.34C9.95388 8.78 10.6872 8.5 11.5805 8.5C12.4605 8.5 13.1805 8.78 13.7405 9.34C14.3139 9.88667 14.6005 10.6467 14.6005 11.62C14.6005 12.5933 14.3139 13.36 13.7405 13.92C13.1805 14.48 12.4605 14.76 11.5805 14.76C10.6872 14.76 9.95388 14.48 9.38055 13.92C8.82055 13.36 8.54055 12.5933 8.54055 11.62ZM11.5605 9.88C10.7205 9.88 10.3005 10.46 10.3005 11.62C10.3005 12.78 10.7205 13.36 11.5605 13.36C12.4005 13.36 12.8205 12.78 12.8205 11.62C12.8205 10.46 12.4005 9.88 11.5605 9.88Z" fill="#1479FF"/>
</svg>
