<svg width="17" height="17" viewBox="0 0 17 17" fill="none" xmlns="http://www.w3.org/2000/svg">
<g opacity="0.8">
<path d="M7.79147 2.83325H2.83316C2.45744 2.83325 2.09711 2.98251 1.83143 3.24818C1.56576 3.51386 1.4165 3.87419 1.4165 4.24992V14.1666C1.4165 14.5423 1.56576 14.9026 1.83143 15.1683C2.09711 15.434 2.45744 15.5832 2.83316 15.5832H12.7498C13.1255 15.5832 13.4858 15.434 13.7515 15.1683C14.0172 14.9026 14.1664 14.5423 14.1664 14.1666V9.20824" stroke="#1479FF" stroke-width="1.5" stroke-linecap="round" stroke-linejoin="round"/>
<path d="M13.1041 1.77079C13.3859 1.489 13.7681 1.33069 14.1666 1.33069C14.5651 1.33069 14.9473 1.489 15.2291 1.77079C15.5109 2.05258 15.6692 2.43478 15.6692 2.83329C15.6692 3.23181 15.5109 3.614 15.2291 3.89579L8.49986 10.625L5.6665 11.3333L6.37484 8.49996L13.1041 1.77079Z" stroke="#1479FF" stroke-width="1.5" stroke-linecap="round" stroke-linejoin="round"/>
</g>
</svg>
