<svg width="19" height="19" viewBox="0 0 19 19" fill="none" xmlns="http://www.w3.org/2000/svg">
<path d="M8.70846 3.1665H3.16682C2.7469 3.1665 2.34417 3.33332 2.04724 3.63025C1.75031 3.92718 1.5835 4.32991 1.5835 4.74983V15.8332C1.5835 16.2531 1.75031 16.6558 2.04724 16.9527C2.34417 17.2497 2.7469 17.4165 3.16682 17.4165H14.2501C14.67 17.4165 15.0727 17.2497 15.3697 16.9527C15.6666 16.6558 15.8334 16.2531 15.8334 15.8332V10.2915" stroke="#1479FF" stroke-width="1.5" stroke-linecap="round" stroke-linejoin="round"/>
<path d="M14.6461 1.97918C14.961 1.66424 15.3882 1.4873 15.8336 1.4873C16.279 1.4873 16.7061 1.66424 17.0211 1.97918C17.336 2.29413 17.513 2.72128 17.513 3.16668C17.513 3.61208 17.336 4.03924 17.0211 4.35418L9.50019 11.875L6.3335 12.6667L7.12517 9.50002L14.6461 1.97918Z" stroke="#1479FF" stroke-width="1.5" stroke-linecap="round" stroke-linejoin="round"/>
</svg>
