<svg width="21" height="21" viewBox="0 0 21 21" fill="none" xmlns="http://www.w3.org/2000/svg">
<path d="M9.62503 3.5H3.50003C3.0359 3.5 2.59078 3.68437 2.26259 4.01256C1.9344 4.34075 1.75003 4.78587 1.75003 5.25V17.5C1.75003 17.9641 1.9344 18.4092 2.26259 18.7374C2.59078 19.0656 3.0359 19.25 3.50003 19.25H15.75C16.2142 19.25 16.6593 19.0656 16.9875 18.7374C17.3157 18.4092 17.5 17.9641 17.5 17.5V11.375" stroke="#1479FF" stroke-width="2" stroke-linecap="round" stroke-linejoin="round"/>
<path d="M16.1875 2.18745C16.5356 1.83936 17.0077 1.6438 17.5 1.6438C17.9923 1.6438 18.4644 1.83936 18.8125 2.18745C19.1606 2.53555 19.3562 3.00767 19.3562 3.49995C19.3562 3.99224 19.1606 4.46436 18.8125 4.81245L10.5 13.125L7 14L7.875 10.5L16.1875 2.18745Z" stroke="#1479FF" stroke-width="2" stroke-linecap="round" stroke-linejoin="round"/>
</svg>
