<svg width="17" height="17" viewBox="0 0 17 17" fill="none" xmlns="http://www.w3.org/2000/svg">
<path d="M7.74899 2.87633H2.79068C2.41496 2.87633 2.05463 3.02558 1.78895 3.29126C1.52328 3.55693 1.37402 3.91727 1.37402 4.29299V14.2096C1.37402 14.5854 1.52328 14.9457 1.78895 15.2114C2.05463 15.4771 2.41496 15.6263 2.79068 15.6263H12.7073C13.083 15.6263 13.4434 15.4771 13.709 15.2114C13.9747 14.9457 14.124 14.5854 14.124 14.2096V9.25132" stroke="#1479FF" stroke-width="1.3" stroke-linecap="round" stroke-linejoin="round"/>
<path d="M13.0616 1.81391C13.3434 1.53212 13.7256 1.37381 14.1241 1.37381C14.5226 1.37381 14.9048 1.53212 15.1866 1.81391C15.4684 2.0957 15.6267 2.4779 15.6267 2.87641C15.6267 3.27493 15.4684 3.65712 15.1866 3.93891L8.45738 10.6681L5.62402 11.3764L6.33236 8.54308L13.0616 1.81391Z" stroke="#1479FF" stroke-width="1.3" stroke-linecap="round" stroke-linejoin="round"/>
</svg>
