<svg width="17" height="17" viewBox="0 0 17 17" fill="none" xmlns="http://www.w3.org/2000/svg">
<path d="M7.79147 2.83203H2.83316C2.45744 2.83203 2.09711 2.98129 1.83143 3.24696C1.56576 3.51264 1.4165 3.87297 1.4165 4.2487V14.1653C1.4165 14.5411 1.56576 14.9014 1.83143 15.1671C2.09711 15.4328 2.45744 15.582 2.83316 15.582H12.7498C13.1255 15.582 13.4858 15.4328 13.7515 15.1671C14.0172 14.9014 14.1664 14.5411 14.1664 14.1653V9.20702" stroke="#1479FF" stroke-width="1.3" stroke-linecap="round" stroke-linejoin="round"/>
<path d="M13.1041 1.77018C13.3859 1.48839 13.768 1.33008 14.1666 1.33008C14.5651 1.33008 14.9473 1.48839 15.2291 1.77018C15.5109 2.05197 15.6692 2.43417 15.6692 2.83268C15.6692 3.2312 15.5109 3.61339 15.2291 3.89518L8.49986 10.6243L5.6665 11.3327L6.37484 8.49935L13.1041 1.77018Z" stroke="#1479FF" stroke-width="1.3" stroke-linecap="round" stroke-linejoin="round"/>
</svg>
