<svg width="64" height="13" viewBox="0 0 64 13" fill="none" xmlns="http://www.w3.org/2000/svg">
<path d="M6.26 1.575V2.97H1.835V6.045H5.285V7.44H1.835V12H0.125V1.575H6.26ZM15.4197 7.665C15.4197 7.975 15.3997 8.255 15.3597 8.505H9.04473C9.09473 9.165 9.33973 9.695 9.77973 10.095C10.2197 10.495 10.7597 10.695 11.3997 10.695C12.3197 10.695 12.9697 10.31 13.3497 9.54H15.1947C14.9447 10.3 14.4897 10.925 13.8297 11.415C13.1797 11.895 12.3697 12.135 11.3997 12.135C10.6097 12.135 9.89973 11.96 9.26973 11.61C8.64973 11.25 8.15973 10.75 7.79973 10.11C7.44973 9.46 7.27473 8.71 7.27473 7.86C7.27473 7.01 7.44473 6.265 7.78473 5.625C8.13473 4.975 8.61973 4.475 9.23973 4.125C9.86973 3.775 10.5897 3.6 11.3997 3.6C12.1797 3.6 12.8747 3.77 13.4847 4.11C14.0947 4.45 14.5697 4.93 14.9097 5.55C15.2497 6.16 15.4197 6.865 15.4197 7.665ZM13.6347 7.125C13.6247 6.495 13.3997 5.99 12.9597 5.61C12.5197 5.23 11.9747 5.04 11.3247 5.04C10.7347 5.04 10.2297 5.23 9.80973 5.61C9.38973 5.98 9.13973 6.485 9.05973 7.125H13.6347ZM20.1025 12.135C19.4525 12.135 18.8675 12.02 18.3475 11.79C17.8375 11.55 17.4325 11.23 17.1325 10.83C16.8325 10.42 16.6725 9.965 16.6525 9.465H18.4225C18.4525 9.815 18.6175 10.11 18.9175 10.35C19.2275 10.58 19.6125 10.695 20.0725 10.695C20.5525 10.695 20.9225 10.605 21.1825 10.425C21.4525 10.235 21.5875 9.995 21.5875 9.705C21.5875 9.395 21.4375 9.165 21.1375 9.015C20.8475 8.865 20.3825 8.7 19.7425 8.52C19.1225 8.35 18.6175 8.185 18.2275 8.025C17.8375 7.865 17.4975 7.62 17.2075 7.29C16.9275 6.96 16.7875 6.525 16.7875 5.985C16.7875 5.545 16.9175 5.145 17.1775 4.785C17.4375 4.415 17.8075 4.125 18.2875 3.915C18.7775 3.705 19.3375 3.6 19.9675 3.6C20.9075 3.6 21.6625 3.84 22.2325 4.32C22.8125 4.79 23.1225 5.435 23.1625 6.255H21.4525C21.4225 5.885 21.2725 5.59 21.0025 5.37C20.7325 5.15 20.3675 5.04 19.9075 5.04C19.4575 5.04 19.1125 5.125 18.8725 5.295C18.6325 5.465 18.5125 5.69 18.5125 5.97C18.5125 6.19 18.5925 6.375 18.7525 6.525C18.9125 6.675 19.1075 6.795 19.3375 6.885C19.5675 6.965 19.9075 7.07 20.3575 7.2C20.9575 7.36 21.4475 7.525 21.8275 7.695C22.2175 7.855 22.5525 8.095 22.8325 8.415C23.1125 8.735 23.2575 9.16 23.2675 9.69C23.2675 10.16 23.1375 10.58 22.8775 10.95C22.6175 11.32 22.2475 11.61 21.7675 11.82C21.2975 12.03 20.7425 12.135 20.1025 12.135ZM27.1102 5.13V9.705C27.1102 10.015 27.1802 10.24 27.3202 10.38C27.4702 10.51 27.7202 10.575 28.0702 10.575H29.1202V12H27.7702C27.0002 12 26.4102 11.82 26.0002 11.46C25.5902 11.1 25.3852 10.515 25.3852 9.705V5.13H24.4102V3.735H25.3852V1.68H27.1102V3.735H29.1202V5.13H27.1102ZM31.5663 2.64C31.2563 2.64 30.9963 2.535 30.7863 2.325C30.5763 2.115 30.4713 1.855 30.4713 1.545C30.4713 1.235 30.5763 0.974999 30.7863 0.765C30.9963 0.555 31.2563 0.449999 31.5663 0.449999C31.8663 0.449999 32.1213 0.555 32.3313 0.765C32.5413 0.974999 32.6463 1.235 32.6463 1.545C32.6463 1.855 32.5413 2.115 32.3313 2.325C32.1213 2.535 31.8663 2.64 31.5663 2.64ZM32.4063 3.735V12H30.6963V3.735H32.4063ZM37.8464 10.47L40.1864 3.735H42.0014L38.8514 12H36.8114L33.6764 3.735H35.5064L37.8464 10.47ZM42.7239 7.83C42.7239 7 42.8939 6.265 43.2339 5.625C43.5839 4.985 44.0539 4.49 44.6439 4.14C45.2439 3.78 45.9039 3.6 46.6239 3.6C47.2739 3.6 47.8389 3.73 48.3189 3.99C48.8089 4.24 49.1989 4.555 49.4889 4.935V3.735H51.2139V12H49.4889V10.77C49.1989 11.16 48.8039 11.485 48.3039 11.745C47.8039 12.005 47.2339 12.135 46.5939 12.135C45.8839 12.135 45.2339 11.955 44.6439 11.595C44.0539 11.225 43.5839 10.715 43.2339 10.065C42.8939 9.405 42.7239 8.66 42.7239 7.83ZM49.4889 7.86C49.4889 7.29 49.3689 6.795 49.1289 6.375C48.8989 5.955 48.5939 5.635 48.2139 5.415C47.8339 5.195 47.4239 5.085 46.9839 5.085C46.5439 5.085 46.1339 5.195 45.7539 5.415C45.3739 5.625 45.0639 5.94 44.8239 6.36C44.5939 6.77 44.4789 7.26 44.4789 7.83C44.4789 8.4 44.5939 8.9 44.8239 9.33C45.0639 9.76 45.3739 10.09 45.7539 10.32C46.1439 10.54 46.5539 10.65 46.9839 10.65C47.4239 10.65 47.8339 10.54 48.2139 10.32C48.5939 10.1 48.8989 9.78 49.1289 9.36C49.3689 8.93 49.4889 8.43 49.4889 7.86ZM55.17 0.9V12H53.46V0.9H55.17ZM60.415 12.135C59.765 12.135 59.18 12.02 58.66 11.79C58.15 11.55 57.745 11.23 57.445 10.83C57.145 10.42 56.985 9.965 56.965 9.465H58.735C58.765 9.815 58.93 10.11 59.23 10.35C59.54 10.58 59.925 10.695 60.385 10.695C60.865 10.695 61.235 10.605 61.495 10.425C61.765 10.235 61.9 9.995 61.9 9.705C61.9 9.395 61.75 9.165 61.45 9.015C61.16 8.865 60.695 8.7 60.055 8.52C59.435 8.35 58.93 8.185 58.54 8.025C58.15 7.865 57.81 7.62 57.52 7.29C57.24 6.96 57.1 6.525 57.1 5.985C57.1 5.545 57.23 5.145 57.49 4.785C57.75 4.415 58.12 4.125 58.6 3.915C59.09 3.705 59.65 3.6 60.28 3.6C61.22 3.6 61.975 3.84 62.545 4.32C63.125 4.79 63.435 5.435 63.475 6.255H61.765C61.735 5.885 61.585 5.59 61.315 5.37C61.045 5.15 60.68 5.04 60.22 5.04C59.77 5.04 59.425 5.125 59.185 5.295C58.945 5.465 58.825 5.69 58.825 5.97C58.825 6.19 58.905 6.375 59.065 6.525C59.225 6.675 59.42 6.795 59.65 6.885C59.88 6.965 60.22 7.07 60.67 7.2C61.27 7.36 61.76 7.525 62.14 7.695C62.53 7.855 62.865 8.095 63.145 8.415C63.425 8.735 63.57 9.16 63.58 9.69C63.58 10.16 63.45 10.58 63.19 10.95C62.93 11.32 62.56 11.61 62.08 11.82C61.61 12.03 61.055 12.135 60.415 12.135Z" fill="#53688C"/>
</svg>
