<svg width="22" height="19" viewBox="0 0 22 19" fill="none" xmlns="http://www.w3.org/2000/svg">
<line x1="0.5" y1="2.84302" x2="21.5" y2="2.84302" stroke="#1479FF" stroke-width="1.75"/>
<line x1="0.5" y1="15.6855" x2="21.5" y2="15.6855" stroke="#1479FF" stroke-width="1.75"/>
<line x1="0.5" y1="9.26367" x2="21.5" y2="9.26367" stroke="#1479FF" stroke-width="1.75"/>
<path d="M6.62816 2.7037C6.62816 3.77352 5.74684 4.65739 4.63903 4.65739C3.53123 4.65739 2.6499 3.77352 2.6499 2.7037C2.6499 1.63388 3.53123 0.75 4.63903 0.75C5.74684 0.75 6.62816 1.63388 6.62816 2.7037Z" fill="white" stroke="#1479FF" stroke-width="1.5"/>
<path d="M6.62816 15.546C6.62816 16.6158 5.74684 17.4997 4.63903 17.4997C3.53123 17.4997 2.6499 16.6158 2.6499 15.546C2.6499 14.4762 3.53123 13.5923 4.63903 13.5923C5.74684 13.5923 6.62816 14.4762 6.62816 15.546Z" fill="white" stroke="#1479FF" stroke-width="1.5"/>
<path d="M18.5281 9.1246C18.5281 10.1944 17.6467 11.0783 16.5389 11.0783C15.4311 11.0783 14.5498 10.1944 14.5498 9.1246C14.5498 8.05477 15.4311 7.1709 16.5389 7.1709C17.6467 7.1709 18.5281 8.05477 18.5281 9.1246Z" fill="white" stroke="#1479FF" stroke-width="1.5"/>
</svg>
