<svg width="22" height="18" viewBox="0 0 22 18" fill="none" xmlns="http://www.w3.org/2000/svg">
<path d="M11.6864 4.05714H11.8017L11.8595 3.95725L12.8468 2.24966L12.8534 2.23835L12.8584 2.22629C12.9365 2.03833 13.0983 1.86404 13.372 1.71154C13.6441 1.55994 13.9256 1.48571 14.219 1.48571H19.3703C19.6795 1.48571 19.968 1.56069 20.2388 1.71154C20.5125 1.86404 20.6743 2.03833 20.7524 2.22629L20.7585 2.24093L20.7668 2.25444L21.7888 3.91379V15.4286C21.7888 16.0809 21.545 16.6347 21.0472 17.1006C20.549 17.567 19.9509 17.8 19.2415 17.8H2.75757C2.04816 17.8 1.45004 17.567 0.951802 17.1006C0.454003 16.6347 0.210254 16.0809 0.210254 15.4286V5.14286C0.210254 4.85229 0.318051 4.60208 0.545929 4.38302C0.771295 4.16639 1.04627 4.05714 1.38391 4.05714H11.6864ZM2.8248 15.3837L2.96147 15.2377L2.8248 15.3837C2.99776 15.5456 3.20758 15.6286 3.4444 15.6286H18.5546C18.7915 15.6286 19.0013 15.5456 19.1742 15.3837C19.3474 15.2216 19.4415 15.0193 19.4415 14.7857V5.14286C19.4415 4.73515 19.2795 4.38216 18.9703 4.09282C18.6615 3.80371 18.2907 3.65714 17.8678 3.65714H15.1205C14.6855 3.65714 14.3094 3.80236 14.0053 4.09465C13.7029 4.38536 13.5468 4.7415 13.5468 5.1529C13.5468 5.41634 13.4041 5.66207 13.0407 5.88682C12.6778 6.11121 12.2296 6.22857 11.6864 6.22857H3.4444C3.20758 6.22857 2.99776 6.31152 2.8248 6.4734C2.6516 6.63551 2.55757 6.83783 2.55757 7.07143V14.7857C2.55757 15.0193 2.6516 15.2216 2.8248 15.3837ZM1.1702 0.984927L1.17801 0.971576L1.18367 0.957182C1.26289 0.755941 1.42515 0.576664 1.69589 0.425831C1.96801 0.274224 2.24947 0.2 2.54294 0.2H7.69416C8.00344 0.2 8.2919 0.274973 8.56267 0.425831C8.83449 0.577269 9.007 0.759128 9.10006 0.965979L9.10521 0.977429L9.11175 0.988144L9.95626 2.37143H0.358986L1.1702 0.984927Z" fill="#1479FF" stroke="white" stroke-width="0.4"/>
</svg>
