<svg width="25" height="25" viewBox="0 0 25 25" fill="none" xmlns="http://www.w3.org/2000/svg">
<path d="M9.375 18.75C9.375 17.0241 7.97589 15.625 6.25 15.625C4.52411 15.625 3.125 17.0241 3.125 18.75C3.125 20.4759 4.52411 21.875 6.25 21.875C7.97589 21.875 9.375 20.4759 9.375 18.75Z" stroke="#46BFBD" stroke-width="1.75" stroke-linecap="round" stroke-linejoin="round"/>
<path d="M21.875 18.75C21.875 17.0241 20.4759 15.625 18.75 15.625C17.0241 15.625 15.625 17.0241 15.625 18.75C15.625 20.4759 17.0241 21.875 18.75 21.875C20.4759 21.875 21.875 20.4759 21.875 18.75Z" stroke="#46BFBD" stroke-width="1.75" stroke-linecap="round" stroke-linejoin="round"/>
<path d="M4.16669 4.16669L16.5417 16.5417" stroke="#46BFBD" stroke-width="1.75" stroke-linecap="round" stroke-linejoin="round"/>
<path d="M15.0833 9.92706L20.8333 4.16665" stroke="#46BFBD" stroke-width="1.75" stroke-linecap="round" stroke-linejoin="round"/>
<path d="M8.45831 16.5417L12.5 12.5" stroke="#46BFBD" stroke-width="1.75" stroke-linecap="round" stroke-linejoin="round"/>
</svg>
