<svg width="21" height="21" viewBox="0 0 21 21" fill="none" xmlns="http://www.w3.org/2000/svg">
<path d="M17.4737 18.7119L14.5373 15.7754C13.2703 16.3522 11.8919 16.6429 10.5 16.6268C9.06489 16.6446 7.64462 16.3349 6.34725 15.7211C5.3416 15.2305 4.43856 14.5528 3.68638 13.7244C2.88793 12.8685 2.26039 11.8679 1.8375 10.7765L1.75 10.5018L1.84187 10.2253C2.47433 8.61201 3.53872 7.20402 4.91838 6.15563L2.625 3.86225L3.86138 2.62675L18.7092 17.4746L17.4755 18.7119H17.4737ZM6.1565 7.39463C5.03818 8.17855 4.15507 9.25287 3.60238 10.5018C4.78749 13.236 7.52139 14.9701 10.5 14.8768C11.4186 14.8843 12.3319 14.7364 13.2011 14.4393L11.6261 12.8643C11.2755 13.0361 10.8904 13.1259 10.5 13.1268C9.05403 13.1177 7.88407 11.9477 7.875 10.5018C7.87542 10.1104 7.9652 9.72436 8.1375 9.373L6.1565 7.39463ZM17.3705 13.6605L16.1525 12.4434C16.6649 11.8641 17.0849 11.2091 17.3976 10.5018C16.2141 7.76613 13.4792 6.03144 10.5 6.12675C10.2839 6.12675 10.0669 6.13463 9.85688 6.1495L8.3125 4.60338C9.03143 4.44958 9.76482 4.3736 10.5 4.37675C11.9351 4.35894 13.3554 4.66867 14.6528 5.28238C15.6584 5.77302 16.5615 6.45067 17.3136 7.27913C18.1117 8.13397 18.7392 9.13332 19.1625 10.2235L19.25 10.5018L19.1581 10.7783C18.7485 11.8441 18.1424 12.8235 17.3714 13.6658L17.3705 13.6605Z" fill="#97A7C3"/>
</svg>
