<svg width="26" height="26" viewBox="0 0 26 26" fill="none" xmlns="http://www.w3.org/2000/svg">
<path d="M15.7083 17.6129H10.2917C9.93252 17.6129 9.58808 17.4656 9.33413 17.2035C9.08017 16.9413 8.9375 16.5858 8.9375 16.2151V14.8172C8.9375 14.4465 9.08017 14.0909 9.33413 13.8288C9.58808 13.5666 9.93252 13.4194 10.2917 13.4194H15.7083C16.0675 13.4194 16.4119 13.5666 16.6659 13.8288C16.9198 14.0909 17.0625 14.4465 17.0625 14.8172V16.2151C17.0625 16.5858 16.9198 16.9413 16.6659 17.2035C16.4119 17.4656 16.0675 17.6129 15.7083 17.6129ZM10.2917 14.8172V16.2151H15.7083V14.8172H10.2917Z" fill="#97A7C3"/>
<path d="M22.75 2.5161H3.25C2.81902 2.5161 2.4057 2.69283 2.10095 3.00741C1.7962 3.32198 1.625 3.74864 1.625 4.19352V7.54836C1.625 7.99324 1.7962 8.4199 2.10095 8.73447C2.4057 9.04905 2.81902 9.22578 3.25 9.22578V22.6451C3.25 23.09 3.4212 23.5167 3.72595 23.8312C4.0307 24.1458 4.44402 24.3226 4.875 24.3226H21.125C21.556 24.3226 21.9693 24.1458 22.274 23.8312C22.5788 23.5167 22.75 23.09 22.75 22.6451V9.22578C23.181 9.22578 23.5943 9.04905 23.899 8.73447C24.2038 8.4199 24.375 7.99324 24.375 7.54836V4.19352C24.375 3.74864 24.2038 3.32198 23.899 3.00741C23.5943 2.69283 23.181 2.5161 22.75 2.5161ZM21.125 22.6451H4.875V9.22578H21.125V22.6451ZM22.75 7.54836H3.25V4.19352H22.75V7.54836Z" fill="#97A7C3"/>
</svg>
