<svg width="30" height="30" viewBox="0 0 30 30" fill="none" xmlns="http://www.w3.org/2000/svg">
<path d="M1 28.7315V1.18685C1 1.10698 1.08901 1.05934 1.15547 1.10365L4.43433 3.28955C4.46792 3.31194 4.51168 3.31194 4.54527 3.28955L7.92412 1.03698C7.95771 1.01459 8.00147 1.01459 8.03506 1.03698L11.4139 3.28955C11.4475 3.31194 11.4913 3.31194 11.5249 3.28955L14.9037 1.03698C14.9373 1.01459 14.9811 1.01459 15.0147 1.03698L18.3935 3.28955C18.4271 3.31194 18.4709 3.31194 18.5044 3.28955L21.7833 1.10365C21.8498 1.05934 21.9388 1.10698 21.9388 1.18685V26.4918C21.9388 26.5471 21.894 26.5918 21.8388 26.5918H18.4793C18.4595 26.5918 18.4402 26.5977 18.4238 26.6086L15.0147 28.8814C14.9811 28.9038 14.9373 28.9038 14.9037 28.8814L11.5249 26.6288C11.4913 26.6064 11.4475 26.6064 11.4139 26.6288L8.03506 28.8814C8.00147 28.9038 7.95771 28.9038 7.92412 28.8814L4.54527 26.6288C4.51168 26.6064 4.46792 26.6064 4.43433 26.6288L1.15547 28.8147C1.08901 28.859 1 28.8114 1 28.7315Z" stroke="#97A7C3" stroke-width="1.5"/>
<line x1="4.4082" y1="8.06152" x2="18.5307" y2="8.06152" stroke="#97A7C3" stroke-linecap="round"/>
<line x1="4.4082" y1="11.5508" x2="18.5307" y2="11.5508" stroke="#97A7C3" stroke-linecap="round"/>
<line x1="4.4082" y1="15.041" x2="18.5307" y2="15.041" stroke="#97A7C3" stroke-linecap="round"/>
<line x1="4.4082" y1="18.5303" x2="16.2041" y2="18.5303" stroke="#97A7C3" stroke-linecap="round"/>
<line x1="4.4082" y1="22.0205" x2="14.4592" y2="22.0205" stroke="#97A7C3" stroke-linecap="round"/>
<circle cx="23.1021" cy="23.1021" r="5.89796" fill="white" stroke="#97A7C3"/>
<path d="M23.5506 25.5212C23.4173 25.3292 23.3026 25.1532 23.2066 24.9932C23.1106 24.8279 22.9959 24.6332 22.8626 24.4092C22.7506 24.2172 22.6306 24.0412 22.5026 23.8812C22.3799 23.7212 22.2039 23.5559 21.9746 23.3852L21.2946 23.3932C21.2946 23.3026 21.3026 23.2066 21.3186 23.1052C21.3399 22.9986 21.3666 22.9132 21.3986 22.8492H21.7666C22.0919 22.8492 22.3746 22.7799 22.6146 22.6412C22.8599 22.4972 23.0173 22.2706 23.0866 21.9612C22.8359 21.9612 22.5666 21.9639 22.2786 21.9692C21.9906 21.9746 21.6626 21.9799 21.2946 21.9852C21.2946 21.8946 21.3026 21.7986 21.3186 21.6972C21.3399 21.5906 21.3666 21.5052 21.3986 21.4412H23.1186C23.0919 21.1852 22.9959 20.9772 22.8306 20.8172C22.6653 20.6519 22.3959 20.5692 22.0226 20.5692H21.2946C21.2946 20.4786 21.3026 20.3826 21.3186 20.2812C21.3399 20.1799 21.3666 20.0999 21.3986 20.0412H25.0786C25.0786 20.1372 25.0706 20.2306 25.0546 20.3212C25.0386 20.4119 25.0119 20.4892 24.9746 20.5532C24.7346 20.5532 24.5159 20.5532 24.3186 20.5532C24.1213 20.5532 23.9186 20.5532 23.7106 20.5532C23.8546 20.6439 23.9639 20.7666 24.0386 20.9212C24.1186 21.0759 24.1666 21.2492 24.1826 21.4412H25.0786C25.0786 21.5426 25.0706 21.6386 25.0546 21.7292C25.0386 21.8146 25.0119 21.8892 24.9746 21.9532C24.8253 21.9532 24.6813 21.9532 24.5426 21.9532C24.4093 21.9532 24.2786 21.9532 24.1506 21.9532C24.0866 22.2466 23.9453 22.4972 23.7266 22.7052C23.5133 22.9079 23.2413 23.0599 22.9106 23.1612C23.0599 23.2466 23.1826 23.3372 23.2786 23.4332C23.3799 23.5239 23.4786 23.6359 23.5746 23.7692C23.6706 23.9026 23.7906 24.0706 23.9346 24.2732C24.1213 24.5292 24.2973 24.7132 24.4626 24.8252C24.6279 24.9372 24.8493 24.9986 25.1266 25.0092C25.1266 25.0946 25.1213 25.1719 25.1106 25.2412C25.1053 25.3106 25.0919 25.3799 25.0706 25.4492C24.7879 25.4492 24.5106 25.4519 24.2386 25.4572C23.9666 25.4679 23.7373 25.4892 23.5506 25.5212Z" fill="#97A7C3"/>
</svg>
