<svg width="26" height="26" viewBox="0 0 26 26" fill="none" xmlns="http://www.w3.org/2000/svg">
<path d="M3.32227 22.778V2.41827C3.32227 2.33781 3.41246 2.2903 3.47882 2.3358L5.78612 3.91795C5.8202 3.94132 5.86515 3.94132 5.89923 3.91795L8.30653 2.26723C8.34061 2.24386 8.38555 2.24386 8.41963 2.26723L10.8269 3.91795C10.861 3.94132 10.906 3.94132 10.94 3.91795L13.3473 2.26723C13.3814 2.24386 13.4264 2.24386 13.4605 2.26723L15.8678 3.91795C15.9018 3.94132 15.9468 3.94132 15.9809 3.91795L18.2882 2.3358C18.3545 2.2903 18.4447 2.33781 18.4447 2.41827V21.1395C18.4447 21.1948 18.3999 21.2395 18.3447 21.2395H15.9553C15.9351 21.2395 15.9154 21.2456 15.8987 21.2571L13.4605 22.929C13.4264 22.9524 13.3814 22.9524 13.3473 22.929L10.94 21.2783C10.906 21.2549 10.861 21.2549 10.8269 21.2783L8.41964 22.929C8.38555 22.9524 8.34061 22.9524 8.30653 22.929L5.89923 21.2783C5.86515 21.2549 5.8202 21.2549 5.78612 21.2783L3.47882 22.8605C3.41246 22.906 3.32227 22.8584 3.32227 22.778Z" stroke="#1479FF" stroke-width="1.5"/>
<line x1="5.92285" y1="7.34557" x2="15.8446" y2="7.34557" stroke="#1479FF" stroke-linecap="round"/>
<line x1="5.92285" y1="9.93759" x2="15.8446" y2="9.93759" stroke="#1479FF" stroke-linecap="round"/>
<line x1="5.92285" y1="12.5303" x2="15.8446" y2="12.5303" stroke="#1479FF" stroke-linecap="round"/>
<line x1="5.92285" y1="15.1224" x2="14.1643" y2="15.1224" stroke="#1479FF" stroke-linecap="round"/>
<line x1="5.92285" y1="17.7151" x2="12.9041" y2="17.7151" stroke="#1479FF" stroke-linecap="round"/>
<path d="M23.4056 18.6472C23.4056 21.0093 21.5475 22.8999 19.2848 22.8999C17.0222 22.8999 15.1641 21.0093 15.1641 18.6472C15.1641 16.285 17.0222 14.3944 19.2848 14.3944C21.5475 14.3944 23.4056 16.285 23.4056 18.6472Z" fill="white" stroke="#1479FF"/>
<path d="M19.7335 21.2627C19.6002 21.0707 19.4855 20.8947 19.3895 20.7347C19.2935 20.5694 19.1788 20.3747 19.0455 20.1507C18.9335 19.9587 18.8135 19.7827 18.6855 19.6227C18.5628 19.4627 18.3868 19.2974 18.1575 19.1267L17.4775 19.1347C17.4775 19.044 17.4855 18.948 17.5015 18.8467C17.5228 18.74 17.5495 18.6547 17.5815 18.5907H17.9495C18.2748 18.5907 18.5575 18.5214 18.7975 18.3827C19.0428 18.2387 19.2002 18.012 19.2695 17.7027C19.0188 17.7027 18.7495 17.7054 18.4615 17.7107C18.1735 17.716 17.8455 17.7214 17.4775 17.7267C17.4775 17.636 17.4855 17.54 17.5015 17.4387C17.5228 17.332 17.5495 17.2467 17.5815 17.1827H19.3015C19.2748 16.9267 19.1788 16.7187 19.0135 16.5587C18.8482 16.3934 18.5788 16.3107 18.2055 16.3107H17.4775C17.4775 16.22 17.4855 16.124 17.5015 16.0227C17.5228 15.9214 17.5495 15.8414 17.5815 15.7827H21.2615C21.2615 15.8787 21.2535 15.972 21.2375 16.0627C21.2215 16.1534 21.1948 16.2307 21.1575 16.2947C20.9175 16.2947 20.6988 16.2947 20.5015 16.2947C20.3042 16.2947 20.1015 16.2947 19.8935 16.2947C20.0375 16.3854 20.1468 16.508 20.2215 16.6627C20.3015 16.8174 20.3495 16.9907 20.3655 17.1827H21.2615C21.2615 17.284 21.2535 17.38 21.2375 17.4707C21.2215 17.556 21.1948 17.6307 21.1575 17.6947C21.0082 17.6947 20.8642 17.6947 20.7255 17.6947C20.5922 17.6947 20.4615 17.6947 20.3335 17.6947C20.2695 17.988 20.1282 18.2387 19.9095 18.4467C19.6962 18.6494 19.4242 18.8014 19.0935 18.9027C19.2428 18.988 19.3655 19.0787 19.4615 19.1747C19.5628 19.2654 19.6615 19.3774 19.7575 19.5107C19.8535 19.644 19.9735 19.812 20.1175 20.0147C20.3042 20.2707 20.4802 20.4547 20.6455 20.5667C20.8108 20.6787 21.0322 20.74 21.3095 20.7507C21.3095 20.836 21.3042 20.9134 21.2935 20.9827C21.2882 21.052 21.2748 21.1214 21.2535 21.1907C20.9708 21.1907 20.6935 21.1934 20.4215 21.1987C20.1495 21.2094 19.9202 21.2307 19.7335 21.2627Z" fill="#1479FF"/>
</svg>
