<svg width="28" height="28" viewBox="0 0 28 28" fill="none" xmlns="http://www.w3.org/2000/svg">
<path d="M19.04 12.88H17.92V10.64C17.92 8.45598 16.184 6.71998 14 6.71998C11.816 6.71998 10.08 8.45598 10.08 10.64V12.88H8.95996V10.64C8.95996 7.83998 11.2 5.59998 14 5.59998C16.8 5.59998 19.04 7.83998 19.04 10.64V12.88Z" fill="#1479FF"/>
<rect x="7.8042" y="12.674" width="12.3913" height="8.73913" rx="1.5" fill="white" stroke="#1479FF"/>
<path d="M13.9999 16.7999C14.6184 16.7999 15.1199 16.2985 15.1199 15.6799C15.1199 15.0614 14.6184 14.5599 13.9999 14.5599C13.3813 14.5599 12.8799 15.0614 12.8799 15.6799C12.8799 16.2985 13.3813 16.7999 13.9999 16.7999Z" fill="#1479FF"/>
<path d="M14.2802 15.6801H13.7202L13.1602 19.0401H14.8402L14.2802 15.6801Z" fill="#1479FF"/>
</svg>
