<svg width="24" height="24" viewBox="0 0 24 24" fill="none" xmlns="http://www.w3.org/2000/svg">
<path d="M3.6593 8.10731L3.58326 8.06095V8.15V17.94C3.58326 18.5199 4.05337 18.99 4.63326 18.99H18.9667C19.5466 18.99 20.0167 18.5199 20.0167 17.94V8.15V8.06095L19.9406 8.10731L11.8 13.0714L3.6593 8.10731ZM11.7726 11.0139L11.7998 11.0316L11.8271 11.0139L19.7113 5.88574C19.8365 5.80434 19.7788 5.61 19.6295 5.61H3.9704C3.82111 5.61 3.76347 5.80433 3.88861 5.88574L11.7726 11.0139ZM20.757 19.7254C20.238 20.2529 19.529 20.55 18.7889 20.55L4.81102 20.55C4.07098 20.55 3.36192 20.2529 2.8429 19.7254C2.33477 19.209 2.05 18.5135 2.05 17.789V6.2789C2.05 5.82352 2.18948 5.37907 2.44968 5.00534C2.8664 4.4068 3.54958 4.05 4.2789 4.05H18.7889C19.529 4.05 20.238 4.34707 20.757 4.87457C21.2652 5.39103 21.55 6.08654 21.55 6.81107V17.7889C21.55 18.5135 21.2652 19.209 20.757 19.7254Z" fill="#1479FF" stroke="white" stroke-width="0.1"/>
</svg>
