<svg width="15" height="12" viewBox="0 0 15 12" fill="none" xmlns="http://www.w3.org/2000/svg">
<path d="M13.875 0.278809H1.125C0.843207 0.278809 0.572956 0.399361 0.373699 0.613946C0.174442 0.828531 0.0625 1.11957 0.0625 1.42304V10.5769C0.0625 10.8804 0.174442 11.1714 0.373699 11.386C0.572956 11.6006 0.843207 11.7211 1.125 11.7211H13.875C14.1568 11.7211 14.427 11.6006 14.6263 11.386C14.8256 11.1714 14.9375 10.8804 14.9375 10.5769V1.42304C14.9375 1.11957 14.8256 0.828531 14.6263 0.613946C14.427 0.399361 14.1568 0.278809 13.875 0.278809ZM12.7062 1.42304L7.5 5.30198L2.29375 1.42304H12.7062ZM1.125 10.5769V1.94366L7.19719 6.4691C7.28612 6.53554 7.39177 6.57114 7.5 6.57114C7.60823 6.57114 7.71388 6.53554 7.80281 6.4691L13.875 1.94366V10.5769H1.125Z" fill="#1479FF"/>
</svg>
