<svg width="75" height="75" viewBox="0 0 75 75" fill="none" xmlns="http://www.w3.org/2000/svg">
<circle cx="37.5" cy="37.5" r="37.5" fill="#1479FF" fill-opacity="0.2"/>
<path d="M42.5802 30.2051L42.6674 30.3819L42.8625 30.4103L52.5314 31.8155C52.5315 31.8155 52.5317 31.8155 52.5318 31.8155C52.9968 31.8849 53.3146 32.3134 53.2442 32.7699L53.2436 32.774C53.2174 32.9574 53.1308 33.1261 52.9982 33.2562C52.9982 33.2562 52.9981 33.2562 52.9981 33.2562L46.0024 40.0767L45.8613 40.2143L45.8946 40.4087L47.5476 50.0406L47.5476 50.0409C47.6265 50.4986 47.3189 50.9338 46.8594 51.013L46.8589 51.0131C46.6765 51.0448 46.4871 51.0153 46.3262 50.9296L46.3245 50.9287L37.6752 46.3813L37.5006 46.2895L37.3261 46.3813L28.6768 50.9287L28.6762 50.929C28.5371 51.0025 28.3802 51.0355 28.2233 51.0243C28.0664 51.0131 27.9157 50.9582 27.7885 50.8657C27.6612 50.7733 27.5623 50.647 27.5032 50.5013C27.444 50.3555 27.4268 50.1961 27.4537 50.0411L27.4537 50.0406L29.1067 40.4087L29.14 40.2143L28.9989 40.0767L22.0025 33.2555L22.0024 33.2555C21.8419 33.0991 21.7501 32.8853 21.7471 32.6612C21.7442 32.4373 21.8301 32.2214 21.9861 32.0608C22.1161 31.9283 22.2846 31.842 22.4678 31.8158L22.4687 31.8156L32.1388 30.4103L32.3339 30.3819L32.4211 30.2051L36.743 21.4433C36.7431 21.443 36.7433 21.4428 36.7434 21.4425C36.9528 21.0248 37.4602 20.8546 37.8755 21.0596L37.8759 21.0598C38.0416 21.1413 38.1757 21.2755 38.2572 21.4412L38.2574 21.4415L42.5802 30.2051Z" fill="#1479FF" fill-opacity="0.4" stroke="#1479FF" stroke-width="0.75"/>
</svg>
