<svg width="16" height="15" viewBox="0 0 16 15" fill="none" xmlns="http://www.w3.org/2000/svg">
<path d="M11.3333 13.5V12.1667C11.3333 11.4594 11.0524 10.7811 10.5523 10.281C10.0522 9.78095 9.3739 9.5 8.66666 9.5H3.33332C2.62608 9.5 1.9478 9.78095 1.44771 10.281C0.947608 10.7811 0.666656 11.4594 0.666656 12.1667V13.5" stroke="#E66666" stroke-width="1.2" stroke-linecap="round" stroke-linejoin="round"/>
<path d="M5.99998 6.83333C7.47274 6.83333 8.66665 5.63943 8.66665 4.16667C8.66665 2.69391 7.47274 1.5 5.99998 1.5C4.52722 1.5 3.33331 2.69391 3.33331 4.16667C3.33331 5.63943 4.52722 6.83333 5.99998 6.83333Z" stroke="#E66666" stroke-width="1.2" stroke-linecap="round" stroke-linejoin="round"/>
<path d="M15.3333 13.5V12.1667C15.3329 11.5758 15.1362 11.0019 14.7742 10.5349C14.4122 10.0679 13.9054 9.73438 13.3333 9.58667" stroke="#E66666" stroke-width="1.2" stroke-linecap="round" stroke-linejoin="round"/>
<path d="M10.6666 1.58667C11.2402 1.73354 11.7487 2.06714 12.1117 2.53488C12.4748 3.00262 12.6719 3.57789 12.6719 4.17C12.6719 4.76212 12.4748 5.33739 12.1117 5.80513C11.7487 6.27287 11.2402 6.60647 10.6666 6.75334" stroke="#E66666" stroke-width="1.2" stroke-linecap="round" stroke-linejoin="round"/>
</svg>
