<svg width="20" height="21" viewBox="0 0 20 21" fill="none" xmlns="http://www.w3.org/2000/svg">
<path d="M14.1668 18V16.3333C14.1668 15.4493 13.8156 14.6014 13.1905 13.9763C12.5654 13.3512 11.7176 13 10.8335 13H4.16683C3.28277 13 2.43493 13.3512 1.80981 13.9763C1.18469 14.6014 0.833496 15.4493 0.833496 16.3333V18" stroke="#1479FF" stroke-width="1.5" stroke-linecap="round" stroke-linejoin="round"/>
<path d="M7.50033 9.66667C9.34128 9.66667 10.8337 8.17428 10.8337 6.33333C10.8337 4.49238 9.34128 3 7.50033 3C5.65938 3 4.16699 4.49238 4.16699 6.33333C4.16699 8.17428 5.65938 9.66667 7.50033 9.66667Z" stroke="#1479FF" stroke-width="1.5" stroke-linecap="round" stroke-linejoin="round"/>
<path d="M19.167 17.9999V16.3333C19.1664 15.5947 18.9206 14.8773 18.4681 14.2935C18.0156 13.7098 17.3821 13.2929 16.667 13.1083" stroke="#1479FF" stroke-width="1.5" stroke-linecap="round" stroke-linejoin="round"/>
<path d="M13.3335 3.10828C14.0505 3.29186 14.686 3.70886 15.1399 4.29353C15.5937 4.87821 15.84 5.5973 15.84 6.33744C15.84 7.07758 15.5937 7.79668 15.1399 8.38135C14.686 8.96603 14.0505 9.38303 13.3335 9.56661" stroke="#1479FF" stroke-width="1.5" stroke-linecap="round" stroke-linejoin="round"/>
</svg>
