<svg width="16" height="21" viewBox="0 0 16 21" fill="none" xmlns="http://www.w3.org/2000/svg">
<rect x="0.625" y="4.50024" width="13.9079" height="15.243" rx="2.375" fill="white" stroke="#193566" stroke-width="1.25"/>
<mask id="path-2-inside-1_828_1374" fill="white">
<path d="M9.26172 12.1222C9.26172 10.4442 10.622 9.08398 12.2999 9.08398H14.9986C15.5508 9.08398 15.9986 9.5317 15.9986 10.084V14.1604C15.9986 14.7126 15.5508 15.1604 14.9986 15.1604H12.2999C10.622 15.1604 9.26172 13.8001 9.26172 12.1222Z"/>
</mask>
<path d="M9.26172 12.1222C9.26172 10.4442 10.622 9.08398 12.2999 9.08398H14.9986C15.5508 9.08398 15.9986 9.5317 15.9986 10.084V14.1604C15.9986 14.7126 15.5508 15.1604 14.9986 15.1604H12.2999C10.622 15.1604 9.26172 13.8001 9.26172 12.1222Z" fill="white"/>
<path d="M12.2999 10.334H14.9986V7.83398H12.2999V10.334ZM14.7486 10.084V14.1604H17.2486V10.084H14.7486ZM14.9986 13.9104H12.2999V16.4104H14.9986V13.9104ZM12.2999 13.9104C11.3123 13.9104 10.5117 13.1098 10.5117 12.1222H8.01172C8.01172 14.4905 9.93161 16.4104 12.2999 16.4104V13.9104ZM14.7486 14.1604C14.7486 14.0223 14.8605 13.9104 14.9986 13.9104V16.4104C16.2412 16.4104 17.2486 15.403 17.2486 14.1604H14.7486ZM14.9986 10.334C14.8605 10.334 14.7486 10.2221 14.7486 10.084H17.2486C17.2486 8.84134 16.2412 7.83398 14.9986 7.83398V10.334ZM12.2999 7.83398C9.9316 7.83398 8.01172 9.75387 8.01172 12.1222H10.5117C10.5117 11.1346 11.3123 10.334 12.2999 10.334V7.83398Z" fill="#193566" mask="url(#path-2-inside-1_828_1374)"/>
<ellipse cx="11.7874" cy="12.1224" rx="0.842105" ry="0.868053" fill="#193566"/>
<path d="M2.07636 5.01413L10.5938 1.67124L10.2456 0.734625L1.72823 4.07752L2.07636 5.01413ZM11.2068 1.89697L12.8745 5.04087L13.7525 4.55572L12.0848 1.41182L11.2068 1.89697ZM10.5938 1.67124C10.8274 1.57952 11.0896 1.67607 11.2068 1.89697L12.0848 1.41182C11.7333 0.749129 10.9467 0.459489 10.2456 0.734625L10.5938 1.67124Z" fill="#193566"/>
</svg>
