<svg width="19" height="19" viewBox="0 0 19 19" fill="none" xmlns="http://www.w3.org/2000/svg">
<path d="M9.50004 17.4167C5.12779 17.4167 1.58337 13.8723 1.58337 9.50004C1.58337 5.12779 5.12779 1.58337 9.50004 1.58337C13.8723 1.58337 17.4167 5.12779 17.4167 9.50004C17.4119 13.8703 13.8703 17.4119 9.50004 17.4167ZM9.50004 3.16671C6.00224 3.16671 3.16671 6.00224 3.16671 9.50004C3.16671 12.9978 6.00224 15.8334 9.50004 15.8334C12.9978 15.8334 15.8334 12.9978 15.8334 9.50004C15.8294 6.00386 12.9962 3.17063 9.50004 3.16671ZM13.4584 10.2917H8.70837V5.54171H10.2917V8.70837H13.4584V10.2917Z" fill="#1479FF"/>
</svg>
