<svg width="21" height="21" viewBox="0 0 21 21" fill="none" xmlns="http://www.w3.org/2000/svg">
<rect width="21" height="21" fill="white"/>
<path d="M16.625 7V6.25V7ZM16.625 14V14.75V14ZM15.75 13.25C15.3358 13.25 15 13.5858 15 14C15 14.4142 15.3358 14.75 15.75 14.75V13.25ZM1.75 7V6.25C1.33579 6.25 1 6.58579 1 7H1.75ZM1.75 14.875H1H1.75ZM6 0.875C6 0.460786 5.66421 0.125 5.25 0.125C4.83579 0.125 4.5 0.460786 4.5 0.875H6ZM4.5 3.5C4.5 3.91421 4.83579 4.25 5.25 4.25C5.66421 4.25 6 3.91421 6 3.5H4.5ZM9.5 0.875C9.5 0.460786 9.16421 0.125 8.75 0.125C8.33579 0.125 8 0.460786 8 0.875H9.5ZM8 3.5C8 3.91421 8.33579 4.25 8.75 4.25C9.16421 4.25 9.5 3.91421 9.5 3.5H8ZM13 0.875C13 0.460786 12.6642 0.125 12.25 0.125C11.8358 0.125 11.5 0.460786 11.5 0.875H13ZM11.5 3.5C11.5 3.91421 11.8358 4.25 12.25 4.25C12.6642 4.25 13 3.91421 13 3.5H11.5ZM15.75 7.75H16.625V6.25H15.75V7.75ZM16.625 7.75C17.3543 7.75 18.0538 8.03973 18.5695 8.55546L19.6302 7.49479C18.8332 6.69777 17.7522 6.25 16.625 6.25V7.75ZM18.5695 8.55546C19.0853 9.07118 19.375 9.77065 19.375 10.5H20.875C20.875 9.37283 20.4272 8.29182 19.6302 7.49479L18.5695 8.55546ZM19.375 10.5C19.375 11.2293 19.0853 11.9288 18.5695 12.4445L19.6302 13.5052C20.4272 12.7082 20.875 11.6272 20.875 10.5H19.375ZM18.5695 12.4445C18.0538 12.9603 17.3543 13.25 16.625 13.25V14.75C17.7522 14.75 18.8332 14.3022 19.6302 13.5052L18.5695 12.4445ZM16.625 13.25H15.75V14.75H16.625V13.25ZM1.75 7.75H15.75V6.25H1.75V7.75ZM15 7V14.875H16.5V7H15ZM15 14.875C15 15.6043 14.7103 16.3038 14.1945 16.8195L15.2552 17.8802C16.0522 17.0832 16.5 16.0022 16.5 14.875H15ZM14.1945 16.8195C13.6788 17.3353 12.9793 17.625 12.25 17.625V19.125C13.3772 19.125 14.4582 18.6772 15.2552 17.8802L14.1945 16.8195ZM12.25 17.625H5.25V19.125H12.25V17.625ZM5.25 17.625C4.52065 17.625 3.82118 17.3353 3.30546 16.8195L2.2448 17.8802C3.04183 18.6772 4.12283 19.125 5.25 19.125V17.625ZM3.30546 16.8195C2.78973 16.3038 2.5 15.6043 2.5 14.875H1C1 16.0022 1.44777 17.0832 2.2448 17.8802L3.30546 16.8195ZM2.5 14.875V7H1V14.875H2.5ZM4.5 0.875V3.5H6V0.875H4.5ZM8 0.875V3.5H9.5V0.875H8ZM11.5 0.875V3.5H13V0.875H11.5Z" fill="#193566"/>
</svg>
