<svg width="15" height="13" viewBox="0 0 15 13" fill="none" xmlns="http://www.w3.org/2000/svg">
<path d="M1.72926 5.68418C1.35136 5.28142 0.718517 5.26127 0.315759 5.63916C-0.0869977 6.01706 -0.107152 6.6499 0.270744 7.05266L1.72926 5.68418ZM5.81482 11.5L5.08556 12.1842C5.28265 12.3943 5.56075 12.5092 5.84862 12.4994C6.1365 12.4897 6.4062 12.3563 6.58864 12.1334L5.81482 11.5ZM14.7738 2.13339C15.1236 1.70602 15.0608 1.07598 14.6334 0.72617C14.206 0.376357 13.576 0.439232 13.2262 0.866606L14.7738 2.13339ZM0.270744 7.05266L5.08556 12.1842L6.54407 10.8158L1.72926 5.68418L0.270744 7.05266ZM6.58864 12.1334L14.7738 2.13339L13.2262 0.866606L5.04099 10.8666L6.58864 12.1334Z" fill="#1479FF"/>
</svg>
