<svg width="19" height="23" viewBox="0 0 19 23" fill="none" xmlns="http://www.w3.org/2000/svg">
<rect x="0.625" y="4.625" width="16.75" height="17.75" rx="2.375" fill="#EDF9F9" stroke="#1479FF" stroke-width="1.25"/>
<mask id="path-2-inside-1_673_351" fill="white">
<path d="M11 13.5C11 11.567 12.567 10 14.5 10H18C18.5523 10 19 10.4477 19 11V16C19 16.5523 18.5523 17 18 17H14.5C12.567 17 11 15.433 11 13.5Z"/>
</mask>
<path d="M11 13.5C11 11.567 12.567 10 14.5 10H18C18.5523 10 19 10.4477 19 11V16C19 16.5523 18.5523 17 18 17H14.5C12.567 17 11 15.433 11 13.5Z" fill="#EDF9F9"/>
<path d="M14.5 11.25H18V8.75H14.5V11.25ZM17.75 11V16H20.25V11H17.75ZM18 15.75H14.5V18.25H18V15.75ZM14.5 15.75C13.2574 15.75 12.25 14.7426 12.25 13.5H9.75C9.75 16.1234 11.8766 18.25 14.5 18.25V15.75ZM17.75 16C17.75 15.8619 17.8619 15.75 18 15.75V18.25C19.2426 18.25 20.25 17.2426 20.25 16H17.75ZM18 11.25C17.8619 11.25 17.75 11.1381 17.75 11H20.25C20.25 9.75736 19.2426 8.75 18 8.75V11.25ZM14.5 8.75C11.8766 8.75 9.75 10.8766 9.75 13.5H12.25C12.25 12.2574 13.2574 11.25 14.5 11.25V8.75Z" fill="#1479FF" mask="url(#path-2-inside-1_673_351)"/>
<circle cx="14" cy="13.5" r="1" fill="#1479FF"/>
<path d="M2.43518 5.24025L12.7044 1.33026L12.3486 0.395712L2.07936 4.3057L2.43518 5.24025ZM13.3211 1.55766L15.3693 5.30369L16.2467 4.82393L14.1985 1.07791L13.3211 1.55766ZM12.7044 1.33026C12.9379 1.24136 13.2012 1.33846 13.3211 1.55766L14.1985 1.07791C13.8389 0.420286 13.0491 0.129016 12.3486 0.395712L12.7044 1.33026Z" fill="#1479FF"/>
</svg>
