<svg width="170" height="170" viewBox="0 0 170 170" fill="none" xmlns="http://www.w3.org/2000/svg">
<path d="M11.3878 42.5001C3.92752 55.4218 -6.09688e-06 70.0795 -3.82475e-06 85.0001C-1.55261e-06 99.9207 3.92753 114.578 11.3878 127.5C18.8482 140.422 29.5784 151.152 42.5 158.612C55.4216 166.072 70.0794 170 85 170L85 85.0001L11.3878 42.5001Z" fill="#FDB45C"/>
<path d="M85 0.000152588C70.0794 0.00015241 55.4217 3.92768 42.5 11.388C29.5784 18.8483 18.8482 29.5785 11.3879 42.5001L85 85.0001V0.000152588Z" fill="#0B84A5"/>
<path d="M85 0C107.543 2.68827e-07 129.163 8.95532 145.104 24.8959C161.045 40.8365 170 62.4565 170 84.9999C170 107.543 161.045 129.163 145.104 145.104C129.163 161.045 107.543 170 85 170L85 84.9999V0Z" fill="#46BFBD"/>
</svg>
