<svg width="29" height="24" viewBox="0 0 29 24" fill="none" xmlns="http://www.w3.org/2000/svg">
<path d="M20.75 23.25V20.75C20.75 19.4239 20.2232 18.1521 19.2855 17.2145C18.3479 16.2768 17.0761 15.75 15.75 15.75H5.75C4.42392 15.75 3.15215 16.2768 2.21447 17.2145C1.27678 18.1521 0.75 19.4239 0.75 20.75V23.25" fill="white"/>
<path d="M20.75 23.25V20.75C20.75 19.4239 20.2232 18.1521 19.2855 17.2145C18.3479 16.2768 17.0761 15.75 15.75 15.75H5.75C4.42392 15.75 3.15215 16.2768 2.21447 17.2145C1.27678 18.1521 0.75 19.4239 0.75 20.75V23.25" stroke="#97A7C3" stroke-width="1.5" stroke-linecap="round" stroke-linejoin="round"/>
<path d="M10.75 10.75C13.5114 10.75 15.75 8.51142 15.75 5.75C15.75 2.98858 13.5114 0.75 10.75 0.75C7.98858 0.75 5.75 2.98858 5.75 5.75C5.75 8.51142 7.98858 10.75 10.75 10.75Z" fill="white" stroke="#97A7C3" stroke-width="1.5" stroke-linecap="round" stroke-linejoin="round"/>
<path d="M28.25 23.2496V20.7496C28.2492 19.6418 27.8804 18.5656 27.2017 17.69C26.523 16.8144 25.5727 16.1891 24.5 15.9121" fill="white"/>
<path d="M28.25 23.2496V20.7496C28.2492 19.6418 27.8804 18.5656 27.2017 17.69C26.523 16.8144 25.5727 16.1891 24.5 15.9121" stroke="#97A7C3" stroke-width="1.5" stroke-linecap="round" stroke-linejoin="round"/>
<path d="M19.5 0.912109C20.5755 1.18749 21.5288 1.81299 22.2095 2.69C22.8903 3.56701 23.2598 4.64565 23.2598 5.75586C23.2598 6.86607 22.8903 7.94471 22.2095 8.82172C21.5288 9.69873 20.5755 10.3242 19.5 10.5996" fill="white"/>
<path d="M19.5 0.912109C20.5755 1.18749 21.5288 1.81299 22.2095 2.69C22.8903 3.56701 23.2598 4.64565 23.2598 5.75586C23.2598 6.86607 22.8903 7.94471 22.2095 8.82172C21.5288 9.69873 20.5755 10.3242 19.5 10.5996" stroke="#97A7C3" stroke-width="1.5" stroke-linecap="round" stroke-linejoin="round"/>
</svg>
