<svg width="41" height="42" viewBox="0 0 41 42" fill="none" xmlns="http://www.w3.org/2000/svg">
<g clip-path="url(#clip0_1571_3102)">
<path d="M24.1667 29.25V27.4167C24.1667 26.4442 23.7804 25.5116 23.0927 24.8239C22.4051 24.1363 21.4725 23.75 20.5 23.75H14.0834C13.1109 23.75 12.1783 24.1363 11.4906 24.8239C10.803 25.5116 10.4167 26.4442 10.4167 27.4167V29.25M30.5834 20.0833H25.0834M20.9584 16.4167C20.9584 18.4417 19.3167 20.0833 17.2917 20.0833C15.2666 20.0833 13.625 18.4417 13.625 16.4167C13.625 14.3916 15.2666 12.75 17.2917 12.75C19.3167 12.75 20.9584 14.3916 20.9584 16.4167Z" stroke="#6F737D" stroke-width="1.25" stroke-linecap="round" stroke-linejoin="round"/>
</g>
<rect x="0.5" y="1" width="40" height="40" rx="4.5" stroke="#6F737D" stroke-opacity="0.5"/>
<defs>
<clipPath id="clip0_1571_3102">
<rect width="22" height="22" fill="white" transform="translate(9.5 10)"/>
</clipPath>
</defs>
</svg>
