<svg width="250" height="242" viewBox="0 0 250 242" fill="none" xmlns="http://www.w3.org/2000/svg">
<path d="M236.032 36.1792H113.238V209.06H236.032V36.1792Z" fill="#EBEBEB"/>
<path d="M220.088 17.0351C221.334 16.2826 222.676 15.7001 224.077 15.3029L224.899 11.3528L231.574 11.2314L232.534 15.1539C233.951 15.5017 235.315 16.0379 236.589 16.7483L239.96 14.5415L244.765 19.1757L242.674 22.6237C243.426 23.872 244.009 25.2153 244.406 26.6178L248.356 27.4399L248.472 34.1152L244.555 35.0751C244.206 36.4897 243.67 37.8514 242.961 39.1245L245.167 42.5008L240.528 47.3004L237.08 45.2095C235.834 45.9637 234.492 46.5482 233.091 46.9473L232.269 50.8974L225.594 51.0132L224.634 47.0963C223.219 46.7469 221.858 46.2108 220.585 45.5019L217.208 47.7086L212.409 43.069L214.5 39.621C213.742 38.3745 213.157 37.0308 212.762 35.6268L208.812 34.8048L208.696 28.1295L212.613 27.1695C212.964 25.7556 213.5 24.3941 214.207 23.1202L212 19.7494L216.64 14.9443L220.088 17.0351ZM223.646 25.9282C222.659 26.9476 221.995 28.2372 221.741 29.6338C221.486 31.0303 221.652 32.4709 222.217 33.7732C222.782 35.0755 223.721 36.1809 224.914 36.9493C226.108 37.7178 227.502 38.1148 228.922 38.0901C230.341 38.0653 231.721 37.6199 232.887 36.8103C234.053 36.0007 234.953 34.8633 235.472 33.5421C235.991 32.2209 236.106 30.7754 235.803 29.3885C235.5 28.0017 234.793 26.736 233.77 25.7517C232.401 24.4372 230.567 23.7188 228.669 23.754C226.772 23.7891 224.966 24.5749 223.646 25.9393V25.9282Z" fill="#E0E0E0"/>
<path d="M223.646 25.9398C224.022 25.4746 224.474 25.0756 224.981 24.7592C226.362 23.8608 228.012 23.4707 229.649 23.6558C230.78 23.7677 231.869 24.1458 232.826 24.7592C233.926 25.478 234.814 26.478 235.397 27.6555C236.053 28.9785 236.293 30.4689 236.087 31.931C235.883 33.4885 235.182 34.9388 234.089 36.0667C232.996 37.1947 231.569 37.9402 230.018 38.1926C229.289 38.3221 228.544 38.3332 227.811 38.2257C227.11 38.1486 226.425 37.9624 225.781 37.674C224.584 37.1351 223.555 36.2831 222.802 35.208C222.002 34.0693 221.548 32.7237 221.494 31.3331C221.44 29.9424 221.789 28.5658 222.499 27.3686C222.79 26.854 223.162 26.39 223.602 25.9949C223.641 26.028 223.172 26.4639 222.62 27.4459C221.85 28.8423 221.571 30.4563 221.826 32.0303C221.998 33.1075 222.419 34.1295 223.056 35.0149C223.788 36.0257 224.774 36.825 225.914 37.332C227.176 37.8852 228.572 38.0559 229.93 37.823C231.389 37.5733 232.73 36.8644 233.758 35.7998C234.786 34.7351 235.447 33.3701 235.645 31.9035C235.826 30.5387 235.606 29.1508 235.011 27.9093C234.465 26.7916 233.631 25.8395 232.595 25.1509C231.688 24.5498 230.652 24.1717 229.571 24.0475C227.99 23.8474 226.388 24.1835 225.02 25.0019C224.099 25.4929 223.679 25.9784 223.646 25.9398Z" fill="#E0E0E0"/>
<path d="M220.088 17.0364C220.011 17.0047 219.937 16.9659 219.867 16.9206L219.205 16.5399L216.579 15.0118H216.662L212.055 19.8445V19.7121L214.262 23.0774L214.372 23.1049L214.339 23.1711C213.639 24.4356 213.112 25.7883 212.772 27.1929V27.2701H212.695L208.778 28.2411L208.888 28.0977C208.933 30.2014 208.977 32.4265 209.021 34.773L208.855 34.6902L212.805 35.5012H212.91L212.938 35.6005C213.332 36.9868 213.911 38.3135 214.659 39.545L214.714 39.6388L214.659 39.7326L212.574 43.1806L212.546 42.9544L217.351 47.5886H217.114L220.485 45.3818L220.584 45.3156L220.689 45.3763C221.948 46.0733 223.292 46.6019 224.689 46.9486H224.804L224.838 47.0645C225.135 48.2892 225.466 49.6298 225.798 50.9814L225.599 50.8325L232.274 50.7111L232.076 50.8711L232.898 46.921L232.925 46.7997L233.047 46.7666C234.428 46.3739 235.751 45.7987 236.98 45.0563L237.09 44.9957L237.195 45.0563L240.643 47.1527H240.389L245.024 42.3531V42.6069L242.817 39.2306L242.745 39.1313L242.806 39.0209C243.507 37.7657 244.038 36.4225 244.384 35.0268L244.411 34.9054H244.527L248.45 33.951L248.301 34.1441C248.264 31.8638 248.227 29.6387 248.19 27.4687L248.339 27.6508L244.389 26.8233H244.279L244.251 26.7129C243.858 25.3266 243.283 23.9983 242.541 22.7629L242.486 22.6691L242.508 22.5533L244.604 19.1052L244.632 19.3204L239.838 14.6697H240.036L236.655 16.8765L236.583 16.9261L236.506 16.882C235.246 16.1757 233.897 15.6413 232.495 15.2931H232.412V15.2159C232.065 13.787 231.756 12.5071 231.463 11.2934L231.585 11.3872L224.909 11.47L224.998 11.3983C224.656 12.9761 224.38 14.267 224.148 15.3428V15.3814H224.109C223.056 15.6756 222.032 16.069 221.053 16.5565L220.336 16.9316C220.26 16.9784 220.181 17.019 220.099 17.053C220.17 16.9996 220.243 16.9499 220.319 16.904C220.474 16.8102 220.705 16.6668 221.025 16.4958C221.996 15.9796 223.016 15.5637 224.071 15.2545L224.027 15.3042C224.242 14.2008 224.501 12.9319 224.821 11.3486V11.2769H224.893L231.568 11.1279H231.662V11.2217C231.96 12.4354 232.28 13.7153 232.633 15.1387L232.534 15.0394C233.963 15.3861 235.34 15.9223 236.627 16.6337H236.473L239.838 14.427L239.943 14.3608L240.036 14.4435L244.847 19.0721L244.946 19.1659L244.875 19.2818C244.196 20.3851 243.506 21.5547 242.789 22.7353V22.5533C243.552 23.8137 244.144 25.1698 244.549 26.586L244.411 26.4536L248.361 27.2756H248.51V27.4301C248.554 29.5964 248.597 31.8197 248.637 34.1V34.2599L248.488 34.293L244.571 35.2585L244.715 35.115C244.361 36.5466 243.82 37.925 243.104 39.214V39.0044L245.31 42.3807L245.399 42.5131L245.283 42.6289L240.649 47.4341L240.538 47.5499L240.395 47.4672L236.991 45.3929H237.201C235.939 46.1559 234.581 46.746 233.162 47.1472L233.306 46.9928L232.484 50.9428L232.451 51.1028H232.285L225.61 51.2131H225.45L225.411 51.0586C225.08 49.7015 224.755 48.3664 224.457 47.1362L224.6 47.2851C223.169 46.9271 221.791 46.3837 220.501 45.6687H220.705L217.329 47.8754L217.202 47.9582L217.092 47.8534C215.437 46.2369 213.782 44.6647 212.292 43.2082L212.188 43.1034L212.265 42.982L214.361 39.534V39.7216C213.604 38.4583 213.018 37.1004 212.618 35.6833L212.717 35.7936L208.767 34.9661H208.64V34.8392C208.6 32.4964 208.565 30.2713 208.535 28.1639V28.048L208.646 28.0204L212.568 27.0715L212.474 27.1653C212.835 25.7451 213.384 24.3795 214.107 23.1049V23.2263L211.901 19.8445L211.857 19.7728L211.917 19.7176L216.579 14.9125L216.618 14.8738L216.662 14.9014L219.199 16.4848L219.856 16.8985C219.935 16.9404 220.013 16.9865 220.088 17.0364Z" fill="#E0E0E0"/>
<path d="M190.959 3.53599C191.708 3.08709 192.513 2.7384 193.353 2.49883L193.844 0.137637L197.838 0.065918L198.39 2.41057C199.239 2.61802 200.055 2.93905 200.818 3.36497L202.837 2.04094L205.711 4.79935L204.459 6.86264C204.93 7.61068 205.295 8.42007 205.545 9.26797L207.912 9.76448L207.984 13.7587L205.634 14.3103C205.426 15.1587 205.105 15.9752 204.679 16.7377L206.003 18.7569L203.245 21.6312L201.132 20.4009C200.388 20.8544 199.586 21.2069 198.749 21.4491L198.258 23.8158L194.258 23.882L193.706 21.5374C192.86 21.3299 192.045 21.0088 191.285 20.583L189.265 21.907L186.391 19.1486L187.616 17.0356C187.168 16.2878 186.819 15.4847 186.579 14.6469L184.217 14.1559L184.146 10.1562L186.49 9.60449C186.699 8.75834 187.02 7.94386 187.445 7.18261L186.121 5.16346L188.879 2.28368L190.942 3.53599H190.959ZM193.094 8.85972C192.506 9.46986 192.112 10.2406 191.962 11.0745C191.812 11.9085 191.912 12.7682 192.25 13.5452C192.588 14.3221 193.149 14.9814 193.862 15.4397C194.575 15.898 195.407 16.1348 196.255 16.1202C197.102 16.1056 197.926 15.8402 198.622 15.3575C199.319 14.8748 199.856 14.1966 200.168 13.4084C200.479 12.6203 200.549 11.7576 200.371 10.9293C200.192 10.101 199.771 9.34438 199.163 8.7549C198.758 8.36204 198.28 8.053 197.755 7.84554C197.231 7.63809 196.67 7.53631 196.106 7.54605C195.543 7.55579 194.986 7.67686 194.469 7.9023C193.952 8.12774 193.485 8.45312 193.094 8.85972Z" fill="#F5F5F5"/>
<path d="M193.094 8.85958C193.318 8.58359 193.587 8.34681 193.888 8.15894C194.716 7.62167 195.705 7.38774 196.685 7.49692C197.415 7.57589 198.113 7.8384 198.714 8.25996C199.315 8.68152 199.8 9.24842 200.122 9.90777C200.317 10.285 200.449 10.6911 200.514 11.1104C200.586 11.547 200.586 11.9924 200.514 12.429C200.394 13.3593 199.978 14.2264 199.327 14.902C198.677 15.5776 197.826 16.0258 196.901 16.1804C196.462 16.2492 196.015 16.2492 195.577 16.1804C194.977 16.0993 194.402 15.8952 193.885 15.581C193.369 15.2667 192.923 14.8491 192.575 14.3543C192.184 13.7966 191.93 13.1536 191.836 12.4786C191.688 11.5034 191.883 10.5068 192.388 9.65952C192.566 9.35106 192.794 9.07349 193.061 8.83751C193.061 8.83751 192.802 9.11887 192.471 9.70917C192.183 10.2208 192.005 10.787 191.949 11.3714C191.894 11.9557 191.96 12.5453 192.146 13.1022C192.331 13.6592 192.631 14.1712 193.026 14.6053C193.422 15.0395 193.903 15.3862 194.44 15.6232C194.807 15.7897 195.198 15.8976 195.599 15.9432C196.013 16.0055 196.434 15.9962 196.845 15.9156C197.72 15.7695 198.524 15.3465 199.14 14.7088C199.756 14.0712 200.15 13.2527 200.266 12.3738C200.335 11.9611 200.335 11.5397 200.266 11.127C200.203 10.7309 200.082 10.3462 199.907 9.98501C199.578 9.31515 199.077 8.7442 198.456 8.32996C197.921 7.96947 197.309 7.73899 196.669 7.65691C195.714 7.52615 194.742 7.72046 193.91 8.20859C193.364 8.59477 193.111 8.88164 193.094 8.85958Z" fill="#F5F5F5"/>
<path d="M190.959 3.53628L190.827 3.47008L190.435 3.23837L188.879 2.32258H188.923L186.165 5.21339V5.13616L187.495 7.14979V7.18841V7.22703C187.079 7.98674 186.764 8.79711 186.557 9.63788V9.68201H186.513L184.168 10.2668L184.234 10.1785C184.234 11.4364 184.284 12.7714 184.311 14.1727L184.234 14.0789L186.601 14.5699H186.662V14.6306C186.9 15.4598 187.247 16.2538 187.693 16.9918L187.726 17.047L187.693 17.1021L186.446 19.1654V19.033L189.326 21.7914H189.183L191.202 20.4674L191.263 20.4288L191.323 20.4619C192.076 20.8793 192.881 21.1946 193.718 21.3997H193.789V21.4714C193.971 22.2052 194.17 23.0051 194.369 23.8161L194.247 23.7278L198.241 23.6561L198.125 23.7499C198.28 23.0051 198.451 22.1997 198.617 21.3887V21.3115H198.688C199.515 21.0733 200.307 20.7284 201.044 20.2853L201.11 20.2467L201.176 20.2853L203.24 21.5376H203.085C204.023 20.5667 204.95 19.6123 205.844 18.6634V18.8179L204.52 16.7987L204.481 16.7325L204.514 16.6718C204.934 15.9194 205.251 15.1141 205.457 14.2775V14.2058H205.524L207.868 13.6541L207.78 13.77C207.758 12.4092 207.736 11.0778 207.714 9.7758L207.808 9.88613L205.441 9.38962H205.375V9.32342C205.14 8.49291 204.797 7.69708 204.354 6.9567L204.315 6.90154L204.354 6.84637L205.606 4.7886V4.90997C204.597 3.93349 203.642 3.01218 202.738 2.15156H202.853L200.829 3.47008L200.785 3.50318H200.74C200 3.06129 199.204 2.71993 198.374 2.48808H198.324V2.44395C198.12 1.58884 197.932 0.822006 197.772 0.0937859L197.844 0.148953L193.85 0.198605L193.905 0.159987C193.701 1.10336 193.536 1.87572 193.398 2.52118C192.754 2.70211 192.13 2.94411 191.533 3.24389L191.103 3.47008C191.059 3.50135 191.01 3.52556 190.959 3.5418L191.097 3.45353C191.185 3.39836 191.323 3.31009 191.516 3.21079C192.098 2.90064 192.71 2.65107 193.342 2.46602L193.315 2.49912C193.442 1.85365 193.596 1.07578 193.789 0.126887V0.088269H193.833L197.828 0H197.883V0.0606843C198.065 0.783387 198.252 1.55022 198.434 2.40533L198.379 2.34465C199.233 2.55152 200.055 2.87255 200.823 3.29905H200.735L202.787 1.96399L202.853 1.91985L202.909 1.97502L205.788 4.73343L205.844 4.7886L205.805 4.86031L204.553 6.9236V6.81327C205.011 7.56749 205.366 8.38032 205.606 9.22963L205.524 9.1524L207.89 9.64339H207.979V9.73166C208.006 11.0336 208.028 12.3632 208.056 13.7314V13.8196L207.968 13.8472L205.617 14.3989L205.706 14.3106C205.497 15.1684 205.174 15.9941 204.746 16.7656V16.6442L206.097 18.691L206.147 18.7682L206.081 18.8399L203.322 21.7142L203.256 21.7859L203.173 21.7362L201.105 20.4839H201.231C200.477 20.94 199.664 21.2925 198.815 21.5321L198.903 21.4439C198.732 22.2548 198.567 23.0603 198.407 23.8051V23.9044H198.308L194.313 23.9706H194.214V23.8768C194.015 23.0658 193.822 22.2659 193.662 21.5266L193.751 21.6149C192.863 21.4182 192.006 21.1027 191.202 20.677H191.323L189.304 22.0011L189.227 22.0507L189.161 22.0011C188.168 21.0356 187.191 20.0978 186.292 19.2427L186.226 19.182L186.275 19.1103L187.528 17.047V17.1573C187.074 16.4017 186.724 15.5891 186.485 14.7409L186.562 14.8127L184.196 14.2775H184.118V14.2003C184.118 12.799 184.08 11.4419 184.058 10.2061V10.1344H184.124L186.474 9.58271L186.413 9.64339C186.626 8.78877 186.952 7.9667 187.384 7.19944V7.27668L186.071 5.25201L186.044 5.20787L186.077 5.17477C187.213 4.01072 188.151 3.04528 188.868 2.31706H188.896L190.419 3.26595L190.805 3.51421L190.959 3.53628Z" fill="#F5F5F5"/>
<path d="M83.9325 12.3413H11.7119V131.891H83.9325V12.3413Z" fill="#E0E0E0"/>
<path d="M81.5331 12.3413H9.3125V131.891H81.5331V12.3413Z" fill="#EBEBEB"/>
<path d="M78.4602 14.7632H12.3853V129.463H78.4602V14.7632Z" fill="#FAFAFA"/>
<path d="M65.595 29.6689H24.9636V114.562H65.595V29.6689Z" fill="#EBEBEB"/>
<path d="M24.9638 84.5176C24.87 76.5899 32.0033 68.8498 39.8592 67.7409C43.6051 67.1892 47.5828 67.9561 51.0804 66.5217C57.3254 63.9619 59.3115 55.6646 65.6007 53.2041L65.8875 114.562H24.9638V84.5176Z" fill="#E0E0E0"/>
<path d="M183.406 215.431C184.226 214.934 185.11 214.55 186.032 214.289L186.584 211.691L190.97 211.614L191.604 214.19C192.535 214.421 193.431 214.773 194.269 215.238L196.476 213.787L199.631 216.833L198.258 219.1C198.753 219.921 199.137 220.804 199.4 221.726L201.998 222.278L202.075 226.691L199.477 227.293C199.245 228.223 198.893 229.119 198.429 229.957L199.88 232.164L196.834 235.32L194.561 233.946C193.742 234.443 192.858 234.827 191.935 235.088L191.384 237.686L186.998 237.763L186.364 235.182C185.433 234.953 184.537 234.602 183.699 234.139L181.492 235.59L178.337 232.539L179.71 230.272C179.213 229.452 178.829 228.568 178.568 227.646L175.97 227.094L175.893 222.708L178.513 222.096C178.744 221.165 179.096 220.269 179.561 219.431L178.11 217.224L181.156 214.063L183.429 215.442L183.406 215.431ZM185.746 221.279C185.098 221.949 184.663 222.796 184.497 223.714C184.331 224.631 184.44 225.576 184.812 226.431C185.183 227.286 185.8 228.011 186.584 228.516C187.367 229.02 188.283 229.281 189.215 229.264C190.147 229.248 191.053 228.956 191.819 228.425C192.584 227.893 193.175 227.147 193.517 226.28C193.858 225.413 193.935 224.464 193.737 223.553C193.539 222.642 193.075 221.811 192.404 221.163C191.96 220.733 191.435 220.395 190.859 220.168C190.284 219.941 189.669 219.83 189.051 219.841C188.433 219.852 187.822 219.984 187.255 220.231C186.688 220.478 186.175 220.834 185.746 221.279Z" fill="#F5F5F5"/>
<path d="M246.811 241.52C246.811 241.52 247.071 241.52 247.6 241.52H250V241.569C237.587 241.63 187.037 241.68 126.6 241.68L37.073 241.636L9.94682 241.569H2.57084H0.650984H0H0.650984H2.57084L9.94682 241.542L37.073 241.498L126.6 241.454C187.037 241.454 237.587 241.503 250 241.564V241.569H247.6C247.071 241.531 246.811 241.52 246.811 241.52Z" fill="#263238"/>
<path d="M226.173 27.1704H102.524V201.64H226.173V27.1704Z" fill="white"/>
<path d="M226.173 201.64C226.173 200.476 226.118 130.236 226.04 27.1704L226.173 27.2973H102.535L102.679 27.1539C102.679 92.5337 102.679 152.992 102.651 201.623L102.535 201.507L226.184 201.623L102.535 201.739H102.381V201.623C102.381 152.992 102.381 92.5337 102.381 27.1539V27.0215H102.535H226.173H226.305V27.1539C226.228 130.236 226.173 200.476 226.173 201.64Z" fill="#263238"/>
<path d="M159.943 143.007H114.54C112.502 143.007 110.849 144.659 110.849 146.698V151.42C110.849 153.458 112.502 155.111 114.54 155.111H159.943C161.982 155.111 163.634 153.458 163.634 151.42V146.698C163.634 144.659 161.982 143.007 159.943 143.007Z" fill="#F5F5F5"/>
<path d="M215.023 143.007H170.789C168.751 143.007 167.099 144.659 167.099 146.698V151.42C167.099 153.458 168.751 155.111 170.789 155.111H215.023C217.062 155.111 218.714 153.458 218.714 151.42V146.698C218.714 144.659 217.062 143.007 215.023 143.007Z" fill="#F5F5F5"/>
<path d="M215.752 167.81H114.292C112.253 167.81 110.601 169.462 110.601 171.501V176.223C110.601 178.262 112.253 179.914 114.292 179.914H215.752C217.79 179.914 219.442 178.262 219.442 176.223V171.501C219.442 169.462 217.79 167.81 215.752 167.81Z" fill="#F5F5F5"/>
<path d="M135.085 138.136C135.085 138.213 129.987 138.279 123.693 138.279C117.398 138.279 112.3 138.213 112.3 138.136C112.3 138.058 117.398 137.992 123.693 137.992C129.987 137.992 135.085 138.058 135.085 138.136Z" fill="#263238"/>
<path d="M188.995 138.136C188.995 138.213 184.979 138.279 180.025 138.279C175.071 138.279 171.049 138.213 171.049 138.136C171.049 138.058 175.065 137.992 180.025 137.992C184.984 137.992 188.995 138.058 188.995 138.136Z" fill="#263238"/>
<path d="M149.55 162.818C149.55 162.895 141.275 162.962 131.069 162.962C120.863 162.962 112.587 162.895 112.587 162.818C112.587 162.741 120.863 162.675 131.069 162.675C141.275 162.675 149.55 162.741 149.55 162.818Z" fill="#263238"/>
<path d="M215.851 115.527H112.251C110.267 115.527 108.659 117.135 108.659 119.119V125.165C108.659 127.149 110.267 128.757 112.251 128.757H215.851C217.835 128.757 219.443 127.149 219.443 125.165V119.119C219.443 117.135 217.835 115.527 215.851 115.527Z" fill="#E0E0E0"/>
<path d="M187.649 122.143C187.649 122.226 177.818 122.286 165.697 122.286C153.577 122.286 143.74 122.226 143.74 122.143C143.74 122.06 153.571 122 165.697 122C177.823 122 187.649 122.066 187.649 122.143Z" fill="#263238"/>
<path d="M215.851 35.0928H112.251C110.267 35.0928 108.659 36.7007 108.659 38.6842V44.7306C108.659 46.7141 110.267 48.3221 112.251 48.3221H215.851C217.835 48.3221 219.443 46.7141 219.443 44.7306V38.6842C219.443 36.7007 217.835 35.0928 215.851 35.0928Z" fill="#E0E0E0"/>
<path d="M187.649 41.7069C187.649 41.7842 177.818 41.8504 165.697 41.8504C153.577 41.8504 143.74 41.7842 143.74 41.7069C143.74 41.6297 153.571 41.5635 165.697 41.5635C177.823 41.5635 187.649 41.6242 187.649 41.7069Z" fill="#263238"/>
<path d="M226.173 51.5214C226.173 51.6041 198.467 51.6703 164.296 51.6703C130.125 51.6703 102.409 51.6041 102.409 51.5214C102.409 51.4386 130.114 51.3779 164.296 51.3779C198.479 51.3779 226.173 51.4441 226.173 51.5214Z" fill="#EBEBEB"/>
<path d="M226.173 110.05C226.173 110.132 198.467 110.193 164.296 110.193C130.125 110.193 102.409 110.132 102.409 110.05C102.409 109.967 130.114 109.906 164.296 109.906C198.479 109.906 226.173 109.972 226.173 110.05Z" fill="#EBEBEB"/>
<path d="M159.943 64.79H114.54C112.502 64.79 110.849 66.4424 110.849 68.4808V73.2032C110.849 75.2415 112.502 76.8939 114.54 76.8939H159.943C161.982 76.8939 163.634 75.2415 163.634 73.2032V68.4808C163.634 66.4424 161.982 64.79 159.943 64.79Z" fill="#F5F5F5"/>
<path d="M215.023 64.79H170.789C168.751 64.79 167.099 66.4424 167.099 68.4808V73.2032C167.099 75.2415 168.751 76.8939 170.789 76.8939H215.023C217.062 76.8939 218.714 75.2415 218.714 73.2032V68.4808C218.714 66.4424 217.062 64.79 215.023 64.79Z" fill="#F5F5F5"/>
<path d="M215.752 89.5938H114.292C112.253 89.5938 110.601 91.2462 110.601 93.2845V98.0069C110.601 100.045 112.253 101.698 114.292 101.698H215.752C217.79 101.698 219.442 100.045 219.442 98.0069V93.2845C219.442 91.2462 217.79 89.5938 215.752 89.5938Z" fill="#F5F5F5"/>
<path d="M135.085 59.9188C135.085 59.9961 129.987 60.0623 123.693 60.0623C117.398 60.0623 112.3 59.9961 112.3 59.9188C112.3 59.8416 117.398 59.7754 123.693 59.7754C129.987 59.7754 135.085 59.8416 135.085 59.9188Z" fill="#263238"/>
<path d="M188.995 59.9188C188.995 59.9961 184.979 60.0623 180.025 60.0623C175.071 60.0623 171.049 59.9961 171.049 59.9188C171.049 59.8416 175.065 59.7754 180.025 59.7754C184.984 59.7754 188.995 59.8416 188.995 59.9188Z" fill="#263238"/>
<path d="M149.55 84.6005C149.55 84.6777 141.275 84.7439 131.069 84.7439C120.863 84.7439 112.587 84.6777 112.587 84.6005C112.587 84.5232 120.863 84.457 131.069 84.457C141.275 84.457 149.55 84.5232 149.55 84.6005Z" fill="#263238"/>
<path d="M215.625 187.268C215.625 187.351 207.554 187.412 197.596 187.412C187.638 187.412 179.573 187.351 179.573 187.268C179.573 187.186 187.638 187.125 197.596 187.125C207.554 187.125 215.625 187.191 215.625 187.268Z" fill="#263238"/>
<path d="M155.53 72.1101C155.251 72.202 154.965 72.2739 154.675 72.3253C152.509 72.724 150.271 72.4044 148.303 71.415C147.937 71.2251 147.607 70.9731 147.327 70.6702C147.019 70.3445 146.814 69.9361 146.736 69.4952C146.686 69.2601 146.685 69.017 146.733 68.7815C146.781 68.5459 146.878 68.323 147.018 68.127C147.181 67.9243 147.401 67.7744 147.649 67.6959C147.897 67.6174 148.163 67.6138 148.413 67.6856C148.546 67.7241 148.668 67.7896 148.774 67.8779C148.879 67.9662 148.965 68.0755 149.026 68.1987C149.148 68.4486 149.185 68.7314 149.131 69.0042C149.016 69.5391 148.752 70.0306 148.369 70.422C147.617 71.2667 146.67 71.9161 145.611 72.3143C144.471 72.745 143.235 72.8557 142.036 72.6342C141.399 72.5257 140.799 72.2624 140.287 71.8674C140.011 71.6656 139.79 71.3989 139.642 71.091C139.493 70.7831 139.423 70.4434 139.438 70.102C139.473 69.7514 139.605 69.4173 139.818 69.1366C140.027 68.8369 140.336 68.6217 140.69 68.5297C140.877 68.4928 141.07 68.505 141.251 68.5649C141.432 68.6248 141.594 68.7306 141.722 68.8718C141.964 69.1563 142.095 69.5187 142.091 69.8924C142.098 70.2577 142.01 70.6187 141.837 70.9406C141.651 71.2578 141.395 71.5278 141.087 71.7295C140.475 72.0959 139.808 72.3622 139.112 72.5184C137.772 72.899 136.31 73.3128 134.82 72.9763C134.073 72.8144 133.388 72.4431 132.845 71.906C132.563 71.6324 132.341 71.3034 132.193 70.9397C132.045 70.5761 131.974 70.1856 131.984 69.7931C131.99 69.5408 132.046 69.2923 132.15 69.062C132.253 68.8318 132.401 68.6246 132.586 68.4525C132.789 68.292 133.034 68.1923 133.292 68.165C133.549 68.1376 133.81 68.1838 134.042 68.298C134.282 68.4057 134.475 68.5955 134.588 68.8332C134.7 69.0709 134.724 69.3409 134.655 69.5945C134.506 70.0621 134.203 70.465 133.794 70.7364C132.313 71.7521 130.611 72.399 128.829 72.6232C127.961 72.7727 127.07 72.6948 126.241 72.397C125.833 72.2319 125.474 71.9663 125.196 71.6248C124.918 71.2834 124.731 70.8772 124.653 70.4441C124.587 70.0099 124.685 69.5668 124.928 69.2009C125.17 68.8349 125.54 68.5721 125.966 68.4635C126.182 68.4218 126.405 68.4387 126.613 68.5125C126.821 68.5862 127.005 68.714 127.146 68.8828C127.406 69.2097 127.551 69.6128 127.56 70.0303C127.579 70.4338 127.491 70.8353 127.306 71.1943C127.11 71.5325 126.842 71.8242 126.523 72.0495C125.905 72.4534 125.219 72.7413 124.498 72.899C123.146 73.2576 121.74 73.5114 120.46 73.0425C119.856 72.8244 119.325 72.4423 118.926 71.9391C118.54 71.4574 118.344 70.851 118.374 70.2344C118.433 69.6633 118.695 69.1324 119.114 68.7394C119.303 68.5493 119.537 68.4094 119.794 68.3323C120.051 68.2553 120.324 68.2435 120.587 68.298H120.642V68.3532C120.659 69.4359 120.265 70.4848 119.538 71.2881C119.022 71.8926 118.354 72.3479 117.602 72.6066C117.138 72.767 116.646 72.8308 116.157 72.7942C115.826 72.7446 115.66 72.7004 115.66 72.7004C116.303 72.8054 116.962 72.7446 117.574 72.5239C118.302 72.258 118.947 71.8052 119.445 71.2109C120.127 70.422 120.489 69.4066 120.46 68.3642L120.52 68.4359C120.284 68.3923 120.04 68.4072 119.81 68.4793C119.58 68.5514 119.371 68.6786 119.202 68.8497C118.821 69.2163 118.584 69.7078 118.534 70.2344C118.452 71.3378 119.34 72.4411 120.498 72.8384C121.657 73.2356 123.064 73.0314 124.404 72.6673C125.096 72.513 125.754 72.2345 126.346 71.8453C126.634 71.6409 126.874 71.3776 127.052 71.073C127.217 70.753 127.293 70.395 127.273 70.0358C127.266 69.6771 127.142 69.3305 126.92 69.0483C126.808 68.9132 126.662 68.8106 126.497 68.7514C126.332 68.6922 126.154 68.6785 125.982 68.7118C125.622 68.8092 125.311 69.0357 125.107 69.3481C124.904 69.6605 124.822 70.0369 124.879 70.4054C124.952 70.7909 125.122 71.1515 125.372 71.4543C125.621 71.757 125.943 71.992 126.308 72.1377C127.093 72.4165 127.937 72.4868 128.757 72.3418C130.49 72.1217 132.145 71.4899 133.584 70.4992C133.937 70.2662 134.203 69.9228 134.34 69.5227C134.392 69.3322 134.374 69.1292 134.289 68.9509C134.204 68.7726 134.058 68.6309 133.877 68.5518C133.694 68.4645 133.491 68.4291 133.289 68.4495C133.088 68.47 132.896 68.5454 132.735 68.6676C132.579 68.814 132.455 68.99 132.369 69.1852C132.283 69.3803 132.236 69.5908 132.233 69.8041C132.225 70.1561 132.29 70.5059 132.424 70.8315C132.558 71.1572 132.757 71.4516 133.011 71.6964C133.515 72.1942 134.15 72.5385 134.842 72.6894C136.232 73.0094 137.661 72.6232 138.996 72.2425C139.662 72.092 140.3 71.8389 140.889 71.4923C141.161 71.3171 141.39 71.0811 141.556 70.8027C141.705 70.5227 141.781 70.2096 141.777 69.8924C141.782 69.5843 141.677 69.2846 141.479 69.0483C141.384 68.9412 141.263 68.8609 141.127 68.8154C140.992 68.7699 140.847 68.7608 140.706 68.789C140.422 68.8864 140.172 69.0645 139.987 69.3015C139.802 69.5386 139.689 69.8244 139.664 70.1241C139.659 70.4235 139.728 70.7195 139.865 70.986C140.001 71.2525 140.201 71.4813 140.447 71.6522C140.932 72.0237 141.5 72.2718 142.102 72.3749C143.256 72.5877 144.446 72.4829 145.545 72.0715C146.576 71.6965 147.499 71.0731 148.231 70.2565C148.587 69.8979 148.836 69.4469 148.949 68.9545C149.013 68.7349 148.992 68.499 148.89 68.2942C148.788 68.0895 148.611 67.9312 148.397 67.8512C148.186 67.7877 147.96 67.7891 147.75 67.8549C147.54 67.9208 147.354 68.0483 147.216 68.2208C147.092 68.3945 147.005 68.5918 146.96 68.8007C146.916 69.0095 146.915 69.2252 146.957 69.4345C147.047 69.8283 147.226 70.1963 147.48 70.5101C147.735 70.8238 148.058 71.0749 148.425 71.244C149.599 71.8569 150.884 72.2318 152.204 72.3474C153.039 72.4148 153.88 72.3852 154.708 72.2591L155.354 72.1377C155.412 72.125 155.471 72.1158 155.53 72.1101Z" fill="#FF725E"/>
<path d="M209.501 71.4539C209.282 71.592 209.049 71.7066 208.806 71.796C208.115 72.0783 207.378 72.2334 206.632 72.2539C205.445 72.2965 204.269 72.0223 203.223 71.4594C202.552 71.127 201.981 70.6225 201.568 69.9975C201.34 69.6419 201.235 69.2213 201.27 68.8003C201.294 68.5774 201.363 68.3618 201.473 68.1664C201.583 67.9711 201.732 67.8001 201.91 67.6639C202.102 67.5145 202.34 67.4364 202.583 67.4432C202.832 67.4517 203.07 67.5519 203.25 67.7246C203.422 67.9036 203.552 68.1191 203.629 68.355C203.706 68.5909 203.73 68.8411 203.697 69.0872C203.608 69.5852 203.365 70.0426 203.002 70.3947C202.645 70.7547 202.24 71.0646 201.799 71.316C200.878 71.8588 199.847 72.1886 198.782 72.2815C197.642 72.4125 196.489 72.1993 195.472 71.6691C194.939 71.3831 194.496 70.9554 194.192 70.4333C194.04 70.1601 193.941 69.8606 193.899 69.5506C193.869 69.0689 193.993 68.5901 194.254 68.1841C194.515 67.7782 194.899 67.4663 195.35 67.2943C195.514 67.2431 195.686 67.2256 195.857 67.2427C196.028 67.2597 196.193 67.311 196.343 67.3936C196.64 67.5601 196.872 67.8201 197.005 68.1328C197.136 68.4412 197.197 68.7744 197.184 69.109C197.172 69.4435 197.086 69.7713 196.934 70.0692C196.621 70.6514 196.17 71.1478 195.621 71.5146C194.526 72.2721 193.245 72.7148 191.916 72.7946C190.587 72.8743 189.262 72.5881 188.085 71.967C187.504 71.6721 186.978 71.2803 186.529 70.8085C186.056 70.3378 185.78 69.7046 185.757 69.0376C185.763 68.7014 185.867 68.3743 186.055 68.0954C186.243 67.8166 186.507 67.5978 186.816 67.4653C186.978 67.4013 187.154 67.3785 187.327 67.3987C187.5 67.4189 187.666 67.4816 187.809 67.5811C188.081 67.7768 188.276 68.0618 188.361 68.3866C188.438 68.6931 188.445 69.0132 188.381 69.3228C188.317 69.6324 188.184 69.9234 187.991 70.174C187.634 70.6474 187.204 71.0608 186.717 71.3988C185.835 72.0511 184.825 72.5094 183.753 72.7433C182.682 72.9772 181.572 72.9815 180.499 72.7559C179.501 72.5755 178.603 72.0382 177.972 71.2443C177.68 70.8574 177.516 70.3886 177.503 69.9037C177.49 69.4404 177.605 68.9823 177.834 68.5797C177.941 68.3824 178.086 68.2089 178.262 68.0695C178.437 67.9301 178.639 67.8277 178.855 67.7687C179.063 67.7219 179.279 67.7219 179.487 67.7687C179.695 67.8154 179.89 67.9077 180.058 68.039C180.358 68.2767 180.591 68.5883 180.734 68.9433C180.877 69.2983 180.925 69.6844 180.874 70.0637C180.761 70.7158 180.414 71.3042 179.898 71.7187C179.479 72.0674 178.987 72.3164 178.458 72.447C177.734 72.6096 176.989 72.6562 176.251 72.5849L175.699 72.5352C175.635 72.5432 175.57 72.5432 175.506 72.5352C175.571 72.5279 175.635 72.5279 175.699 72.5352H176.279C177.02 72.5829 177.763 72.5196 178.485 72.3477C178.993 72.2097 179.464 71.961 179.865 71.6194C180.339 71.2019 180.643 70.6247 180.72 69.9975C180.761 69.6492 180.713 69.2962 180.58 68.9717C180.447 68.6473 180.233 68.3623 179.958 68.1438C179.81 68.0318 179.639 67.9535 179.457 67.9144C179.275 67.8754 179.086 67.8765 178.905 67.9176C178.716 67.9745 178.54 68.0681 178.388 68.1931C178.235 68.318 178.109 68.4719 178.017 68.6459C177.799 69.0195 177.697 69.4488 177.721 69.8803C177.746 70.3118 177.896 70.7266 178.154 71.0733C178.759 71.8167 179.611 72.3179 180.554 72.4856C181.594 72.7045 182.669 72.7007 183.707 72.4744C184.745 72.2481 185.724 71.8044 186.579 71.1726C187.039 70.8463 187.444 70.4498 187.781 69.9975C187.95 69.78 188.068 69.5269 188.124 69.2573C188.18 68.9877 188.175 68.7087 188.107 68.4417C188.042 68.1803 187.888 67.9499 187.671 67.7908C187.565 67.7159 187.442 67.6686 187.312 67.6532C187.183 67.6378 187.053 67.6547 186.932 67.7025C186.675 67.8159 186.456 68.0003 186.301 68.2338C186.145 68.4674 186.06 68.7405 186.055 69.021C186.082 69.6145 186.333 70.1757 186.755 70.5933C187.185 71.0413 187.686 71.4142 188.239 71.6967C189.373 72.2848 190.644 72.5573 191.919 72.4856C193.194 72.4116 194.424 71.9858 195.472 71.2553C195.989 70.9269 196.417 70.4759 196.719 69.9423C196.852 69.682 196.928 69.3957 196.94 69.1034C196.953 68.811 196.901 68.5194 196.79 68.2487C196.696 67.9887 196.508 67.7736 196.263 67.6459C196.017 67.5182 195.733 67.4872 195.466 67.5591C195.077 67.7127 194.746 67.9851 194.52 68.3377C194.294 68.6902 194.185 69.105 194.208 69.523C194.244 69.7965 194.332 70.0605 194.468 70.3009C194.746 70.7817 195.153 71.1753 195.643 71.4374C196.607 71.9432 197.699 72.1506 198.782 72.0332C199.806 71.9407 200.797 71.6223 201.684 71.1009C202.107 70.8637 202.497 70.5705 202.842 70.2292C203.173 69.9117 203.397 69.4991 203.482 69.0486C203.512 68.8363 203.493 68.62 203.429 68.4157C203.364 68.2114 203.254 68.0242 203.107 67.868C202.964 67.7306 202.776 67.6498 202.578 67.6407C202.381 67.6315 202.186 67.6947 202.031 67.8184C201.879 67.9395 201.751 68.0896 201.657 68.26C201.562 68.4304 201.502 68.6177 201.48 68.8114C201.448 69.198 201.541 69.5844 201.744 69.9147C202.141 70.5129 202.687 70.9977 203.328 71.3215C204.339 71.884 205.481 72.1695 206.638 72.149C207.372 72.1357 208.099 72.0015 208.789 71.7518C209.264 71.5753 209.49 71.4374 209.501 71.4539Z" fill="#FF725E"/>
<path d="M158.211 95.8211C158.145 95.8634 158.075 95.8985 158.001 95.9259L157.367 96.2128C156.815 96.461 155.982 96.8251 154.895 97.2334C153.573 97.7438 152.201 98.1136 150.802 98.3368C149.925 98.465 149.04 98.5185 148.154 98.4967C147.154 98.5159 146.158 98.3667 145.208 98.0554C144.675 97.8742 144.193 97.5677 143.804 97.1616C143.414 96.7555 143.127 96.2617 142.968 95.7218C142.887 95.4284 142.864 95.1218 142.902 94.8197C142.94 94.5176 143.037 94.2261 143.189 93.9619C143.341 93.681 143.559 93.441 143.824 93.2623C144.089 93.0837 144.394 92.9717 144.711 92.9358C145.047 92.93 145.376 93.024 145.658 93.2057C145.94 93.3874 146.162 93.6486 146.295 93.9564C146.596 94.5678 146.646 95.2729 146.433 95.9204C146.202 96.5645 145.804 97.1356 145.28 97.5754C144.755 98.0203 144.172 98.3915 143.547 98.6788C142.259 99.3488 140.769 99.5235 139.36 99.1698C138.631 98.9449 137.976 98.5282 137.464 97.9634C136.951 97.3985 136.6 96.7062 136.447 95.959C136.381 95.5738 136.381 95.1802 136.447 94.795C136.5 94.3904 136.665 94.0084 136.922 93.6916C137.044 93.5196 137.202 93.3759 137.385 93.2702C137.567 93.1646 137.771 93.0994 137.981 93.0792C138.204 93.075 138.423 93.1416 138.607 93.2694C138.79 93.3972 138.928 93.5798 139.002 93.7909C139.107 94.188 139.125 94.6032 139.055 95.008C138.984 95.4128 138.827 95.7975 138.593 96.1356C138.186 96.8291 137.663 97.4484 137.049 97.9671C135.839 99.0024 134.293 99.5603 132.701 99.5359C131.109 99.5115 129.581 98.9066 128.404 97.8347C127.838 97.3086 127.452 96.6176 127.3 95.8597C127.225 95.4774 127.249 95.0821 127.372 94.7122C127.506 94.3494 127.728 94.0254 128.018 93.7688C128.304 93.5065 128.664 93.3389 129.049 93.2889C129.247 93.2605 129.448 93.2759 129.638 93.3341C129.829 93.3922 130.005 93.4917 130.153 93.6254C130.411 93.8954 130.593 94.2295 130.679 94.5931C130.765 94.9568 130.753 95.3369 130.644 95.6942C130.428 96.365 130.033 96.964 129.502 97.4265C129.012 97.8827 128.473 98.2842 127.896 98.6236C126.793 99.2759 125.566 99.6929 124.294 99.8484C123.104 100.005 121.895 99.8978 120.752 99.5339C120.208 99.3517 119.711 99.0522 119.295 98.6567C118.893 98.2739 118.618 97.7772 118.507 97.2334C118.387 96.7146 118.437 96.1712 118.65 95.6832C118.752 95.4479 118.911 95.2421 119.114 95.0849C119.316 94.9277 119.555 94.8242 119.809 94.7839C120.046 94.7478 120.289 94.762 120.521 94.8257C120.753 94.8893 120.969 95.0011 121.155 95.1536C121.33 95.2999 121.462 95.4912 121.537 95.707C121.612 95.9227 121.626 96.1548 121.579 96.3783C121.487 96.7858 121.265 97.1519 120.945 97.421C120.663 97.6675 120.35 97.8753 120.013 98.0389C119.431 98.327 118.823 98.5598 118.198 98.734C117.336 98.9808 116.446 99.1125 115.55 99.1257C115.238 99.1367 114.927 99.1238 114.617 99.087H114.854C115.014 99.087 115.246 99.087 115.55 99.087C116.436 99.0471 117.314 98.8988 118.165 98.6457C118.78 98.461 119.378 98.2228 119.952 97.934C120.276 97.7731 120.577 97.5689 120.846 97.3272C121.127 97.0739 121.32 96.7377 121.397 96.3673C121.437 96.1711 121.422 95.9679 121.355 95.7794C121.288 95.5908 121.171 95.4241 121.017 95.297C120.848 95.1642 120.653 95.0673 120.446 95.0123C120.238 94.9572 120.021 94.9453 119.809 94.977C119.586 95.0149 119.376 95.1087 119.2 95.2495C119.023 95.3904 118.885 95.5738 118.799 95.7825C118.607 96.2315 118.564 96.7307 118.678 97.2058C118.812 97.7164 119.079 98.1825 119.451 98.5572C119.823 98.932 120.287 99.2023 120.796 99.3408C121.906 99.6904 123.08 99.7884 124.233 99.6277C126.127 99.3905 127.898 98.5601 129.292 97.2555C129.791 96.8253 130.161 96.266 130.362 95.639C130.457 95.3289 130.469 94.9992 130.395 94.6833C130.321 94.3674 130.165 94.0766 129.943 93.8406C129.684 93.6431 129.36 93.5495 129.036 93.5781C128.711 93.6067 128.409 93.7554 128.189 93.995C127.941 94.2206 127.752 94.5026 127.637 94.817C127.531 95.1429 127.51 95.4904 127.576 95.8266C127.725 96.5274 128.09 97.164 128.619 97.6472C129.747 98.6709 131.211 99.2476 132.735 99.269C134.258 99.2903 135.737 98.7548 136.894 97.763C137.487 97.2671 137.989 96.6715 138.378 96.0031C138.58 95.6871 138.723 95.3378 138.803 94.9715C138.892 94.6205 138.88 94.2515 138.77 93.9068C138.719 93.7484 138.62 93.61 138.486 93.511C138.353 93.4121 138.191 93.3575 138.025 93.3551C137.856 93.3756 137.693 93.4313 137.546 93.5188C137.4 93.6062 137.274 93.7233 137.175 93.8626C136.968 94.1533 136.825 94.4842 136.753 94.8339C136.682 95.1836 136.685 95.5443 136.762 95.8928C136.906 96.5889 137.233 97.2338 137.711 97.7605C138.188 98.2873 138.797 98.6767 139.476 98.8884C140.819 99.2259 142.24 99.0611 143.47 98.425C144.673 97.8458 145.826 97.0072 146.229 95.8101C146.422 95.2248 146.378 94.5871 146.107 94.0336C145.997 93.7676 145.81 93.5404 145.571 93.3811C145.331 93.2219 145.049 93.1379 144.761 93.1399C144.482 93.1726 144.214 93.2717 143.981 93.4292C143.747 93.5866 143.555 93.7977 143.42 94.0447C143.282 94.2824 143.193 94.5455 143.157 94.8184C143.122 95.0913 143.142 95.3685 143.216 95.6335C143.364 96.1422 143.631 96.6081 143.996 96.9921C144.361 97.3761 144.812 97.667 145.313 97.8402C146.24 98.1521 147.214 98.3051 148.193 98.2926C149.068 98.3212 149.945 98.2751 150.813 98.1547C152.204 97.9516 153.57 97.6059 154.89 97.1231C155.993 96.7314 156.81 96.3838 157.378 96.1576L158.023 95.8928L158.211 95.8211Z" fill="#FF725E"/>
<path d="M210.511 217.202C210.511 217.202 197.822 202.594 193.022 187.963C188.223 173.332 190.512 175.032 190.512 175.032C190.512 175.032 196.978 189.221 201.888 196.078C206.798 202.936 215.542 212.993 215.542 212.993L210.511 217.202Z" fill="#455A64"/>
<path d="M213.06 177.322C212.974 177.173 212.84 177.058 212.679 176.998C212.519 176.937 212.342 176.934 212.179 176.99C212.017 177.045 211.879 177.156 211.789 177.302C211.699 177.448 211.662 177.621 211.686 177.791C212.458 182.927 214.13 194.97 214.069 202.782C213.981 212.927 214.069 216.85 214.069 216.85H219.338C219.338 216.85 218.4 195.886 217.203 189.475C216.386 184.996 214.61 180.014 213.06 177.322Z" fill="#455A64"/>
<path d="M215.945 215.144C218.157 210.128 219.622 204.814 220.292 199.372C220.728 195.631 219.95 190.584 218.797 183.848C218.347 181.385 218.124 178.887 218.129 176.383C218.13 176.103 218.224 175.831 218.397 175.611C218.57 175.391 218.811 175.234 219.083 175.166C219.355 175.099 219.641 175.123 219.897 175.237C220.153 175.35 220.364 175.546 220.496 175.793C221.131 176.929 222.979 180.813 223.448 183.252C224.728 189.905 226.173 193.232 225.07 199.537C223.966 205.843 219.889 215.569 219.889 215.569L215.945 215.144Z" fill="#455A64"/>
<path d="M220.7 215.57C220.7 215.57 234.641 185.619 235.596 181.172C236.55 176.726 239.843 166.492 240.23 167.071C240.616 167.651 241.201 173.057 238.685 179.242C236.169 185.426 225.445 216.486 225.445 216.486H220.684" fill="#455A64"/>
<path d="M214.417 214.228C214.278 214.152 214.147 214.063 214.025 213.964C213.777 213.776 213.401 213.511 212.922 213.136C211.618 212.096 210.368 210.991 209.176 209.826C205.253 205.959 201.853 201.595 199.063 196.845C196.286 192.096 193.974 187.089 192.162 181.894C191.461 179.903 190.954 178.275 190.617 177.144C190.452 176.593 190.33 176.14 190.247 175.837C190.2 175.687 190.165 175.534 190.143 175.379C190.211 175.521 190.267 175.668 190.308 175.82L190.727 177.111C191.097 178.215 191.638 179.87 192.382 181.823C194.247 186.989 196.577 191.974 199.345 196.718C202.124 201.445 205.484 205.806 209.347 209.699C210.842 211.183 212.105 212.308 213.021 213.064C213.462 213.45 213.826 213.726 214.063 213.93C214.188 214.021 214.306 214.121 214.417 214.228Z" fill="#263238"/>
<path d="M215.939 199.863C215.877 199.572 215.837 199.277 215.818 198.98L215.559 196.58C215.338 194.555 215.007 191.758 214.499 188.691C213.992 185.624 213.457 182.854 213.032 180.863L212.524 178.502C212.444 178.217 212.392 177.925 212.37 177.63C212.479 177.904 212.567 178.186 212.635 178.474C212.795 179.026 212.999 179.826 213.236 180.819C213.716 182.805 214.301 185.563 214.797 188.641C215.294 191.72 215.603 194.528 215.768 196.558C215.851 197.579 215.906 198.401 215.934 198.974C215.962 199.27 215.964 199.567 215.939 199.863Z" fill="#263238"/>
<path d="M219.205 175.556C219.274 175.676 219.329 175.804 219.371 175.936C219.476 176.218 219.614 176.587 219.79 177.04C219.967 177.492 220.187 178.115 220.386 178.822C220.585 179.528 220.86 180.317 221.064 181.221L221.412 182.628C221.528 183.119 221.611 183.638 221.715 184.167C221.942 185.232 222.085 186.374 222.267 187.599C222.904 192.873 222.718 198.215 221.715 203.432C221.456 204.624 221.236 205.766 220.932 206.808C220.789 207.333 220.667 207.846 220.518 208.326C220.369 208.806 220.215 209.269 220.071 209.705C219.807 210.593 219.481 211.36 219.222 212.049C218.963 212.739 218.72 213.318 218.499 213.787L218.003 214.891C217.952 215.019 217.887 215.141 217.81 215.255C217.846 215.121 217.892 214.99 217.947 214.863C218.063 214.587 218.207 214.218 218.394 213.76C218.582 213.302 218.83 212.7 219.067 212.011C219.305 211.321 219.619 210.543 219.873 209.661C220.005 209.219 220.149 208.756 220.298 208.281C220.447 207.807 220.557 207.288 220.695 206.764C220.987 205.722 221.197 204.585 221.445 203.399C222.415 198.204 222.601 192.893 221.997 187.643C221.837 186.44 221.704 185.293 221.489 184.234C221.39 183.682 221.313 183.185 221.202 182.694C221.092 182.203 220.982 181.735 220.877 181.288C220.689 180.383 220.436 179.588 220.242 178.888C220.049 178.187 219.862 177.58 219.691 177.089L219.327 175.986C219.27 175.848 219.229 175.703 219.205 175.556Z" fill="#263238"/>
<path d="M240.087 167.673C240.089 167.717 240.089 167.761 240.087 167.805C240.087 167.91 240.048 168.037 240.02 168.197C239.96 168.533 239.882 169.041 239.744 169.687C239.48 170.977 239.027 172.831 238.332 175.076C237.637 177.322 236.677 179.97 235.574 182.866C234.47 185.762 233.141 188.935 231.905 192.289C230.669 195.643 229.698 198.909 228.772 201.899C227.845 204.889 227.012 207.543 226.19 209.75C225.548 211.497 224.811 213.208 223.983 214.875C223.696 215.465 223.431 215.906 223.271 216.215L223.078 216.557C223.057 216.597 223.031 216.634 223.001 216.668L223.051 216.541C223.1 216.447 223.155 216.326 223.222 216.182C223.371 215.873 223.608 215.421 223.878 214.82C224.43 213.633 225.191 211.89 225.986 209.678C226.78 207.466 227.641 204.796 228.501 201.816C229.362 198.837 230.36 195.555 231.618 192.184C232.876 188.813 234.173 185.658 235.314 182.767C236.456 179.876 237.427 177.25 238.145 175.016C238.862 172.781 239.342 170.939 239.645 169.659C239.8 169.024 239.893 168.522 239.976 168.186C240.009 168.031 240.042 167.905 240.064 167.8C240.065 167.757 240.073 167.714 240.087 167.673Z" fill="#263238"/>
<path d="M197.105 161.052C196.912 160.871 196.664 160.758 196.401 160.732C196.137 160.705 195.872 160.767 195.647 160.906C195.422 161.046 195.249 161.256 195.156 161.504C195.062 161.752 195.053 162.023 195.13 162.277C195.605 163.819 196.189 165.325 196.879 166.784C198.793 170.856 204.426 185.464 207.057 193.491C209.689 201.518 213.407 216.485 213.407 216.485L219.034 215.569C219.034 215.569 213.887 190.975 208.856 182.11C204.812 174.993 200.774 164.699 197.105 161.052Z" fill="#455A64"/>
<path d="M208.596 198.506C208.72 198.72 208.818 198.948 208.889 199.185C209.054 199.626 209.28 200.288 209.54 201.072C210.058 202.677 210.687 204.933 211.327 207.41C211.967 209.888 212.497 212.166 212.866 213.81C213.037 214.588 213.175 215.239 213.291 215.757C213.357 215.995 213.395 216.239 213.407 216.486C213.305 216.261 213.227 216.026 213.175 215.785C213.043 215.272 212.866 214.626 212.662 213.86C212.232 212.166 211.664 209.943 211.04 207.482C210.417 205.022 209.799 202.749 209.335 201.132L208.784 199.218C208.699 198.987 208.636 198.749 208.596 198.506Z" fill="#263238"/>
<path d="M216.231 216.028C216.214 215.98 216.202 215.93 216.198 215.879C216.198 215.763 216.165 215.614 216.138 215.432C216.077 215.046 216.027 214.467 215.906 213.733C215.702 212.254 215.354 210.125 214.725 207.526C214.007 204.485 213.129 201.483 212.094 198.534C210.941 195.224 209.49 191.599 207.851 187.876C204.541 180.428 201.231 173.824 199.063 168.936C197.96 166.503 197.116 164.523 196.553 163.127C196.266 162.437 196.062 161.897 195.919 161.527C195.858 161.356 195.808 161.218 195.764 161.108C195.742 161.061 195.728 161.01 195.72 160.959C195.749 161.002 195.773 161.048 195.792 161.097L195.974 161.505C196.139 161.886 196.371 162.415 196.658 163.083C197.254 164.457 198.131 166.426 199.251 168.854C201.457 173.708 204.806 180.295 208.122 187.754C209.777 191.489 211.211 195.097 212.353 198.446C213.375 201.407 214.233 204.422 214.924 207.477C215.396 209.537 215.764 211.619 216.027 213.716C216.127 214.456 216.165 215.035 216.204 215.426C216.204 215.61 216.215 215.759 216.237 215.873C216.242 215.925 216.241 215.977 216.231 216.028Z" fill="#263238"/>
<path d="M219.034 215.569C218.942 215.261 218.878 214.945 218.841 214.626C218.731 213.964 218.582 213.092 218.405 212.039C218.019 209.832 217.423 206.858 216.574 203.587C215.724 200.315 214.781 197.408 214.052 195.312L213.17 192.84C213.047 192.543 212.948 192.237 212.872 191.924C213.034 192.204 213.17 192.498 213.28 192.801C213.523 193.353 213.859 194.203 214.251 195.24C215.268 197.95 216.139 200.712 216.86 203.515C217.588 206.314 218.173 209.148 218.615 212.006C218.775 213.109 218.896 213.992 218.957 214.609C219.004 214.927 219.03 215.248 219.034 215.569Z" fill="#263238"/>
<path d="M230.581 214.764H208.619V241.52H230.581V214.764Z" fill="#FF725E"/>
<g opacity="0.3">
<path d="M230.581 214.763H208.619V241.52H230.581V214.763Z" fill="black"/>
</g>
<path d="M223.575 214.764H204.089V241.52H223.575V214.764Z" fill="#FF725E"/>
<path d="M45.1055 72.8992L44.4821 123.168C44.3773 131.714 45.9662 144.292 59.4879 143.845C71.1946 142.571 74.3005 131.493 74.3833 123.516C74.4274 119.731 74.4715 116.576 74.4991 116.19C74.4991 116.19 87.3092 115.141 88.3905 102.486C88.9146 96.3732 88.9421 83.6901 88.8815 72.2151C88.8332 66.2718 86.549 60.5646 82.4835 56.2291C78.4179 51.8937 72.869 49.2479 66.9411 48.8183L65.7164 48.7245C52.487 48.5369 44.9345 59.6643 45.1055 72.8992Z" fill="#FFBE9D"/>
<path d="M74.5047 116.19C74.5047 116.19 66.4888 116.074 58.3735 110.121C58.3735 110.121 61.7167 119.665 74.4385 119.445L74.5047 116.19Z" fill="#EB996E"/>
<path d="M67.2501 77.4022C67.0019 77.6615 65.5399 76.4809 63.4159 76.4257C61.292 76.3705 59.7142 77.4077 59.4935 77.1374C59.3831 77.016 59.6424 76.5471 60.3376 76.0616C61.2668 75.4384 62.3696 75.1255 63.4877 75.1679C64.5938 75.196 65.6608 75.5833 66.5274 76.2712C67.1674 76.8063 67.377 77.2918 67.2501 77.4022Z" fill="#263238"/>
<path d="M67.1895 81.7869C67.1597 82.2327 66.9577 82.6495 66.6262 82.9491C66.2947 83.2487 65.8597 83.4076 65.4131 83.3923C64.9742 83.3923 64.5532 83.2179 64.2428 82.9076C63.9324 82.5972 63.7581 82.1762 63.7581 81.7373C63.7865 81.2919 63.9873 80.8752 64.3179 80.5754C64.6486 80.2757 65.083 80.1166 65.5289 80.1319C65.7468 80.1311 65.9626 80.1734 66.164 80.2563C66.3654 80.3391 66.5485 80.4609 66.7028 80.6147C66.8571 80.7684 66.9795 80.9511 67.063 81.1523C67.1465 81.3534 67.1895 81.5691 67.1895 81.7869Z" fill="#263238"/>
<path d="M72.5903 92.1478C72.5903 92.0375 73.8151 91.9161 75.7901 91.8113C76.2921 91.8113 76.7721 91.7286 76.8935 91.3976C76.9741 90.8884 76.8971 90.3667 76.6728 89.9025L75.4315 85.9966C73.7764 80.4798 72.6345 75.9229 72.8551 75.8567C73.0758 75.7905 74.5985 80.2315 76.2425 85.787C76.6397 87.1551 77.0148 88.4516 77.3458 89.6984C77.4948 90.2777 77.7706 90.9397 77.4617 91.6679C77.3773 91.8385 77.2548 91.9875 77.1037 92.1033C76.9525 92.219 76.7768 92.2985 76.59 92.3354C76.3103 92.3897 76.0248 92.4082 75.7404 92.3906C73.7875 92.3409 72.5903 92.2637 72.5903 92.1478Z" fill="#263238"/>
<path d="M66.3507 69.4466C66.1466 69.921 64.4474 69.5624 62.4172 69.6672C60.3871 69.772 58.7099 70.2189 58.4782 69.772C58.3734 69.5514 58.6879 69.1211 59.3775 68.7018C60.287 68.1829 61.3099 67.895 62.3566 67.8632C63.3963 67.8083 64.4334 68.0131 65.3743 68.459C66.0914 68.8011 66.439 69.2093 66.3507 69.4466Z" fill="#263238"/>
<path d="M86.4817 73.3578C86.261 73.744 84.606 73.3192 82.6199 73.2585C80.6339 73.1978 78.9512 73.4516 78.7581 73.0489C78.6699 72.8613 79.0009 72.4972 79.696 72.2103C80.6388 71.836 81.651 71.6686 82.664 71.7193C83.6865 71.751 84.6906 71.9992 85.61 72.4475C86.261 72.8061 86.581 73.1758 86.4817 73.3578Z" fill="#263238"/>
<path d="M45.4586 82.3548C45.2489 82.2445 36.9406 79.144 36.5875 87.822C36.2345 96.4999 45.0062 95.0711 45.0448 94.8228C45.0834 94.5746 45.4586 82.3548 45.4586 82.3548Z" fill="#FFBE9D"/>
<path d="M42.5292 91.4251C42.4906 91.3975 42.3692 91.5244 42.1099 91.6292C41.7554 91.7688 41.3611 91.7688 41.0066 91.6292C40.1018 91.2541 39.3901 89.7701 39.4122 88.2033C39.4214 87.4587 39.5967 86.7255 39.9253 86.0573C40.0181 85.7906 40.1747 85.5507 40.3814 85.3584C40.5881 85.1661 40.8387 85.0272 41.1114 84.9539C41.286 84.9139 41.4692 84.9368 41.6286 85.0185C41.7881 85.1003 41.9136 85.2356 41.9831 85.4008C42.0934 85.649 42.0272 85.82 42.0768 85.8366C42.1265 85.8531 42.2699 85.6987 42.2092 85.3401C42.1709 85.1255 42.0599 84.9307 41.8948 84.7884C41.6629 84.5981 41.3663 84.5051 41.0673 84.5291C40.7043 84.5835 40.3615 84.7303 40.0717 84.9554C39.7818 85.1805 39.5548 85.4764 39.4122 85.8145C39.0155 86.5511 38.8017 87.3723 38.7888 88.2088C38.7888 89.9632 39.6053 91.6348 40.8411 92.0706C41.072 92.1463 41.3168 92.1702 41.558 92.1407C41.7992 92.1111 42.031 92.0288 42.2368 91.8996C42.5016 91.6348 42.5568 91.4417 42.5292 91.4251Z" fill="#EB996E"/>
<path d="M70.5162 98.1612C70.61 97.9405 68.9108 97.433 67.7137 95.8331C67.2157 95.1349 66.8114 94.3744 66.511 93.5712C66.2572 92.9368 66.0641 92.5451 65.9593 92.5727C65.8545 92.6002 65.8876 93.025 66.031 93.7146C66.2112 94.6303 66.5876 95.4961 67.1344 96.2524C67.7012 97.0082 68.4645 97.594 69.3411 97.946C70.0417 98.2164 70.4886 98.2329 70.5162 98.1612Z" fill="#263238"/>
<path d="M86.581 78.2015C86.3272 78.4552 84.8653 77.2802 82.7192 77.225C80.5732 77.1698 79.0175 78.207 78.7913 77.9367C78.6809 77.8153 78.9457 77.3464 79.6353 76.8609C80.5646 76.2377 81.6674 75.9248 82.7854 75.9672C83.8933 75.9953 84.962 76.3825 85.8307 77.0705C86.4927 77.6057 86.7024 78.0856 86.581 78.2015Z" fill="#263238"/>
<path d="M86.2332 82.4046C86.2034 82.8504 86.0014 83.2672 85.6699 83.5668C85.3384 83.8664 84.9034 84.0253 84.4568 84.01C84.0179 84.01 83.5969 83.8356 83.2865 83.5252C82.9761 83.2148 82.8018 82.7939 82.8018 82.3549C82.8316 81.9091 83.0336 81.4923 83.3651 81.1928C83.6966 80.8932 84.1316 80.7342 84.5782 80.7495C85.0171 80.7495 85.4381 80.9239 85.7485 81.2343C86.0588 81.5447 86.2332 81.9656 86.2332 82.4046Z" fill="#263238"/>
<path d="M97.7139 55.4111C96.8518 54.0107 95.5147 52.967 93.9468 52.4707C92.3789 51.9744 90.6849 52.0586 89.1739 52.7079C89.5619 50.6993 89.2825 48.6189 88.3782 46.7839C87.474 44.9488 85.9946 43.4598 84.1655 42.5436C82.3364 41.6275 80.2579 41.3346 78.2468 41.7095C76.2357 42.0844 74.4024 43.1066 73.0262 44.6202C72.9167 44.0835 72.6931 43.5766 72.3704 43.1339C72.0477 42.6913 71.6335 42.3233 71.156 42.0549C70.199 41.5215 69.1371 41.2033 68.0445 41.1226C65.4549 40.8353 62.8353 41.2323 60.4471 42.2739C58.059 43.3155 55.9858 44.9653 54.4345 47.0587C51.9112 46.7592 49.3527 47.057 46.9656 47.9281C44.5785 48.7992 42.4296 50.2192 40.6921 52.0734C36.6152 56.5917 35.8429 67.0571 40.3115 76.0992L41.3597 81.7649C42.7609 81.7649 44.0408 81.8643 44.907 82.6366C46.0821 83.6903 46.6062 85.6764 48.5536 84.9261C49.5466 84.5399 50.4514 82.4601 50.7603 81.4505C52.9634 74.7147 53.6934 67.5842 52.9008 60.5418C54.292 59.0598 55.9552 57.8592 57.7998 57.0055L57.6508 57.1434C61.1871 55.9131 65.1868 54.705 68.541 56.3655C71.145 57.6509 72.6786 60.3542 74.6095 62.5057C76.4062 64.4958 78.5872 66.1014 81.021 67.2259C83.4549 68.3504 86.0912 68.9704 88.7712 69.0487C88.9588 72.6125 88.6608 77.6494 88.8484 81.1857L91.8992 75.5144C92.1361 75.1066 92.3515 74.6868 92.5447 74.2566L92.6109 74.1242C93.1626 73.6773 93.5708 72.8608 94.4976 71.8016C95.383 70.7607 95.9658 69.4969 96.1828 68.1477C96.3997 66.7985 96.2423 65.4157 95.7279 64.1497C97.054 63.1751 97.9846 61.7553 98.3493 60.1505C98.714 58.5457 98.4885 56.8632 97.7139 55.4111Z" fill="#263238"/>
<path d="M92.5227 55.5435C92.5227 55.5435 92.5558 55.6041 92.5889 55.731C92.6337 55.9117 92.6596 56.0966 92.6662 56.2827C92.6943 56.9933 92.5202 57.6973 92.1641 58.3129C91.9118 58.7378 91.5825 59.112 91.1932 59.4163C90.7305 59.7704 90.1859 60.0019 89.6098 60.0893C88.9403 60.1947 88.2548 60.1246 87.6204 59.8857C86.9861 59.6469 86.4246 59.2475 85.9908 58.7267L86.206 58.5446C86.415 58.7735 86.5768 59.0414 86.6819 59.333C86.787 59.6246 86.8334 59.9342 86.8183 60.2438C86.8117 60.6578 86.7224 61.0662 86.5557 61.4452C86.3889 61.8242 86.1481 62.166 85.8474 62.4505C85.2766 62.9578 84.5562 63.2657 83.7951 63.3277C82.5296 63.4199 81.2709 63.0731 80.2313 62.3457C79.5384 61.8754 78.8984 61.3316 78.3224 60.7237C78.1016 60.5129 77.8986 60.2841 77.7156 60.0397C77.9583 60.2247 78.187 60.4276 78.3997 60.6465C78.9996 61.2134 79.6495 61.7249 80.3416 62.1747C81.3505 62.8491 82.558 63.1622 83.7675 63.0629C84.4691 62.999 85.132 62.713 85.6598 62.2464C86.1995 61.7243 86.5126 61.011 86.5315 60.2603C86.5518 59.7071 86.3536 59.1681 85.9798 58.7598L86.1949 58.5722C86.597 59.0562 87.1165 59.429 87.7037 59.655C88.2909 59.881 88.9263 59.9527 89.5492 59.8631C90.0521 59.7872 90.5314 59.599 90.9516 59.3125C91.3718 59.0259 91.7221 58.6485 91.9765 58.2081C92.3284 57.6228 92.5188 56.9546 92.5282 56.2717C92.5724 55.8083 92.5006 55.549 92.5227 55.5435Z" fill="#455A64"/>
<path d="M81.6653 46.0332C81.6653 46.0332 81.7315 46.0332 81.8529 46.116C82.0203 46.213 82.1807 46.3218 82.3328 46.4415C82.909 46.8859 83.3611 47.471 83.6458 48.1406C83.8563 48.6465 83.9392 49.1964 83.8873 49.7418C83.8353 50.2873 83.6501 50.8116 83.3479 51.2687C82.9826 51.8273 82.4151 52.2227 81.7646 52.372C81.4182 52.4471 81.0601 52.451 80.7121 52.3837C80.3641 52.3164 80.0334 52.1792 79.7399 51.9803C79.5586 51.8432 79.3971 51.6817 79.26 51.5004L79.5082 51.3569C79.6334 51.6692 79.6922 52.0041 79.6808 52.3404C79.6694 52.6766 79.5881 53.0068 79.442 53.3099C79.1878 53.8748 78.7423 54.332 78.1842 54.6008C77.721 54.816 77.2164 54.9275 76.7057 54.9275C76.1949 54.9275 75.6903 54.816 75.2272 54.6008C74.617 54.3191 74.0736 53.911 73.6328 53.4037C73.461 53.2284 73.3177 53.0274 73.208 52.8079C73.208 52.8079 73.3845 53.0009 73.71 53.3264C74.1656 53.7934 74.7069 54.168 75.3044 54.4298C75.7415 54.6172 76.2134 54.7097 76.6889 54.7012C77.1644 54.6926 77.6327 54.5832 78.0628 54.3801C78.5534 54.1252 78.9426 53.7108 79.1662 53.2051C79.2924 52.9371 79.3625 52.6462 79.372 52.3502C79.3815 52.0541 79.3302 51.7593 79.2213 51.4838L78.7579 50.4191L79.4696 51.3459C79.5862 51.502 79.7257 51.6397 79.8834 51.7541C80.1436 51.9316 80.4372 52.0544 80.7464 52.1151C81.0555 52.1758 81.3738 52.1731 81.6818 52.1072C82.2603 51.9816 82.7682 51.6378 83.0997 51.1473C83.3845 50.726 83.563 50.2419 83.6197 49.7364C83.6763 49.231 83.6096 48.7194 83.4252 48.2454C83.1683 47.5958 82.7597 47.0169 82.2335 46.5573C81.8915 46.1932 81.6487 46.0553 81.6653 46.0332Z" fill="#455A64"/>
<path d="M155.343 109.31L135.289 124.614C135.008 124.83 134.774 125.1 134.602 125.41C134.43 125.719 134.322 126.061 134.287 126.413C134.251 126.765 134.288 127.121 134.395 127.459C134.502 127.796 134.676 128.109 134.908 128.376C135.342 128.878 135.952 129.194 136.613 129.258C137.273 129.323 137.932 129.132 138.456 128.724L158.316 113.277L161.003 107.975L155.343 109.31Z" fill="#FF725E"/>
<path opacity="0.5" d="M158.432 108.577L159.85 110.232L158.316 113.277C158.132 113.297 157.945 113.274 157.771 113.211C157.597 113.147 157.439 113.045 157.31 112.911C157.182 112.778 157.085 112.617 157.028 112.44C156.971 112.264 156.955 112.076 156.981 111.893C156.8 111.918 156.615 111.897 156.443 111.833C156.272 111.769 156.119 111.663 155.999 111.525C155.878 111.388 155.794 111.222 155.754 111.043C155.713 110.865 155.718 110.679 155.767 110.503C155.767 110.503 154.725 110.409 155.315 109.311L158.432 108.577Z" fill="white"/>
<path d="M135.289 124.597L138.577 128.613L139.68 127.758L136.53 123.654L135.289 124.597Z" fill="#263238"/>
<path d="M133.827 162.934L133.104 162.802L147.856 137.016L145.517 129.58C145.517 129.58 142.814 118.993 145.065 116.29C145.065 116.29 149.991 110.486 151.591 110.569C153.191 110.651 154.465 110.966 154.785 112.169C154.785 112.169 157.505 111.849 158.222 112.72C158.702 113.323 159.13 113.965 159.502 114.64C159.502 114.64 162.459 114.397 163.259 116.957C163.259 116.957 166.056 118.397 166.299 120.471C166.542 122.546 165.747 132.222 164.859 134.699C163.971 137.176 160.699 142.373 159.745 150.047C158.791 157.721 155.403 162.703 152.397 173.913L144.237 177.14L133.827 162.934Z" fill="#FFBE9D"/>
<path d="M154.648 112.003C154.708 112.086 153.693 112.759 152.926 114.001C152.159 115.242 151.977 116.433 151.873 116.417C151.883 115.499 152.145 114.601 152.632 113.823C153.119 113.044 153.81 112.415 154.631 112.003H154.648Z" fill="#EB996E"/>
<path d="M159.342 114.64C159.397 114.728 158.426 115.313 157.66 116.428C156.893 117.542 156.65 118.634 156.556 118.634C156.462 118.634 156.556 117.426 157.389 116.251C157.841 115.51 158.529 114.942 159.342 114.64Z" fill="#EB996E"/>
<path d="M163.105 116.891C163.165 116.968 162.431 117.614 161.758 118.585C161.085 119.556 160.721 120.466 160.627 120.433C160.711 119.686 161.008 118.98 161.483 118.397C161.865 117.748 162.428 117.224 163.105 116.891Z" fill="#EB996E"/>
<path d="M149.274 117.729C148.739 117.555 148.182 117.46 147.619 117.448C147.067 117.534 146.532 117.703 146.03 117.95C146.003 117.95 146.108 117.74 146.378 117.541C146.737 117.292 147.157 117.145 147.594 117.116C148.03 117.087 148.466 117.177 148.855 117.376C149.142 117.536 149.274 117.696 149.274 117.729Z" fill="#EB996E"/>
<path d="M155.133 121.409C154.799 120.867 154.388 120.377 153.914 119.952C153.081 119.301 152.176 119.263 152.187 119.163C152.198 119.064 152.413 119.07 152.783 119.114C153.268 119.188 153.727 119.383 154.117 119.681C154.508 119.979 154.817 120.37 155.017 120.818C155.161 121.166 155.172 121.398 155.133 121.409Z" fill="#EB996E"/>
<path d="M160.975 122.656C160.903 122.728 160.258 121.999 159.16 121.713C158.488 121.583 157.801 121.55 157.119 121.613C157.119 121.575 157.312 121.442 157.704 121.348C158.215 121.241 158.744 121.256 159.249 121.392C159.753 121.528 160.218 121.782 160.606 122.132C160.892 122.408 161.003 122.634 160.975 122.656Z" fill="#EB996E"/>
<path d="M12.1315 150.786C12.1315 150.786 3.07843 202.137 3.52529 206.942C3.97215 211.747 6.36645 219.382 11.8005 220.69C15.2519 221.461 18.8311 221.461 22.2825 220.69L15.7671 157.616L12.1315 150.786Z" fill="#FF725E"/>
<path d="M38.6067 124.293C38.6067 124.293 27.7828 132.017 25.3664 134.251C15.3589 143.713 13.268 147.585 12.126 150.802C10.9841 154.018 19.0772 228.33 19.0772 228.33L20.7323 241.322L96.6823 241.515V175.153L85.279 128.442L78.2561 126.445L76.8383 120.879C76.8383 120.879 68.1162 114.435 53.7283 114.258C49.3149 114.198 43.0367 115.941 39.5391 118.672L38.6067 124.293Z" fill="#FF725E"/>
<path d="M76.7611 128.636C76.7611 128.636 84.5674 128.288 85.257 128.443C87.6624 128.995 94.266 135.063 101.807 142.522C108.979 149.638 123.113 164.451 123.113 164.451C123.113 164.451 125.651 161.891 128.547 165.312L139.697 149.092C139.697 149.092 156.446 151.145 159.05 163.784C159.05 163.784 153.919 173.581 149.715 180.582C149.715 180.582 134.164 206.396 121.878 201.717C110.656 197.436 96.583 186.027 94.6025 183.589L78.0521 171.8C78.0521 171.8 66.7316 150.218 71.7353 139.427L76.7611 128.636Z" fill="#FF725E"/>
<path d="M78.234 126.446C78.0988 126.434 77.9655 126.406 77.8368 126.363L76.7334 126.065C75.7569 125.817 74.3336 125.475 72.5572 125.138C67.9234 124.282 63.2421 123.705 58.5389 123.412C53.8385 123.078 49.1197 123.092 44.4214 123.456C42.6174 123.61 41.172 123.836 40.179 124.007L39.037 124.234C38.9062 124.271 38.7705 124.29 38.6343 124.289C38.7583 124.235 38.8878 124.194 39.0205 124.167L40.1514 123.88C41.5536 123.578 42.9719 123.355 44.3994 123.213C49.1083 122.781 53.8446 122.735 58.561 123.075C63.2736 123.366 67.9609 123.978 72.5903 124.907C74.3667 125.276 75.7845 125.651 76.761 125.944L77.8644 126.302C77.9927 126.336 78.1167 126.384 78.234 126.446Z" fill="#263238"/>
<path d="M48.653 122.583C48.5592 122.583 48.3109 121.326 48.1013 119.742C47.8916 118.159 47.7758 116.873 47.8696 116.857C48.159 117.78 48.344 118.733 48.4213 119.698C48.6419 121.303 48.7467 122.572 48.653 122.583Z" fill="#263238"/>
<path d="M51.4885 122.342C50.7343 120.52 50.5948 118.502 51.0912 116.593C51.1905 116.593 51.0416 117.895 51.1519 119.479C51.2623 121.062 51.5822 122.314 51.4885 122.342Z" fill="#263238"/>
<g opacity="0.3">
<path d="M38.855 124.234C50.7382 126.336 62.7869 124.234 75.3653 125.74C63.2283 123.224 50.5727 122.033 38.855 124.234Z" fill="black"/>
</g>
<g opacity="0.3">
<path d="M17.974 220.789C11.2876 205.127 12.082 187.429 13.0089 170.432L17.974 220.789Z" fill="black"/>
</g>
<path d="M12.1315 161.979C12.1496 162.044 12.1607 162.11 12.1646 162.178C12.1646 162.327 12.2088 162.52 12.2364 162.757C12.2915 163.309 12.3743 164.042 12.4736 165.002C12.6667 166.972 12.948 169.785 13.2901 173.277C13.9686 180.24 14.8955 189.867 16.0043 200.486C17.1132 211.106 18.2111 220.711 19.1048 227.651C19.5406 231.121 19.9158 233.929 20.2082 235.866C20.335 236.82 20.4343 237.57 20.5005 238.1C20.5336 238.343 20.5557 238.536 20.5723 238.685C20.5782 238.751 20.5782 238.817 20.5723 238.883C20.5499 238.821 20.5351 238.756 20.5281 238.69L20.4233 238.111C20.3406 237.559 20.2192 236.837 20.0702 235.904C19.7668 233.968 19.3531 231.165 18.8841 227.701C17.9407 220.766 16.7932 211.15 15.6844 200.536C14.5755 189.922 13.6873 180.284 13.0694 173.316C12.7715 169.846 12.5177 167.027 12.3577 165.041C12.286 164.081 12.2253 163.331 12.1867 162.795C12.1867 162.553 12.1867 162.36 12.1481 162.205C12.1333 162.131 12.1277 162.055 12.1315 161.979Z" fill="#263238"/>
<path d="M63.5484 153.578C63.3878 153.603 63.2252 153.612 63.0629 153.605H61.6561C60.4424 153.605 58.677 153.605 56.5034 153.666C52.1506 153.765 46.1428 154.085 39.5502 154.863C32.9576 155.641 27.0381 156.766 22.7846 157.715C20.6551 158.173 18.9228 158.57 17.7588 158.863L16.3906 159.183C16.2334 159.226 16.0728 159.255 15.9106 159.271C16.0601 159.206 16.2152 159.154 16.3741 159.117L17.7257 158.736C18.9008 158.405 20.611 157.975 22.7349 157.484C33.8127 154.937 45.132 153.589 56.4979 153.462C58.7046 153.462 60.4424 153.462 61.6616 153.506L63.0629 153.561C63.2249 153.554 63.3872 153.559 63.5484 153.578Z" fill="#263238"/>
<path d="M34.3865 170.205C34.2928 170.205 34.4693 163.094 34.7727 154.328C35.0761 145.562 35.4071 138.451 35.5009 138.456C35.5947 138.462 35.4182 145.567 35.1092 154.339C34.8003 163.111 34.4748 170.211 34.3865 170.205Z" fill="#263238"/>
<path d="M73.197 169.328C73.0938 169.185 72.9998 169.036 72.9156 168.881C72.7207 168.554 72.4669 168.118 72.1543 167.574L69.3517 162.757C67.9337 160.385 66.7565 157.877 65.8375 155.271C65.3281 153.714 64.977 152.11 64.7893 150.483C64.6291 148.732 64.6291 146.97 64.7893 145.219C65.0223 141.827 65.871 138.505 67.294 135.416C67.9477 134.079 68.7811 132.837 69.771 131.725C70.6417 130.767 71.6405 129.934 72.7391 129.248C74.3212 128.231 76.132 127.624 78.0076 127.483C78.6901 127.426 79.3772 127.465 80.0488 127.599C79.3726 127.563 78.6949 127.563 78.0186 127.599C76.1784 127.784 74.4104 128.413 72.8659 129.43C71.7948 130.117 70.8223 130.947 69.9751 131.896C69.0143 132.996 68.207 134.221 67.5753 135.537C66.1823 138.597 65.3507 141.882 65.1203 145.236C64.9657 146.963 64.9657 148.7 65.1203 150.427C65.303 152.033 65.643 153.616 66.1354 155.155C67.0371 157.749 68.1843 160.25 69.5614 162.625L72.2701 167.491L72.9818 168.831C73.0683 168.99 73.1403 169.156 73.197 169.328Z" fill="#263238"/>
<g opacity="0.3">
<path d="M17.1409 159.21C21.9405 158.961 26.7128 158.332 31.4129 157.328C30.833 159.405 30.5635 161.556 30.613 163.711C32.1034 162.032 33.1886 160.033 33.7852 157.869C33.956 159.047 34.3632 160.178 34.9822 161.194C35.6013 162.21 36.4195 163.091 37.3876 163.783C37.8605 161.648 37.9687 159.449 37.7076 157.279C44.8096 156.425 51.8638 155.258 58.8701 153.776C44.689 153.432 30.5353 155.193 16.8706 159" fill="black"/>
</g>
<path d="M108.45 194.606C108.333 194.556 108.224 194.491 108.124 194.413L107.214 193.806C106.43 193.254 105.305 192.499 103.904 191.522C101.145 189.58 97.3332 186.849 93.1901 183.76C89.047 180.671 85.3452 177.802 82.7082 175.7C81.3841 174.652 80.3139 173.791 79.5801 173.19L78.7416 172.495C78.6387 172.419 78.5444 172.332 78.4602 172.235C78.5729 172.298 78.68 172.37 78.7802 172.45L79.6518 173.101L82.835 175.54C85.5217 177.603 89.2401 180.439 93.3832 183.528C97.5263 186.618 101.278 189.371 104.036 191.368L107.28 193.729L108.157 194.374C108.261 194.444 108.359 194.521 108.45 194.606Z" fill="#263238"/>
<path d="M126.98 177.681C126.931 177.681 126.98 176.842 126.865 175.513C126.615 172.027 125.565 168.646 123.797 165.632C123.119 164.479 122.622 163.811 122.661 163.778C122.81 163.908 122.942 164.056 123.052 164.22C123.38 164.639 123.686 165.076 123.968 165.527C125.859 168.522 126.929 171.962 127.069 175.502C127.098 176.033 127.098 176.565 127.069 177.096C127.065 177.294 127.036 177.491 126.98 177.681Z" fill="#263238"/>
<path d="M130.401 176.428C130.417 175.859 130.463 175.292 130.539 174.728C130.642 173.368 130.616 172.001 130.462 170.646C130.305 169.29 130.019 167.953 129.607 166.652C129.292 165.648 129.055 165.046 129.088 165.024C129.183 165.147 129.26 165.282 129.314 165.427C129.497 165.804 129.659 166.191 129.8 166.586C130.748 169.196 131.069 171.993 130.738 174.751C130.671 175.275 130.6 175.699 130.533 175.986C130.51 176.139 130.466 176.287 130.401 176.428Z" fill="#263238"/>
<path d="M156.308 169.327C156.308 169.327 156.308 169.223 156.181 169.118C156.086 169.058 156.008 168.974 155.955 168.875C155.894 168.759 155.85 168.621 155.773 168.489C155.624 168.207 155.254 167.998 154.99 167.59C154.703 167.137 154.48 166.647 154.328 166.133C153.951 164.822 153.304 163.605 152.43 162.558C151.905 161.95 151.335 161.382 150.725 160.859C150.077 160.287 149.39 159.761 148.667 159.287C147.968 158.777 147.23 158.321 146.461 157.924L144.254 156.854C143.559 156.523 142.908 156.181 142.273 155.91L140.508 155.155C140.246 155.054 139.989 154.938 139.741 154.807C139.504 154.669 139.311 154.515 139.112 154.404L138.56 154.101C138.384 154.007 138.235 153.88 138.103 153.797C137.832 153.626 137.595 153.533 137.441 153.45C137.286 153.367 137.209 153.323 137.214 153.312C137.3 153.331 137.384 153.361 137.463 153.4C137.703 153.484 137.937 153.586 138.163 153.704C138.498 153.914 138.848 154.099 139.211 154.255C139.427 154.36 139.631 154.515 139.851 154.636C140.072 154.757 140.348 154.846 140.613 154.962L142.389 155.679C143.024 155.938 143.686 156.28 144.392 156.606L146.598 157.659C147.378 158.06 148.125 158.521 148.833 159.038C149.568 159.517 150.265 160.052 150.918 160.638C151.537 161.171 152.112 161.752 152.639 162.376C153.525 163.453 154.169 164.708 154.526 166.056C154.665 166.558 154.867 167.04 155.127 167.49C155.359 167.876 155.718 168.103 155.872 168.423C155.955 168.577 155.988 168.72 156.038 168.825C156.082 168.919 156.146 169.001 156.225 169.068C156.363 169.211 156.314 169.338 156.308 169.327Z" fill="#263238"/>
<path d="M85.5328 240.236C85.4556 240.236 85.3894 226.278 85.3894 209.06C85.3894 191.842 85.4556 177.885 85.5328 177.885C85.6101 177.885 85.6763 191.842 85.6763 209.06C85.6763 226.278 85.6156 240.236 85.5328 240.236Z" fill="#263238"/>
</svg>
