<svg width="175" height="175" viewBox="0 0 175 175" fill="none" xmlns="http://www.w3.org/2000/svg">
<path d="M87.5 0C71.363 -1.92431e-07 55.5404 4.46245 41.7814 12.894C28.0224 21.3255 16.863 33.3977 9.53693 47.7758C2.21091 62.154 -0.996357 78.278 0.269733 94.3652C1.53582 110.452 7.22595 125.876 16.711 138.931L87.5 87.5V0Z" fill="#FDB45C"/>
<path d="M87.5 0C102.471 1.7853e-07 117.192 3.84135 130.254 11.1566C143.317 18.4719 154.284 29.0163 162.106 41.7814C169.928 54.5464 174.345 69.1051 174.933 84.0648C175.52 99.0244 172.26 113.885 165.463 127.224C158.666 140.564 148.561 151.936 136.112 160.254C123.664 168.571 109.29 173.556 94.3652 174.73C79.4401 175.905 64.4633 173.23 50.8673 166.963C37.2713 160.695 25.5109 151.043 16.711 138.931L87.5 87.5L87.5 0Z" fill="#46BFBD"/>
</svg>
