<svg width="175" height="175" viewBox="0 0 175 175" fill="none" xmlns="http://www.w3.org/2000/svg">
<path d="M87.5001 0C102.86 1.8316e-07 117.948 4.04305 131.25 11.7228C144.552 19.4025 155.598 30.4483 163.277 43.75C170.957 57.0517 175 72.1405 175 87.5C175 102.859 170.957 117.948 163.277 131.25C155.598 144.552 144.552 155.597 131.25 163.277C117.948 170.957 102.86 175 87.5001 175C72.1406 175 57.0517 170.957 43.7501 163.277C30.4484 155.597 19.4026 144.552 11.7228 131.25L42.0337 113.75C46.6416 121.731 53.269 128.358 61.2501 132.966C69.2311 137.574 78.2844 140 87.5001 140C96.7157 140 105.769 137.574 113.75 132.966C121.731 128.359 128.359 121.731 132.966 113.75C137.574 105.769 140 96.7157 140 87.5C140 78.2843 137.574 69.231 132.966 61.25C128.359 53.269 121.731 46.6415 113.75 42.0337C105.769 37.4258 96.7157 35 87.5001 35L87.5001 0Z" fill="#FDB45C"/>
<path d="M11.7228 131.25C2.09197 114.569 -1.76553 95.1759 0.748635 76.079C3.2628 56.982 12.0081 39.2483 25.6282 25.6282L50.3769 50.3769C42.2049 58.549 36.9577 69.1892 35.4492 80.6474C33.9407 92.1056 36.2552 103.741 42.0337 113.75L11.7228 131.25Z" fill="#6F737D"/>
<path d="M25.6282 25.6282C33.7533 17.503 43.3993 11.0578 54.0153 6.66054C64.6312 2.26325 76.0094 -1.37025e-07 87.5001 0V35C80.6057 35 73.7788 36.3579 67.4092 38.9963C61.0396 41.6347 55.252 45.5018 50.3769 50.3769L25.6282 25.6282Z" fill="#F7464A"/>
</svg>
