<svg width="20" height="20" viewBox="0 0 20 20" fill="none" xmlns="http://www.w3.org/2000/svg">
<path d="M12.2885 6.26636L12.3757 6.44321L12.5709 6.47157L17.4692 7.18346C17.4693 7.18348 17.4695 7.1835 17.4696 7.18352C17.6058 7.20398 17.6944 7.32812 17.6747 7.45582L17.6741 7.45997C17.6667 7.51174 17.6422 7.56008 17.6037 7.59801C17.6036 7.59811 17.6035 7.59821 17.6034 7.59831L14.0592 11.0537L13.9181 11.1913L13.9514 11.3856L14.7889 16.2658L14.7889 16.2661C14.8115 16.3968 14.7237 16.522 14.5911 16.5449L14.5906 16.545C14.5379 16.5542 14.4837 16.5453 14.4393 16.5217L14.4376 16.5208L10.0553 14.2167L9.8808 14.125L9.70629 14.2167L5.32396 16.5208L5.32339 16.5211C5.28347 16.5421 5.23845 16.5516 5.19343 16.5484C5.14841 16.5452 5.10519 16.5294 5.06867 16.5029C5.03215 16.4764 5.0038 16.4402 4.98682 16.3983C4.96984 16.3565 4.96492 16.3108 4.97261 16.2663L4.9727 16.2658L5.81018 11.3856L5.84353 11.1913L5.70237 11.0537L2.15753 7.59763L2.15751 7.59761C2.1113 7.55256 2.08486 7.49102 2.08401 7.42649C2.08315 7.36219 2.10778 7.30017 2.15248 7.25397C2.19038 7.21551 2.23865 7.19114 2.29034 7.18376L2.29124 7.18363L7.19071 6.47157L7.38586 6.44321L7.47309 6.26636L9.66239 1.82797C9.6625 1.82774 9.66262 1.8275 9.66274 1.82727C9.72368 1.70633 9.87033 1.65823 9.98881 1.71672L9.98925 1.71693C10.0365 1.74021 10.0749 1.77853 10.0981 1.82583L10.0983 1.82615L12.2885 6.26636Z" fill="#46BFBD" fill-opacity="0.4" stroke="#46BFBD" stroke-width="0.75"/>
</svg>
