<svg width="17" height="20" viewBox="0 0 17 20" fill="none" xmlns="http://www.w3.org/2000/svg">
<path d="M15.5 17.1004C15.8314 17.1004 16.1 16.8318 16.1 16.5004C16.1 16.169 15.8314 15.9004 15.5 15.9004V17.1004ZM1.50002 16.5004L1.10954 16.0449C0.97656 16.1588 0.900024 16.3253 0.900024 16.5004C0.900024 16.6756 0.97656 16.842 1.10954 16.956L1.50002 16.5004ZM4.02616 19.456C4.27776 19.6716 4.65654 19.6425 4.87219 19.3909C5.08785 19.1393 5.05871 18.7605 4.80712 18.5449L4.02616 19.456ZM4.80712 14.456C5.05871 14.2403 5.08785 13.8615 4.87219 13.6099C4.65654 13.3583 4.27776 13.3292 4.02616 13.5449L4.80712 14.456ZM15.5 15.9004H1.50002V17.1004H15.5V15.9004ZM4.80712 18.5449L1.8905 16.0449L1.10954 16.956L4.02616 19.456L4.80712 18.5449ZM1.8905 16.956L4.80712 14.456L4.02616 13.5449L1.10954 16.0449L1.8905 16.956Z" fill="#193566"/>
<path d="M15.5425 3.86914L15.1606 5.18066H7.45752L7.83935 3.86914H15.5425ZM12.0894 13L7.69824 7.87012L7.68994 6.84082H9.71533C10.3019 6.84082 10.7861 6.74398 11.168 6.55029C11.5553 6.35107 11.8459 6.08268 12.0395 5.74512C12.2332 5.40755 12.3301 5.02848 12.3301 4.60791C12.3301 4.13753 12.2388 3.72526 12.0561 3.37109C11.8735 3.01139 11.5858 2.73193 11.1929 2.53271C10.8055 2.32796 10.2964 2.22559 9.66553 2.22559H7.47412L7.86426 0.914062H9.66553C10.6284 0.914062 11.4225 1.06071 12.0478 1.354C12.6787 1.64176 13.1491 2.06234 13.459 2.61572C13.7689 3.16911 13.9238 3.8387 13.9238 4.62451C13.9238 5.29964 13.7938 5.9056 13.5337 6.44238C13.2791 6.97363 12.8558 7.39144 12.2637 7.6958C11.6771 8.00016 10.8857 8.15234 9.88965 8.15234L13.9736 12.9004V13H12.0894ZM15.5425 0.914062L15.1606 2.22559H8.95166L9.3335 0.914062H15.5425Z" fill="#193566"/>
</svg>
