<svg width="67" height="67" viewBox="0 0 67 67" fill="none" xmlns="http://www.w3.org/2000/svg">
<path d="M0 4C0 1.79086 1.79086 0 4 0H67V67H4C1.79086 67 0 65.2091 0 63V4Z" fill="#FDF0F0"/>
<path d="M39.75 29.3333H40.7916C41.8967 29.3333 42.9565 29.7723 43.7379 30.5537C44.5193 31.3351 44.9583 32.3949 44.9583 33.5C44.9583 34.605 44.5193 35.6648 43.7379 36.4462C42.9565 37.2276 41.8967 37.6666 40.7916 37.6666H39.75M39.75 29.3333H23.0833V38.7083C23.0833 39.8134 23.5223 40.8732 24.3037 41.6546C25.0851 42.436 26.1449 42.875 27.25 42.875H35.5833C36.6884 42.875 37.7482 42.436 38.5296 41.6546C39.311 40.8732 39.75 39.8134 39.75 38.7083V29.3333ZM27.25 22.0416V25.1666M31.4166 22.0416V25.1666M35.5833 22.0416V25.1666" stroke="#E66666" stroke-width="1.75" stroke-linecap="round" stroke-linejoin="round"/>
</svg>
