<svg width="67" height="67" viewBox="0 0 67 67" fill="none" xmlns="http://www.w3.org/2000/svg">
<path d="M0 4C0 1.79086 1.79086 0 4 0H67V67H4C1.79086 67 0 65.2091 0 63V4Z" fill="#FDF0F0"/>
<path d="M38.7084 42.875V40.7917C38.7084 39.6866 38.2694 38.6268 37.488 37.8454C36.7066 37.064 35.6468 36.625 34.5417 36.625H26.2084C25.1033 36.625 24.0435 37.064 23.2621 37.8454C22.4807 38.6268 22.0417 39.6866 22.0417 40.7917V42.875" stroke="#E66666" stroke-width="1.75" stroke-linecap="round" stroke-linejoin="round"/>
<path d="M30.375 32.4583C32.6762 32.4583 34.5417 30.5929 34.5417 28.2917C34.5417 25.9905 32.6762 24.125 30.375 24.125C28.0739 24.125 26.2084 25.9905 26.2084 28.2917C26.2084 30.5929 28.0739 32.4583 30.375 32.4583Z" stroke="#E66666" stroke-width="1.75" stroke-linecap="round" stroke-linejoin="round"/>
<path d="M44.9584 42.875V40.7916C44.9577 39.8684 44.6504 38.9716 44.0848 38.242C43.5192 37.5123 42.7273 36.9912 41.8334 36.7604" stroke="#E66666" stroke-width="1.75" stroke-linecap="round" stroke-linejoin="round"/>
<path d="M37.6667 24.2604C38.563 24.4899 39.3574 25.0111 39.9246 25.7419C40.4919 26.4728 40.7999 27.3717 40.7999 28.2968C40.7999 29.222 40.4919 30.1209 39.9246 30.8517C39.3574 31.5826 38.563 32.1038 37.6667 32.3333" stroke="#E66666" stroke-width="1.75" stroke-linecap="round" stroke-linejoin="round"/>
</svg>
