<svg width="7" height="12" viewBox="0 0 7 12" fill="none" xmlns="http://www.w3.org/2000/svg">
<path d="M1.47478 0.166273C1.59928 0.165849 1.72229 0.193326 1.83477 0.246683C1.94725 0.30004 2.04635 0.377923 2.12478 0.474606L6.14978 5.47461C6.27235 5.62372 6.33936 5.81075 6.33936 6.00377C6.33936 6.19679 6.27235 6.38383 6.14978 6.53294L1.98311 11.5329C1.84166 11.7031 1.63841 11.8101 1.41805 11.8305C1.19769 11.8508 0.978294 11.7827 0.808113 11.6413C0.637933 11.4998 0.530913 11.2966 0.510596 11.0762C0.49028 10.8559 0.558331 10.6365 0.69978 10.4663L4.42478 5.99961L0.824781 1.53294C0.722878 1.41062 0.658148 1.26167 0.638248 1.10371C0.618349 0.945754 0.644113 0.7854 0.712492 0.641627C0.780872 0.497854 0.889006 0.376677 1.0241 0.292435C1.15919 0.208193 1.31559 0.164413 1.47478 0.166273Z" fill="#1479FF"/>
</svg>
