<svg width="22" height="24" viewBox="0 0 22 24" fill="none" xmlns="http://www.w3.org/2000/svg">
<path d="M20.375 16.1666V7.83331C20.3746 7.46797 20.2782 7.10916 20.0954 6.79286C19.9125 6.47656 19.6497 6.2139 19.3333 6.03123L12.0417 1.86456C11.725 1.68171 11.3657 1.58545 11 1.58545C10.6343 1.58545 10.275 1.68171 9.95833 1.86456L2.66667 6.03123C2.35027 6.2139 2.08748 6.47656 1.90465 6.79286C1.72182 7.10916 1.62537 7.46797 1.625 7.83331V16.1666C1.62537 16.532 1.72182 16.8908 1.90465 17.2071C2.08748 17.5234 2.35027 17.7861 2.66667 17.9687L9.95833 22.1354C10.275 22.3182 10.6343 22.4145 11 22.4145C11.3657 22.4145 11.725 22.3182 12.0417 22.1354L19.3333 17.9687C19.6497 17.7861 19.9125 17.5234 20.0954 17.2071C20.2782 16.8908 20.3746 16.532 20.375 16.1666Z" stroke="#FDB45C" stroke-width="1.75" stroke-linecap="round" stroke-linejoin="round"/>
<path d="M1.90625 6.75L11 12.0104L20.0937 6.75" stroke="#FDB45C" stroke-width="1.75" stroke-linecap="round" stroke-linejoin="round"/>
<path d="M11 22.5V12" stroke="#FDB45C" stroke-width="1.75" stroke-linecap="round" stroke-linejoin="round"/>
</svg>
