<svg width="58" height="58" viewBox="0 0 58 58" fill="none" xmlns="http://www.w3.org/2000/svg">
<rect opacity="0.1" width="58" height="58" rx="3" fill="#46BFBD"/>
<path d="M33.9937 22.7207L33.522 24.3408H24.0063L24.478 22.7207H33.9937ZM29.728 34L24.3037 27.6631L24.2935 26.3916H26.7954C27.52 26.3916 28.1182 26.272 28.5898 26.0327C29.0684 25.7866 29.4272 25.4551 29.6665 25.0381C29.9058 24.6211 30.0254 24.1528 30.0254 23.6333C30.0254 23.0522 29.9126 22.543 29.687 22.1055C29.4614 21.6611 29.106 21.3159 28.6206 21.0698C28.1421 20.8169 27.5132 20.6904 26.7339 20.6904H24.0269L24.5088 19.0703H26.7339C27.9233 19.0703 28.9043 19.2515 29.6768 19.6138C30.4561 19.9692 31.0371 20.4888 31.4199 21.1724C31.8027 21.856 31.9941 22.6831 31.9941 23.6538C31.9941 24.4878 31.8335 25.2363 31.5122 25.8994C31.1978 26.5557 30.6748 27.0718 29.9434 27.4478C29.2188 27.8237 28.2412 28.0117 27.0107 28.0117L32.0557 33.877V34H29.728ZM33.9937 19.0703L33.522 20.6904H25.8521L26.3237 19.0703H33.9937Z" fill="#46BFBD"/>
<path d="M21 40.5H37M37 40.5L33.6667 37M37 40.5L33.6667 44" stroke="#46BFBD" stroke-width="1.2" stroke-linecap="round" stroke-linejoin="round"/>
</svg>
