<svg width="58" height="58" viewBox="0 0 58 58" fill="none" xmlns="http://www.w3.org/2000/svg">
<rect width="58" height="58" rx="3" fill="#FDF0F0"/>
<path d="M33.9937 21.7207L33.522 23.3408H24.0063L24.478 21.7207H33.9937ZM29.728 33L24.3037 26.6631L24.2935 25.3916H26.7954C27.52 25.3916 28.1182 25.272 28.5898 25.0327C29.0684 24.7866 29.4272 24.4551 29.6665 24.0381C29.9058 23.6211 30.0254 23.1528 30.0254 22.6333C30.0254 22.0522 29.9126 21.543 29.687 21.1055C29.4614 20.6611 29.106 20.3159 28.6206 20.0698C28.1421 19.8169 27.5132 19.6904 26.7339 19.6904H24.0269L24.5088 18.0703H26.7339C27.9233 18.0703 28.9043 18.2515 29.6768 18.6138C30.4561 18.9692 31.0371 19.4888 31.4199 20.1724C31.8027 20.856 31.9941 21.6831 31.9941 22.6538C31.9941 23.4878 31.8335 24.2363 31.5122 24.8994C31.1978 25.5557 30.6748 26.0718 29.9434 26.4478C29.2188 26.8237 28.2412 27.0117 27.0107 27.0117L32.0557 32.877V33H29.728ZM33.9937 18.0703L33.522 19.6904H25.8521L26.3237 18.0703H33.9937Z" fill="#E66666"/>
<path d="M37 39.5H21M21 39.5L24.3333 43M21 39.5L24.3333 36" stroke="#E66666" stroke-width="1.2" stroke-linecap="round" stroke-linejoin="round"/>
</svg>
