<svg width="13" height="17" viewBox="0 0 13 17" fill="none" xmlns="http://www.w3.org/2000/svg">
<path d="M11.52 2.70361H9.07178C9.45361 3.26514 9.70068 3.92399 9.81299 4.68018H12.0815L11.52 6.72412H9.82422C9.65951 7.95947 9.16536 8.90658 8.3418 9.56543C7.51823 10.2168 6.354 10.6061 4.84912 10.7334L10.0825 16.854V17H6.85938L1.14307 10.3403L1.13184 8.62207H3.97314C4.81169 8.62207 5.47428 8.44987 5.96094 8.10547C6.45508 7.75358 6.78451 7.29313 6.94922 6.72412H0.907227L1.47998 4.68018H6.9043C6.53743 3.51969 5.54541 2.93945 3.92822 2.93945H0.907227L1.51367 0.648438H12.0928L11.52 2.70361Z" fill="#46BFBD"/>
</svg>
