<svg width="10" height="14" viewBox="0 0 10 14" fill="none" xmlns="http://www.w3.org/2000/svg">
<path d="M0.939453 5.52734L1.64258 4.29688H6.31836C6.24219 3.99219 6.12207 3.70801 5.95801 3.44434C5.79395 3.18066 5.58887 2.95215 5.34277 2.75879C5.10254 2.56543 4.82715 2.41602 4.5166 2.31055C4.21191 2.19922 3.87793 2.14355 3.51465 2.14355H0.939453L1.64258 0.913086H9.75488L9.05176 2.14355H6.78418C6.9248 2.26074 7.05664 2.4043 7.17969 2.57422C7.30273 2.74414 7.41406 2.92871 7.51367 3.12793C7.61914 3.32129 7.7041 3.52051 7.76855 3.72559C7.83887 3.9248 7.88574 4.11523 7.90918 4.29688H9.75488L9.05176 5.52734H7.90039C7.83008 5.9668 7.67773 6.38574 7.44336 6.78418C7.21484 7.17676 6.9043 7.52246 6.51172 7.82129C6.125 8.12012 5.65918 8.35742 5.11426 8.5332C4.5752 8.70898 3.95703 8.79688 3.25977 8.79688L7.96191 14H5.89648L1.29102 8.79688V7.61035H3.10156C3.51758 7.61035 3.9043 7.56934 4.26172 7.4873C4.61914 7.40527 4.93555 7.2793 5.21094 7.10938C5.49219 6.93945 5.72656 6.72559 5.91406 6.46777C6.10742 6.2041 6.24512 5.89062 6.32715 5.52734H0.939453Z" fill="#1479FF"/>
</svg>
