<svg width="33" height="34" viewBox="0 0 33 34" fill="none" xmlns="http://www.w3.org/2000/svg">
<rect y="0.5" width="33" height="33" rx="5" fill="#F3F8FF"/>
<path d="M13.75 22.5C13.75 20.9812 12.5188 19.75 11 19.75C9.48122 19.75 8.25 20.9812 8.25 22.5C8.25 24.0188 9.48122 25.25 11 25.25C12.5188 25.25 13.75 24.0188 13.75 22.5Z" stroke="#1479FF" stroke-width="1.5" stroke-linecap="round" stroke-linejoin="round"/>
<path d="M24.75 22.5C24.75 20.9812 23.5188 19.75 22 19.75C20.4812 19.75 19.25 20.9812 19.25 22.5C19.25 24.0188 20.4812 25.25 22 25.25C23.5188 25.25 24.75 24.0188 24.75 22.5Z" stroke="#1479FF" stroke-width="1.5" stroke-linecap="round" stroke-linejoin="round"/>
<path d="M9.1665 9.66667L20.0565 20.5567" stroke="#1479FF" stroke-width="1.5" stroke-linecap="round" stroke-linejoin="round"/>
<path d="M18.7734 14.7358L23.8334 9.66667" stroke="#1479FF" stroke-width="1.5" stroke-linecap="round" stroke-linejoin="round"/>
<path d="M12.9434 20.5567L16.5 17" stroke="#1479FF" stroke-width="1.5" stroke-linecap="round" stroke-linejoin="round"/>
</svg>
