<svg width="21" height="20" viewBox="0 0 21 20" fill="none" xmlns="http://www.w3.org/2000/svg">
<path d="M7.625 15.25C7.625 13.6622 6.33782 12.375 4.75 12.375C3.16218 12.375 1.875 13.6622 1.875 15.25C1.875 16.8378 3.16218 18.125 4.75 18.125C6.33782 18.125 7.625 16.8378 7.625 15.25Z" stroke="#46BFBD" stroke-width="2" stroke-linecap="round" stroke-linejoin="round"/>
<path d="M19.125 15.25C19.125 13.6622 17.8378 12.375 16.25 12.375C14.6622 12.375 13.375 13.6622 13.375 15.25C13.375 16.8378 14.6622 18.125 16.25 18.125C17.8378 18.125 19.125 16.8378 19.125 15.25Z" stroke="#46BFBD" stroke-width="2" stroke-linecap="round" stroke-linejoin="round"/>
<path d="M2.83325 1.83338L14.2183 13.2184" stroke="#46BFBD" stroke-width="2" stroke-linecap="round" stroke-linejoin="round"/>
<path d="M12.8767 7.13293L18.1667 1.83335" stroke="#46BFBD" stroke-width="2" stroke-linecap="round" stroke-linejoin="round"/>
<path d="M6.78174 13.2184L10.5001 9.50005" stroke="#46BFBD" stroke-width="2" stroke-linecap="round" stroke-linejoin="round"/>
</svg>
