<svg width="16" height="16" viewBox="0 0 16 16" fill="none" xmlns="http://www.w3.org/2000/svg">
<path d="M11.443 7.25C11.7506 7.25 12.0029 6.99998 11.9719 6.69392C11.9139 6.1226 11.7669 5.56384 11.5356 5.04037C11.2296 4.34803 10.7836 3.73405 10.2286 3.24122C9.67355 2.74839 9.02285 2.38855 8.32182 2.18678C7.80593 2.03829 7.27191 1.97804 6.74016 2.00709C6.42172 2.02449 6.21003 2.32556 6.26055 2.64045C6.31222 2.96255 6.61853 3.17503 6.9447 3.17015C7.30928 3.16471 7.67377 3.21315 8.02731 3.3149C8.57214 3.47172 9.07786 3.75138 9.50923 4.13441C9.9406 4.51743 10.2872 4.99461 10.525 5.53269C10.6881 5.9018 10.7973 6.29348 10.8498 6.69455C10.8897 6.99958 11.1353 7.25 11.443 7.25Z" fill="#97A7C3"/>
<path d="M12.6266 11.5128L16 14.8855L14.8855 16L11.5128 12.6266C10.2579 13.6325 8.69706 14.1797 7.08871 14.1774C3.17574 14.1774 0 11.0017 0 7.08871C0 3.17574 3.17574 0 7.08871 0C11.0017 0 14.1774 3.17574 14.1774 7.08871C14.1797 8.69706 13.6325 10.2579 12.6266 11.5128ZM11.0466 10.9284C12.0462 9.90047 12.6044 8.52254 12.6021 7.08871C12.6021 4.04214 10.1345 1.57527 7.08871 1.57527C4.04214 1.57527 1.57527 4.04214 1.57527 7.08871C1.57527 10.1345 4.04214 12.6021 7.08871 12.6021C8.52254 12.6044 9.90047 12.0462 10.9284 11.0466L11.0466 10.9284Z" fill="#97A7C3"/>
</svg>
