<svg width="12" height="12" viewBox="0 0 12 12" fill="none" xmlns="http://www.w3.org/2000/svg">
<path d="M8.58224 5.4375C8.81296 5.4375 9.00219 5.24999 8.97891 5.02044C8.93544 4.59195 8.82517 4.17288 8.65168 3.78028C8.42223 3.26102 8.08772 2.80054 7.67144 2.43092C7.25516 2.06129 6.76714 1.79141 6.24137 1.64009C5.85445 1.52872 5.45393 1.48353 5.05512 1.50532C4.81629 1.51837 4.65752 1.74417 4.69541 1.98034V1.98034C4.73416 2.22191 4.96389 2.38127 5.20853 2.37762C5.48196 2.37353 5.75533 2.40986 6.02048 2.48618C6.42911 2.60379 6.8084 2.81354 7.13192 3.10081C7.45545 3.38808 7.71543 3.74596 7.89376 4.14952C8.01609 4.42635 8.09797 4.72011 8.13734 5.02091C8.16728 5.24968 8.35151 5.4375 8.58224 5.4375V5.4375Z" fill="#97A7C3"/>
<path d="M9.46992 8.63464L12 11.1641L11.1641 12L8.63464 9.46992C7.69346 10.2244 6.52279 10.6348 5.31653 10.6331C2.38181 10.6331 0 8.25126 0 5.31653C0 2.38181 2.38181 0 5.31653 0C8.25126 0 10.6331 2.38181 10.6331 5.31653C10.6348 6.52279 10.2244 7.69346 9.46992 8.63464ZM8.28493 8.19632C9.03462 7.42535 9.4533 6.39191 9.45161 5.31653C9.45161 3.0316 7.60087 1.18145 5.31653 1.18145C3.0316 1.18145 1.18145 3.0316 1.18145 5.31653C1.18145 7.60087 3.0316 9.45161 5.31653 9.45161C6.39191 9.4533 7.42535 9.03462 8.19632 8.28493L8.28493 8.19632V8.19632Z" fill="#97A7C3"/>
</svg>
