<svg width="26" height="26" viewBox="0 0 26 26" fill="none" xmlns="http://www.w3.org/2000/svg">
<path d="M17.1332 7.04164V7.24164H17.3332H20.5832C21.3921 7.24164 22.1679 7.56298 22.7399 8.13496C23.3118 8.70695 23.6332 9.48273 23.6332 10.2916V20.0416C23.6332 20.8505 23.3118 21.6263 22.7399 22.1983C22.1679 22.7703 21.3921 23.0916 20.5832 23.0916H5.41651C4.60759 23.0916 3.83181 22.7703 3.25983 22.1983C2.68784 21.6263 2.3665 20.8505 2.3665 20.0416V10.2916C2.3665 9.48273 2.68784 8.70695 3.25983 8.13496C3.83181 7.56298 4.60759 7.24164 5.4165 7.24164H8.66651H8.86651V7.04164V5.9583C8.86651 5.14939 9.18784 4.37362 9.75983 3.80163C10.3318 3.22964 11.1076 2.90831 11.9165 2.90831H14.0832C14.8921 2.90831 15.6679 3.22964 16.2399 3.80163C16.8118 4.37362 17.1332 5.14939 17.1332 5.9583V7.04164ZM15.1665 7.24164H15.3665V7.04164V5.9583C15.3665 5.61794 15.2313 5.29152 14.9906 5.05085C14.75 4.81018 14.4235 4.67497 14.0832 4.67497H11.9165C11.5761 4.67497 11.2497 4.81018 11.0091 5.05085C10.7684 5.29152 10.6332 5.61794 10.6332 5.9583V7.04164V7.24164H10.8332H15.1665ZM4.40692 13.8974L4.13317 13.7888V14.0833V20.0416C4.13317 20.382 4.26838 20.7084 4.50905 20.9491C4.74972 21.1898 5.07614 21.325 5.4165 21.325H20.5832C20.9235 21.325 21.25 21.1898 21.4906 20.9491C21.7313 20.7084 21.8665 20.382 21.8665 20.0416V14.0833V13.7889L21.5928 13.8974C18.8575 14.9814 15.942 15.539 12.9997 15.5408C10.0574 15.54 7.14186 14.9824 4.40692 13.8974ZM21.747 11.8939L21.8665 11.8414V11.7108V10.2916C21.8665 9.95128 21.7313 9.62485 21.4906 9.38418C21.25 9.14351 20.9235 9.0083 20.5832 9.0083H5.4165C5.07614 9.0083 4.74972 9.14351 4.50905 9.38418C4.26838 9.62485 4.13317 9.95128 4.13317 10.2916V11.7108V11.8414L4.25273 11.8939C7.00982 13.1051 9.98842 13.7306 12.9998 13.7306C16.0113 13.7306 18.9899 13.1051 21.747 11.8939Z" fill="#97A7C3" stroke="white" stroke-width="0.4"/>
</svg>
