<svg width="23" height="23" viewBox="0 0 23 23" fill="none" xmlns="http://www.w3.org/2000/svg">
<path d="M8.625 17.25C8.625 15.6622 7.33782 14.375 5.75 14.375C4.16218 14.375 2.875 15.6622 2.875 17.25C2.875 18.8378 4.16218 20.125 5.75 20.125C7.33782 20.125 8.625 18.8378 8.625 17.25Z" stroke="#46BFBD" stroke-width="2" stroke-linecap="round" stroke-linejoin="round"/>
<path d="M20.125 17.25C20.125 15.6622 18.8378 14.375 17.25 14.375C15.6622 14.375 14.375 15.6622 14.375 17.25C14.375 18.8378 15.6622 20.125 17.25 20.125C18.8378 20.125 20.125 18.8378 20.125 17.25Z" stroke="#46BFBD" stroke-width="2" stroke-linecap="round" stroke-linejoin="round"/>
<path d="M3.83337 3.83326L15.2184 15.2183" stroke="#46BFBD" stroke-width="2" stroke-linecap="round" stroke-linejoin="round"/>
<path d="M13.8767 9.13281L19.1667 3.83323" stroke="#46BFBD" stroke-width="2" stroke-linecap="round" stroke-linejoin="round"/>
<path d="M7.78162 15.2183L11.4999 11.4999" stroke="#46BFBD" stroke-width="2" stroke-linecap="round" stroke-linejoin="round"/>
</svg>
