<svg width="23" height="23" viewBox="0 0 23 23" fill="none" xmlns="http://www.w3.org/2000/svg">
<path d="M13.5476 22.75H9.45259C8.92397 22.75 8.46659 22.3821 8.35347 21.8658L7.89559 19.7463C7.28477 19.4786 6.70559 19.144 6.16872 18.7484L4.10209 19.4065C3.59809 19.5672 3.0502 19.3551 2.78584 18.8969L0.733841 15.352C0.472378 14.8936 0.562457 14.3153 0.950966 13.9581L2.55409 12.4956C2.48119 11.8331 2.48119 11.1646 2.55409 10.5021L0.950966 9.043C0.561885 8.68566 0.47177 8.10669 0.733841 7.648L2.78134 4.10088C3.0457 3.64266 3.59359 3.43053 4.09759 3.59125L6.16422 4.24938C6.43879 4.04593 6.72462 3.85813 7.02034 3.68688C7.30422 3.52678 7.59638 3.38183 7.89559 3.25262L8.35459 1.13538C8.46717 0.618965 8.92405 0.250556 9.45259 0.25H13.5476C14.0761 0.250556 14.533 0.618965 14.6456 1.13538L15.1091 3.25375C15.425 3.39271 15.7326 3.54972 16.0305 3.724C16.3083 3.88466 16.5768 4.06082 16.8348 4.25163L18.9026 3.5935C19.4063 3.43338 19.9535 3.64543 20.2177 4.10312L22.2652 7.65025C22.5267 8.10867 22.4366 8.68695 22.0481 9.04412L20.445 10.5066C20.5179 11.1691 20.5179 11.8376 20.445 12.5001L22.0481 13.9626C22.4366 14.3198 22.5267 14.8981 22.2652 15.3565L20.2177 18.9036C19.9535 19.3613 19.4063 19.5734 18.9026 19.4132L16.8348 18.7551C16.5732 18.9478 16.3013 19.1262 16.0203 19.2895C15.7254 19.4604 15.4212 19.6148 15.1091 19.7519L14.6456 21.8658C14.5326 22.3817 14.0758 22.7496 13.5476 22.75ZM6.57259 16.2576L7.49509 16.9326C7.70305 17.0858 7.91979 17.2267 8.14422 17.3545C8.35538 17.4768 8.5728 17.5879 8.79559 17.6875L9.84522 18.1476L10.3593 20.5H12.6431L13.1572 18.1465L14.2068 17.6864C14.6651 17.4843 15.1 17.2331 15.504 16.9371L16.4276 16.2621L18.7237 16.9934L19.8656 15.0156L18.0847 13.3923L18.2107 12.2537C18.2661 11.7558 18.2661 11.2532 18.2107 10.7552L18.0847 9.61675L19.8667 7.99L18.7237 6.01112L16.4276 6.74237L15.504 6.06738C15.0999 5.77005 14.665 5.51697 14.2068 5.3125L13.1572 4.85238L12.6431 2.5H10.3593L9.84297 4.8535L8.79559 5.3125C8.57262 5.41042 8.35517 5.52046 8.14422 5.64213C7.92117 5.76962 7.70557 5.90972 7.49847 6.06175L6.57484 6.73675L4.27984 6.0055L3.13572 7.99L4.91659 9.61112L4.79059 10.7507C4.73524 11.2487 4.73524 11.7513 4.79059 12.2493L4.91659 13.3878L3.13572 15.0111L4.27759 16.9889L6.57259 16.2576ZM11.4956 16C9.01031 16 6.99559 13.9853 6.99559 11.5C6.99559 9.01472 9.01031 7 11.4956 7C13.9809 7 15.9956 9.01472 15.9956 11.5C15.9925 13.984 13.9796 15.9969 11.4956 16ZM11.4956 9.25C10.2664 9.25125 9.26571 10.2387 9.2481 11.4678C9.23049 12.6968 10.2025 13.7125 11.4311 13.749C12.6598 13.7855 13.6903 12.8292 13.7456 11.6012V12.0512V11.5C13.7456 10.2574 12.7382 9.25 11.4956 9.25Z" fill="#97A7C3"/>
</svg>
