<svg width="23" height="23" viewBox="0 0 23 23" fill="none" xmlns="http://www.w3.org/2000/svg">
<path d="M13.5478 22.75H9.45284C8.92422 22.75 8.46684 22.3821 8.35371 21.8658L7.89584 19.7463C7.28502 19.4786 6.70584 19.144 6.16896 18.7484L4.10234 19.4065C3.59834 19.5672 3.05045 19.3551 2.78609 18.8969L0.734085 15.352C0.472622 14.8936 0.562701 14.3153 0.95121 13.9581L2.55434 12.4956C2.48143 11.8331 2.48143 11.1646 2.55434 10.5021L0.95121 9.043C0.562129 8.68566 0.472014 8.10669 0.734085 7.648L2.78159 4.10088C3.04595 3.64266 3.59384 3.43053 4.09784 3.59125L6.16446 4.24938C6.43903 4.04593 6.72486 3.85813 7.02059 3.68688C7.30447 3.52678 7.59663 3.38183 7.89584 3.25262L8.35484 1.13538C8.46741 0.618965 8.9243 0.250556 9.45284 0.25H13.5478C14.0764 0.250556 14.5333 0.618965 14.6458 1.13538L15.1093 3.25375C15.4252 3.39271 15.7329 3.54972 16.0307 3.724C16.3085 3.88466 16.5771 4.06082 16.8351 4.25163L18.9028 3.5935C19.4065 3.43338 19.9537 3.64543 20.218 4.10312L22.2655 7.65025C22.5269 8.10867 22.4368 8.68695 22.0483 9.04412L20.4452 10.5066C20.5181 11.1691 20.5181 11.8376 20.4452 12.5001L22.0483 13.9626C22.4368 14.3198 22.5269 14.8981 22.2655 15.3565L20.218 18.9036C19.9537 19.3613 19.4065 19.5734 18.9028 19.4132L16.8351 18.7551C16.5734 18.9478 16.3015 19.1262 16.0206 19.2895C15.7256 19.4604 15.4214 19.6148 15.1093 19.7519L14.6458 21.8658C14.5328 22.3817 14.076 22.7496 13.5478 22.75ZM6.57284 16.2576L7.49534 16.9326C7.70329 17.0858 7.92004 17.2267 8.14446 17.3545C8.35563 17.4768 8.57305 17.5879 8.79584 17.6875L9.84546 18.1476L10.3596 20.5H12.6433L13.1575 18.1465L14.2071 17.6864C14.6653 17.4843 15.1002 17.2331 15.5042 16.9371L16.4278 16.2621L18.724 16.9934L19.8658 15.0156L18.085 13.3923L18.211 12.2537C18.2663 11.7558 18.2663 11.2532 18.211 10.7552L18.085 9.61675L19.867 7.99L18.724 6.01112L16.4278 6.74237L15.5042 6.06738C15.1001 5.77005 14.6652 5.51697 14.2071 5.3125L13.1575 4.85238L12.6433 2.5H10.3596L9.84321 4.8535L8.79584 5.3125C8.57287 5.41042 8.35542 5.52046 8.14446 5.64213C7.92141 5.76962 7.70581 5.90972 7.49871 6.06175L6.57509 6.73675L4.28009 6.0055L3.13596 7.99L4.91684 9.61112L4.79084 10.7507C4.73549 11.2487 4.73549 11.7513 4.79084 12.2493L4.91684 13.3878L3.13596 15.0111L4.27784 16.9889L6.57284 16.2576ZM11.4958 16C9.01055 16 6.99584 13.9853 6.99584 11.5C6.99584 9.01472 9.01055 7 11.4958 7C13.9811 7 15.9958 9.01472 15.9958 11.5C15.9927 13.984 13.9798 15.9969 11.4958 16ZM11.4958 9.25C10.2667 9.25125 9.26596 10.2387 9.24835 11.4678C9.23073 12.6968 10.2027 13.7125 11.4314 13.749C12.66 13.7855 13.6905 12.8292 13.7458 11.6012V12.0512V11.5C13.7458 10.2574 12.7385 9.25 11.4958 9.25Z" fill="#1479FF"/>
</svg>
