<svg width="19" height="19" viewBox="0 0 19 19" fill="none" xmlns="http://www.w3.org/2000/svg">
<path d="M1.81945 7.37795L16.964 1.64499C17.0186 1.62409 17.0781 1.61946 17.1353 1.63166C17.1925 1.64386 17.245 1.67236 17.2863 1.71373C17.3277 1.7551 17.3562 1.80756 17.3684 1.86478C17.3806 1.922 17.376 1.98153 17.3551 2.03617L11.6233 17.1837C11.6005 17.2412 11.5606 17.2904 11.509 17.3246C11.4575 17.3588 11.3967 17.3763 11.3348 17.3749C11.273 17.3735 11.213 17.3532 11.1631 17.3167C11.1131 17.2802 11.0755 17.2293 11.0553 17.1708L8.50349 10.8812C8.47373 10.7921 8.42366 10.7111 8.35723 10.6446C8.2908 10.5782 8.20982 10.5281 8.12071 10.4983L1.83233 7.94825C1.77309 7.92853 1.72139 7.89099 1.6843 7.84076C1.64721 7.79053 1.62655 7.73006 1.62514 7.66763C1.62373 7.6052 1.64164 7.54386 1.67643 7.49201C1.71121 7.44015 1.76116 7.40031 1.81945 7.37795V7.37795Z" stroke="#1479FF" stroke-width="1.5" stroke-linecap="round" stroke-linejoin="round"/>
<path d="M17.2241 1.776L8.4024 10.5995" stroke="#1479FF" stroke-width="1.5" stroke-linecap="round" stroke-linejoin="round"/>
</svg>
