<svg width="26" height="26" viewBox="0 0 26 26" fill="none" xmlns="http://www.w3.org/2000/svg">
<path fill-rule="evenodd" clip-rule="evenodd" d="M1.625 22.75C1.625 22.75 0 22.75 0 21.125C0 19.5 1.625 14.625 8.125 14.625C14.625 14.625 16.25 19.5 16.25 21.125C16.25 22.75 14.625 22.75 14.625 22.75H1.625ZM14.6169 21.216V21.2128V21.216ZM14.5893 21.125H1.66075C1.65314 21.1241 1.64556 21.123 1.638 21.1218L1.625 21.1185C1.62825 20.6895 1.89638 19.4448 2.86 18.3235C3.757 17.2721 5.33325 16.25 8.125 16.25C10.9151 16.25 12.4914 17.2738 13.39 18.3235C14.3536 19.4448 14.6234 20.6911 14.625 21.1185C14.6131 21.1208 14.6012 21.123 14.5893 21.125ZM1.63313 21.216V21.2128V21.216ZM8.125 11.375C7.26305 11.375 6.4364 11.0326 5.8269 10.4231C5.21741 9.81362 4.875 8.98697 4.875 8.12502C4.875 7.26306 5.21741 6.43641 5.8269 5.82692C6.4364 5.21743 7.26305 4.87502 8.125 4.87502C8.98695 4.87502 9.8136 5.21743 10.4231 5.82692C11.0326 6.43641 11.375 7.26306 11.375 8.12502C11.375 8.98697 11.0326 9.81362 10.4231 10.4231C9.8136 11.0326 8.98695 11.375 8.125 11.375ZM3.25 8.12502C3.25 8.76521 3.37609 9.39914 3.62109 9.9906C3.86608 10.5821 4.22517 11.1195 4.67785 11.5722C5.13054 12.0248 5.66796 12.3839 6.25942 12.6289C6.85088 12.8739 7.48481 13 8.125 13C8.76519 13 9.39912 12.8739 9.99058 12.6289C10.582 12.3839 11.1195 12.0248 11.5721 11.5722C12.0248 11.1195 12.3839 10.5821 12.6289 9.9906C12.8739 9.39914 13 8.76521 13 8.12502C13 6.83209 12.4864 5.59211 11.5721 4.67787C10.6579 3.76363 9.41793 3.25002 8.125 3.25002C6.83207 3.25002 5.59209 3.76363 4.67785 4.67787C3.76361 5.59211 3.25 6.83209 3.25 8.12502ZM14.729 15.08C15.379 14.8753 16.0491 14.7408 16.7277 14.6786C17.1091 14.6424 17.4919 14.6245 17.875 14.625C24.375 14.625 26 19.5 26 21.125C26 22.2089 25.4589 22.75 24.375 22.75H17.524C17.7649 22.2427 17.885 21.6865 17.875 21.125C17.875 19.4838 17.2624 17.8068 16.1038 16.406C15.7089 15.9283 15.249 15.4814 14.729 15.08ZM18.005 16.25C20.7155 16.2825 22.2544 17.29 23.14 18.3235C24.1101 19.4513 24.375 20.7009 24.375 21.125H19.5C19.5 19.4269 18.9751 17.7353 18.005 16.25ZM23.5625 8.93752C23.5625 7.64459 23.0489 6.40461 22.1346 5.49037C21.2204 4.57613 19.9804 4.06252 18.6875 4.06252C17.3946 4.06252 16.1546 4.57613 15.2404 5.49037C14.3261 6.40461 13.8125 7.64459 13.8125 8.93752C13.8125 10.2304 14.3261 11.4704 15.2404 12.3847C16.1546 13.2989 17.3946 13.8125 18.6875 13.8125C19.9804 13.8125 21.2204 13.2989 22.1346 12.3847C23.0489 11.4704 23.5625 10.2304 23.5625 8.93752ZM18.6875 5.68752C19.5495 5.68752 20.3761 6.02993 20.9856 6.63942C21.5951 7.24891 21.9375 8.07556 21.9375 8.93752C21.9375 9.79947 21.5951 10.6261 20.9856 11.2356C20.3761 11.8451 19.5495 12.1875 18.6875 12.1875C17.8255 12.1875 16.9989 11.8451 16.3894 11.2356C15.7799 10.6261 15.4375 9.79947 15.4375 8.93752C15.4375 8.07556 15.7799 7.24891 16.3894 6.63942C16.9989 6.02993 17.8255 5.68752 18.6875 5.68752Z" fill="#97A7C3"/>
</svg>
