<svg width="58" height="58" viewBox="0 0 58 58" fill="none" xmlns="http://www.w3.org/2000/svg">
<rect width="58" height="58" rx="3" fill="#FDF0F0"/>
<path d="M34.4166 38.75V36.5833C34.4166 35.4341 33.9601 34.3319 33.1474 33.5192C32.3348 32.7065 31.2326 32.25 30.0833 32.25H21.4166C20.2674 32.25 19.1652 32.7065 18.3525 33.5192C17.5399 34.3319 17.0833 35.4341 17.0833 36.5833V38.75" stroke="#E66666" stroke-width="2" stroke-linecap="round" stroke-linejoin="round"/>
<path d="M25.75 27.9167C28.1432 27.9167 30.0833 25.9766 30.0833 23.5833C30.0833 21.1901 28.1432 19.25 25.75 19.25C23.3567 19.25 21.4166 21.1901 21.4166 23.5833C21.4166 25.9766 23.3567 27.9167 25.75 27.9167Z" stroke="#E66666" stroke-width="2" stroke-linecap="round" stroke-linejoin="round"/>
<path d="M40.9166 38.75V36.5834C40.9159 35.6232 40.5963 34.6905 40.0081 33.9317C39.4199 33.1729 38.5963 32.6309 37.6666 32.3909" stroke="#E66666" stroke-width="2" stroke-linecap="round" stroke-linejoin="round"/>
<path d="M33.3333 19.3909C34.2654 19.6295 35.0916 20.1716 35.6816 20.9317C36.2716 21.6918 36.5918 22.6266 36.5918 23.5888C36.5918 24.551 36.2716 25.4858 35.6816 26.2459C35.0916 27.0059 34.2654 27.548 33.3333 27.7867" stroke="#E66666" stroke-width="2" stroke-linecap="round" stroke-linejoin="round"/>
</svg>
