<svg width="67" height="67" viewBox="0 0 67 67" fill="none" xmlns="http://www.w3.org/2000/svg">
<path d="M0 4C0 1.79086 1.79086 0 4 0H67V67H4C1.79086 67 0 65.2091 0 63V4Z" fill="#FFCE31" fill-opacity="0.1"/>
<path d="M26.2807 45.2467L33.1373 41.4875L33.4978 41.2898L33.8583 41.4874L40.7188 45.247C40.7188 45.2471 40.7189 45.2471 40.719 45.2472C40.7217 45.2455 40.7251 45.2431 40.7291 45.2397C40.7598 45.2137 40.8022 45.148 40.7844 45.0405L40.7843 45.0401L39.4875 37.157L39.4256 36.781L39.6929 36.5093L45.196 30.9161L45.1964 30.9158C45.2388 30.8727 45.2669 30.7922 45.2396 30.6944C45.2271 30.6493 45.2074 30.6221 45.1953 30.6101C45.1866 30.6015 45.1835 30.6013 45.1788 30.6006L45.1776 30.6004L37.5245 29.4404L37.1298 29.3806L36.959 29.0197L33.5466 21.8085L26.2807 45.2467ZM26.2807 45.2467C26.2781 45.2451 26.275 45.2428 26.2713 45.2397C26.2406 45.2137 26.1983 45.148 26.216 45.0405L26.2161 45.0401L27.5129 37.157L27.5748 36.7809L27.3074 36.5092L21.8032 30.9166C21.8032 30.9165 21.8031 30.9164 21.803 30.9163C21.7612 30.8736 21.7331 30.7929 21.7605 30.6948C21.7731 30.6496 21.7929 30.6222 21.8051 30.6101C21.8135 30.6018 21.8167 30.6013 21.8212 30.6006L21.8216 30.6006L21.8228 30.6004L29.4759 29.4404L29.8706 29.3806L30.0414 29.0197L33.4538 21.8085L26.2807 45.2467ZM33.4949 21.7524C33.4918 21.7544 33.4737 21.7666 33.4539 21.8083L33.4949 21.7524ZM33.4949 21.7524C33.4976 21.7508 33.4991 21.7503 33.4995 21.7501M33.4949 21.7524L33.4995 21.7501M33.4995 21.7501L33.5001 21.75M33.4995 21.7501L33.5001 21.75M33.5001 21.75L33.5002 21.75M33.5001 21.75L33.5002 21.75M33.5002 21.75L33.5004 21.75M33.5002 21.75L33.5004 21.75M33.5004 21.75L33.5009 21.7501M33.5004 21.75L33.5009 21.7501M33.5009 21.7501C33.5013 21.7503 33.5029 21.7508 33.5055 21.7524M33.5009 21.7501L33.5055 21.7524M33.5055 21.7524C33.5086 21.7544 33.5267 21.7666 33.5465 21.8083L33.5055 21.7524Z" fill="#FFCE31" stroke="#FFCE31" stroke-width="1.5"/>
</svg>
