<svg width="24" height="24" viewBox="0 0 24 24" fill="none" xmlns="http://www.w3.org/2000/svg">
<rect width="24" height="24" rx="12" fill="#1479FF"/>
<path d="M8.04976 11.3977C7.76801 11.0941 7.29347 11.0764 6.98984 11.3581C6.68622 11.6399 6.66849 12.1144 6.95024 12.4181L8.04976 11.3977ZM10.8333 15.5L10.2836 16.0102C10.4315 16.1696 10.6413 16.2569 10.8587 16.2496C11.076 16.2422 11.2794 16.1409 11.4163 15.9719L10.8333 15.5ZM17.0829 8.9719C17.3436 8.64995 17.2938 8.17769 16.9719 7.91707C16.65 7.65644 16.1777 7.70616 15.9171 8.0281L17.0829 8.9719ZM6.95024 12.4181L10.2836 16.0102L11.3831 14.9898L8.04976 11.3977L6.95024 12.4181ZM11.4163 15.9719L17.0829 8.9719L15.9171 8.0281L10.2504 15.0281L11.4163 15.9719Z" fill="white"/>
</svg>
