<svg width="27" height="27" viewBox="0 0 27 27" fill="none" xmlns="http://www.w3.org/2000/svg">
<path d="M19.0001 17.5H20.5001V14.5H23.5001V13H20.5001V10H19.0001V13H16.0001V14.5H19.0001V17.5Z" fill="#1479FF"/>
<path d="M4.50006 9C4.50006 11.4853 6.51478 13.5 9.00006 13.5C11.4841 13.4969 13.497 11.484 13.5001 9C13.5001 6.51472 11.4853 4.5 9.00006 4.5C6.51478 4.5 4.50006 6.51472 4.50006 9Z" fill="#1479FF"/>
<circle cx="9.00006" cy="9" r="3" fill="#ECF9F8"/>
<path d="M4.12506 21.375V18.75H2.62506V21.375H4.12506ZM6.37506 16.5H11.6251V15H6.37506V16.5ZM13.8751 18.75V21.375H15.3751V18.75H13.8751ZM11.6251 16.5C12.8677 16.5 13.8751 17.5074 13.8751 18.75H15.3751C15.3751 16.6789 13.6961 15 11.6251 15V16.5ZM4.12506 18.75C4.12506 17.5074 5.13242 16.5 6.37506 16.5V15C4.30399 15 2.62506 16.6789 2.62506 18.75H4.12506Z" fill="#1479FF"/>
</svg>
