<svg width="24" height="25" viewBox="0 0 24 25" fill="none" xmlns="http://www.w3.org/2000/svg">
<path d="M15.7875 15.4712C16.3389 15.175 16.9701 15.0064 17.6423 15.0064H17.6446C17.7129 15.0064 17.7448 14.9244 17.6947 14.8788C16.9957 14.2514 16.1971 13.7447 15.3318 13.3794C15.3226 13.3749 15.3135 13.3726 15.3044 13.368C16.7195 12.3404 17.64 10.6701 17.64 8.78568C17.64 5.66394 15.1153 3.13464 12.0004 3.13464C8.88547 3.13464 6.36301 5.66394 6.36301 8.78568C6.36301 10.6701 7.28359 12.3404 8.7009 13.368C8.69179 13.3726 8.68267 13.3749 8.67356 13.3794C7.655 13.8101 6.74127 14.4276 5.95514 15.216C5.17354 15.9962 4.55129 16.9211 4.1231 17.939C3.70181 18.9358 3.47445 20.0038 3.45318 21.0858C3.45257 21.1101 3.45684 21.1343 3.46573 21.157C3.47462 21.1796 3.48795 21.2003 3.50494 21.2177C3.52192 21.2351 3.54223 21.2489 3.56464 21.2584C3.58706 21.2678 3.61115 21.2727 3.63547 21.2727H5.00038C5.09836 21.2727 5.1804 21.1929 5.18267 21.0949C5.22825 19.3358 5.93235 17.6884 7.17877 16.4397C8.4662 15.1477 10.1797 14.4367 12.0027 14.4367C13.2947 14.4367 14.5342 14.7945 15.6029 15.4644C15.6304 15.4816 15.6619 15.4914 15.6943 15.4926C15.7267 15.4938 15.7588 15.4864 15.7875 15.4712ZM12.0027 12.705C10.959 12.705 9.97694 12.2971 9.23638 11.5565C8.87202 11.1931 8.58316 10.7612 8.38645 10.2856C8.18974 9.81008 8.08906 9.30031 8.09023 8.78568C8.09023 7.73979 8.4981 6.75541 9.23638 6.01485C9.97467 5.27429 10.9568 4.86641 12.0027 4.86641C13.0486 4.86641 14.0284 5.27429 14.7689 6.01485C15.1333 6.37827 15.4222 6.8102 15.6189 7.28575C15.8156 7.76129 15.9163 8.27106 15.9151 8.78568C15.9151 9.83158 15.5072 10.816 14.7689 11.5565C14.0284 12.2971 13.0463 12.705 12.0027 12.705ZM20.3835 18.1281H18.4695V16.2141C18.4695 16.1138 18.3874 16.0318 18.2872 16.0318H17.0111C16.9109 16.0318 16.8288 16.1138 16.8288 16.2141V18.1281H14.9148C14.8145 18.1281 14.7325 18.2102 14.7325 18.3104V19.5865C14.7325 19.6867 14.8145 19.7688 14.9148 19.7688H16.8288V21.6828C16.8288 21.7831 16.9109 21.8651 17.0111 21.8651H18.2872C18.3874 21.8651 18.4695 21.7831 18.4695 21.6828V19.7688H20.3835C20.4838 19.7688 20.5658 19.6867 20.5658 19.5865V18.3104C20.5658 18.2102 20.4838 18.1281 20.3835 18.1281Z" fill="#193566"/>
</svg>
