<svg width="24" height="24" viewBox="0 0 24 24" fill="none" xmlns="http://www.w3.org/2000/svg">
<path d="M15.7885 14.9713C16.3399 14.6751 16.9711 14.5065 17.6433 14.5065H17.6456C17.7139 14.5065 17.7458 14.4244 17.6957 14.3789C16.9966 13.7515 16.1981 13.2448 15.3327 12.8795C15.3236 12.875 15.3145 12.8727 15.3054 12.8681C16.7204 11.8405 17.641 10.1702 17.641 8.28578C17.641 5.16403 15.1163 2.63474 12.0014 2.63474C8.88645 2.63474 6.36399 5.16403 6.36399 8.28578C6.36399 10.1702 7.28456 11.8405 8.70188 12.8681C8.69276 12.8727 8.68365 12.875 8.67454 12.8795C7.65598 13.3102 6.74224 13.9277 5.95611 14.7161C5.17452 15.4963 4.55227 16.4211 4.12408 17.4391C3.70279 18.4359 3.47542 19.5039 3.45416 20.5859C3.45355 20.6102 3.45782 20.6344 3.4667 20.6571C3.47559 20.6797 3.48892 20.7003 3.50591 20.7178C3.5229 20.7352 3.5432 20.749 3.56562 20.7585C3.58804 20.7679 3.61212 20.7728 3.63645 20.7728H5.00136C5.09934 20.7728 5.18137 20.693 5.18365 20.595C5.22922 18.8359 5.93333 17.1884 7.17974 15.9397C8.46718 14.6478 10.1807 13.9368 12.0036 13.9368C13.2956 13.9368 14.5352 14.2946 15.6039 14.9645C15.6314 14.9817 15.6629 14.9915 15.6953 14.9927C15.7277 14.9939 15.7598 14.9865 15.7885 14.9713ZM12.0036 12.205C10.96 12.205 9.97792 11.7972 9.23736 11.0566C8.87299 10.6932 8.58414 10.2613 8.38743 9.78571C8.19072 9.31017 8.09004 8.8004 8.0912 8.28578C8.0912 7.23988 8.49908 6.2555 9.23736 5.51494C9.97564 4.77438 10.9577 4.36651 12.0036 4.36651C13.0495 4.36651 14.0294 4.77438 14.7699 5.51494C15.1343 5.87837 15.4231 6.31029 15.6198 6.78584C15.8166 7.26138 15.9172 7.77115 15.9161 8.28578C15.9161 9.33167 15.5082 10.316 14.7699 11.0566C14.0294 11.7972 13.0473 12.205 12.0036 12.205ZM20.3845 17.6282H18.4704V15.7142C18.4704 15.6139 18.3884 15.5319 18.2881 15.5319H17.0121C16.9118 15.5319 16.8298 15.6139 16.8298 15.7142V17.6282H14.9157C14.8155 17.6282 14.7335 17.7103 14.7335 17.8105V19.0866C14.7335 19.1868 14.8155 19.2688 14.9157 19.2688H16.8298V21.1829C16.8298 21.2832 16.9118 21.3652 17.0121 21.3652H18.2881C18.3884 21.3652 18.4704 21.2832 18.4704 21.1829V19.2688H20.3845C20.4848 19.2688 20.5668 19.1868 20.5668 19.0866V17.8105C20.5668 17.7103 20.4848 17.6282 20.3845 17.6282Z" fill="#193566"/>
</svg>
