<svg width="22" height="22" viewBox="0 0 22 22" fill="none" xmlns="http://www.w3.org/2000/svg">
<path d="M1.49068 8.37266L20.241 1.27472C20.3087 1.24884 20.3824 1.24311 20.4532 1.25821C20.524 1.27332 20.589 1.30861 20.6402 1.35983C20.6914 1.41105 20.7267 1.476 20.7418 1.54684C20.7569 1.61769 20.7511 1.69139 20.7253 1.75904L13.6287 20.5131C13.6005 20.5843 13.5511 20.6452 13.4873 20.6875C13.4234 20.7299 13.3482 20.7516 13.2716 20.7499C13.195 20.7481 13.1208 20.723 13.059 20.6778C12.9971 20.6326 12.9505 20.5696 12.9256 20.4972L9.76614 12.71C9.72931 12.5997 9.66732 12.4994 9.58507 12.4171C9.50282 12.3348 9.40256 12.2728 9.29223 12.236L1.50662 9.07875C1.43327 9.05435 1.36926 9.00786 1.32334 8.94567C1.27742 8.88348 1.25184 8.80861 1.2501 8.73132C1.24835 8.65403 1.27053 8.57808 1.31359 8.51388C1.35666 8.44968 1.41851 8.40036 1.49068 8.37266V8.37266Z" stroke="white" stroke-width="1.5" stroke-linecap="round" stroke-linejoin="round"/>
</svg>
