<svg width="175" height="175" viewBox="0 0 175 175" fill="none" xmlns="http://www.w3.org/2000/svg">
<path d="M87.5 0C103.637 1.92431e-07 119.46 4.46245 133.219 12.894C146.978 21.3255 158.137 33.3977 165.463 47.7758C172.789 62.154 175.996 78.278 174.73 94.3652C173.464 110.452 167.774 125.876 158.289 138.931L129.973 118.359C135.664 110.526 139.079 101.271 139.838 91.6191C140.598 81.9668 138.673 72.2924 134.278 63.6655C129.882 55.0386 123.187 47.7953 114.931 42.7364C106.676 37.6775 97.1822 35 87.5 35V0Z" fill="#46BFBD"/>
<path d="M114.539 170.717C92.4684 177.889 68.4529 175.999 47.7758 165.463C27.0988 154.928 11.4538 136.61 4.28256 114.539C-2.88863 92.4684 -0.998582 68.453 9.53691 47.7759C20.0724 27.0988 38.3903 11.4538 60.461 4.28257L71.2766 37.5695C58.0342 41.8723 47.0434 51.2593 40.7221 63.6655C34.4008 76.0718 33.2668 90.481 37.5695 103.723C41.8722 116.966 51.2592 127.957 63.6655 134.278C76.0718 140.599 90.481 141.733 103.723 137.43L114.539 170.717Z" fill="#FDB45C"/>
<path d="M158.289 138.931C147.428 153.88 132.113 165.007 114.539 170.717L103.723 137.43C114.268 134.004 123.457 127.328 129.973 118.359L158.289 138.931Z" fill="#6F737D"/>
<path d="M60.461 4.28256C69.1935 1.4452 78.3181 -1.09493e-07 87.5 0V35C81.9909 35 76.5161 35.8671 71.2766 37.5695L60.461 4.28256Z" fill="#F7464A"/>
</svg>
