<svg width="21" height="21" viewBox="0 0 21 21" fill="none" xmlns="http://www.w3.org/2000/svg">
<path d="M10.5001 20.0833C5.20735 20.0833 0.916748 15.7927 0.916748 10.5C0.916748 5.20723 5.20735 0.916626 10.5001 0.916626C15.7928 0.916626 20.0834 5.20723 20.0834 10.5C20.0776 15.7903 15.7904 20.0775 10.5001 20.0833ZM10.5001 2.83329C6.2659 2.83329 2.83341 6.26578 2.83341 10.5C2.83341 14.7341 6.2659 18.1666 10.5001 18.1666C14.7343 18.1666 18.1667 14.7341 18.1667 10.5C18.162 6.26775 14.7323 2.83805 10.5001 2.83329ZM15.2917 11.4583H9.54175V5.70829H11.4584V9.54163H15.2917V11.4583Z" fill="#46BFBD"/>
</svg>
