<svg width="20" height="20" viewBox="0 0 20 20" fill="none" xmlns="http://www.w3.org/2000/svg">
<path d="M10.0013 1.66666C5.39297 1.66666 1.66797 5.39166 1.66797 10C1.66797 14.6083 5.39297 18.3333 10.0013 18.3333C14.6096 18.3333 18.3346 14.6083 18.3346 10C18.3346 5.39166 14.6096 1.66666 10.0013 1.66666ZM10.0013 16.6667C6.3263 16.6667 3.33464 13.675 3.33464 10C3.33464 6.325 6.3263 3.33333 10.0013 3.33333C13.6763 3.33333 16.668 6.325 16.668 10C16.668 13.675 13.6763 16.6667 10.0013 16.6667ZM12.993 5.83333L10.0013 8.825L7.00964 5.83333L5.83464 7.00833L8.8263 10L5.83464 12.9917L7.00964 14.1667L10.0013 11.175L12.993 14.1667L14.168 12.9917L11.1763 10L14.168 7.00833L12.993 5.83333Z" fill="#193566"/>
</svg>
