<svg width="35" height="35" viewBox="0 0 35 35" fill="none" xmlns="http://www.w3.org/2000/svg">
<path d="M23.1333 9.47915V9.67915H23.3333H27.7083C28.8156 9.67915 29.8775 10.119 30.6605 10.902C31.4435 11.6849 31.8833 12.7469 31.8833 13.8541V26.9791C31.8833 28.0864 31.4435 29.1484 30.6605 29.9313C29.8775 30.7143 28.8156 31.1541 27.7083 31.1541H7.29166C6.18438 31.1541 5.12245 30.7143 4.33949 29.9313C3.55652 29.1484 3.11666 28.0864 3.11666 26.9791V13.8541C3.11666 12.7469 3.55652 11.6849 4.33949 10.902C5.12245 10.119 6.18438 9.67915 7.29166 9.67915H11.6667H11.8667V9.47915V8.02081C11.8667 6.91353 12.3065 5.85161 13.0895 5.06864C13.8725 4.28568 14.9344 3.84581 16.0417 3.84581H18.9583C20.0656 3.84581 21.1275 4.28568 21.9105 5.06864C22.6935 5.85161 23.1333 6.91353 23.1333 8.02081V9.47915ZM20.1309 6.84819L19.9895 6.98962L20.1309 6.84819C19.8199 6.5372 19.3981 6.36248 18.9583 6.36248H16.0417C15.6018 6.36248 15.18 6.5372 14.869 6.84819C14.558 7.15919 14.3833 7.581 14.3833 8.02081V9.47915V9.67915H14.5833H20.4167H20.6167V9.47915V8.02081C20.6167 7.581 20.4419 7.15919 20.1309 6.84819ZM5.90707 18.7724L5.63332 18.6638V18.9583V26.9791C5.63332 27.419 5.80804 27.8408 6.11904 28.1518C6.43004 28.4628 6.85184 28.6375 7.29166 28.6375H27.7083C28.1481 28.6375 28.5699 28.4628 28.8809 28.1518C29.1919 27.8408 29.3667 27.419 29.3667 26.9791V18.9583V18.6639L29.093 18.7724C25.4027 20.2349 21.4694 20.9871 17.4999 20.9896C13.5303 20.9885 9.59686 20.2362 5.90707 18.7724ZM29.2471 15.9477L29.3667 15.8951V15.7646V13.8541C29.3667 13.4143 29.1919 12.9925 28.8809 12.6815C28.5699 12.3705 28.1481 12.1958 27.7083 12.1958H7.29166C6.85184 12.1958 6.43004 12.3705 6.11904 12.6815C5.80804 12.9925 5.63332 13.4143 5.63332 13.8541V15.7646V15.8951L5.75288 15.9477C9.45558 17.5743 13.4557 18.4142 17.5 18.4142C21.5442 18.4142 25.5444 17.5743 29.2471 15.9477Z" fill="white" stroke="#193566" stroke-width="0.4"/>
</svg>
