<svg width="280" height="280" viewBox="0 0 280 280" fill="none" xmlns="http://www.w3.org/2000/svg">
<path d="M140 21C140 9.40202 149.454 -0.161244 160.922 1.57201C181.178 4.63358 200.604 12.118 217.78 23.5943C240.803 38.9777 258.747 60.8427 269.343 86.4243C279.939 112.006 282.712 140.155 277.31 167.313C271.908 194.47 258.574 219.416 238.995 238.995C219.416 258.574 194.47 271.908 167.313 277.31C140.155 282.712 112.006 279.939 86.4243 269.343C60.8427 258.747 38.9776 240.803 23.5943 217.78C12.118 200.604 4.63358 181.178 1.57201 160.922C-0.161245 149.454 9.40202 140 21 140C32.598 140 41.775 149.507 44.2414 160.84C46.8395 172.777 51.6602 184.185 58.516 194.446C69.2844 210.562 84.5899 223.123 102.497 230.54C120.404 237.958 140.109 239.898 159.119 236.117C178.129 232.336 195.591 223.002 209.296 209.296C223.002 195.591 232.336 178.129 236.117 159.119C239.898 140.109 237.958 120.404 230.54 102.497C223.123 84.5899 210.562 69.2844 194.446 58.516C184.185 51.6602 172.777 46.8395 160.84 44.2415C149.507 41.775 140 32.598 140 21Z" fill="#97A7C3"/>
<path d="M28.5635 181.748C17.7027 185.817 5.43057 180.319 3.03048 168.972C-1.24695 148.75 -1.01119 127.741 3.83222 107.468C8.67563 87.1951 17.9618 68.3485 30.9183 52.2434C38.1883 43.2068 51.6203 43.8498 59.4691 52.3885C67.3178 60.9273 66.5286 74.1177 59.8542 83.6027C52.7501 93.6984 47.5804 105.098 44.6826 117.228C41.7847 129.357 41.2432 141.862 43.0166 154.079C44.6827 165.557 39.4243 177.679 28.5635 181.748Z" fill="#D60000"/>
<path d="M205.31 40.5231C211.675 30.8278 209.02 17.6452 198.483 12.8003C187.412 7.71025 175.696 4.07464 163.627 2.00813C144.638 -1.24322 125.182 -0.540358 106.477 4.07272C87.7723 8.6858 70.2207 17.1098 54.9208 28.8176C45.1964 36.2589 36.5147 44.9249 29.0801 54.5789C22.0035 63.7678 25.783 76.6729 35.9263 82.2968C46.0695 87.9207 58.7055 84.0561 66.3577 75.3408C70.5979 70.5116 75.3139 66.0984 80.4446 62.1723C91.1545 53.9769 103.441 48.0801 116.534 44.8509C129.628 41.6217 143.247 41.1297 156.539 43.4057C162.907 44.496 169.134 46.2103 175.133 48.5142C185.96 52.6721 198.944 50.2183 205.31 40.5231Z" fill="#D1D9E6"/>
<path d="M140 21C140 9.40202 149.454 -0.1612 160.922 1.57204C178.772 4.26994 196 10.4056 211.625 19.7091C233.289 32.6087 251.068 51.1197 263.083 73.287C275.098 95.4543 280.903 120.455 279.886 145.649C278.869 170.842 271.066 195.293 257.303 216.42C243.54 237.546 224.327 254.563 201.693 265.674C179.059 276.785 153.844 281.577 128.712 279.544C103.58 277.511 79.4636 268.729 58.9098 254.124C44.0858 243.591 31.512 230.312 21.8311 215.074C15.6117 205.285 20.5392 192.773 31.1482 188.086C41.7571 183.4 53.9933 188.388 60.8287 197.757C67.0295 206.257 74.5858 213.74 83.2368 219.887C97.6245 230.11 114.506 236.258 132.098 237.681C149.691 239.104 167.341 235.75 183.185 227.972C199.029 220.194 212.478 208.282 222.112 193.494C231.746 178.705 237.208 161.589 237.92 143.954C238.632 126.318 234.568 108.818 226.158 93.3009C217.747 77.7838 205.302 64.8261 190.137 55.7963C181.019 50.367 171.12 46.4788 160.84 44.2415C149.507 41.7751 140 32.598 140 21Z" fill="#97A7C3"/>
<path d="M136.998 122.76H127.278V127.89C127.698 127.37 128.298 126.95 129.078 126.63C129.858 126.29 130.688 126.12 131.568 126.12C133.168 126.12 134.478 126.47 135.498 127.17C136.518 127.87 137.258 128.77 137.718 129.87C138.178 130.95 138.408 132.11 138.408 133.35C138.408 135.65 137.748 137.5 136.428 138.9C135.128 140.3 133.268 141 130.848 141C128.568 141 126.748 140.43 125.388 139.29C124.028 138.15 123.258 136.66 123.078 134.82H127.158C127.338 135.62 127.738 136.26 128.358 136.74C128.998 137.22 129.808 137.46 130.788 137.46C131.968 137.46 132.858 137.09 133.458 136.35C134.058 135.61 134.358 134.63 134.358 133.41C134.358 132.17 134.048 131.23 133.428 130.59C132.828 129.93 131.938 129.6 130.758 129.6C129.918 129.6 129.218 129.81 128.658 130.23C128.098 130.65 127.698 131.21 127.458 131.91H123.438V119.07H136.998V122.76ZM145.265 129.42C143.265 128.38 142.265 126.77 142.265 124.59C142.265 123.51 142.535 122.53 143.075 121.65C143.635 120.75 144.465 120.04 145.565 119.52C146.685 118.98 148.045 118.71 149.645 118.71C151.245 118.71 152.595 118.98 153.695 119.52C154.815 120.04 155.645 120.75 156.185 121.65C156.745 122.53 157.025 123.51 157.025 124.59C157.025 125.69 156.755 126.66 156.215 127.5C155.675 128.32 154.955 128.96 154.055 129.42C155.155 129.9 156.015 130.6 156.635 131.52C157.255 132.44 157.565 133.53 157.565 134.79C157.565 136.15 157.215 137.34 156.515 138.36C155.835 139.36 154.895 140.13 153.695 140.67C152.495 141.21 151.145 141.48 149.645 141.48C148.145 141.48 146.795 141.21 145.595 140.67C144.415 140.13 143.475 139.36 142.775 138.36C142.095 137.34 141.755 136.15 141.755 134.79C141.755 133.53 142.065 132.44 142.685 131.52C143.305 130.58 144.165 129.88 145.265 129.42ZM152.945 125.19C152.945 124.21 152.645 123.45 152.045 122.91C151.465 122.37 150.665 122.1 149.645 122.1C148.645 122.1 147.845 122.37 147.245 122.91C146.665 123.45 146.375 124.22 146.375 125.22C146.375 126.12 146.675 126.84 147.275 127.38C147.895 127.92 148.685 128.19 149.645 128.19C150.605 128.19 151.395 127.92 152.015 127.38C152.635 126.82 152.945 126.09 152.945 125.19ZM149.645 131.25C148.505 131.25 147.575 131.54 146.855 132.12C146.155 132.7 145.805 133.53 145.805 134.61C145.805 135.61 146.145 136.43 146.825 137.07C147.525 137.69 148.465 138 149.645 138C150.825 138 151.755 137.68 152.435 137.04C153.115 136.4 153.455 135.59 153.455 134.61C153.455 133.55 153.105 132.73 152.405 132.15C151.705 131.55 150.785 131.25 149.645 131.25ZM92.7431 162.005H88.5731L87.8831 164H85.6781L89.4431 153.515H91.8881L95.6531 164H93.4331L92.7431 162.005ZM92.1731 160.325L90.6581 155.945L89.1431 160.325H92.1731ZM99.1604 156.89C99.4304 156.51 99.8004 156.195 100.27 155.945C100.75 155.685 101.295 155.555 101.905 155.555C102.615 155.555 103.255 155.73 103.825 156.08C104.405 156.43 104.86 156.93 105.19 157.58C105.53 158.22 105.7 158.965 105.7 159.815C105.7 160.665 105.53 161.42 105.19 162.08C104.86 162.73 104.405 163.235 103.825 163.595C103.255 163.955 102.615 164.135 101.905 164.135C101.295 164.135 100.755 164.01 100.285 163.76C99.8254 163.51 99.4504 163.195 99.1604 162.815V167.96H97.0604V155.69H99.1604V156.89ZM103.555 159.815C103.555 159.315 103.45 158.885 103.24 158.525C103.04 158.155 102.77 157.875 102.43 157.685C102.1 157.495 101.74 157.4 101.35 157.4C100.97 157.4 100.61 157.5 100.27 157.7C99.9404 157.89 99.6704 158.17 99.4604 158.54C99.2604 158.91 99.1604 159.345 99.1604 159.845C99.1604 160.345 99.2604 160.78 99.4604 161.15C99.6704 161.52 99.9404 161.805 100.27 162.005C100.61 162.195 100.97 162.29 101.35 162.29C101.74 162.29 102.1 162.19 102.43 161.99C102.77 161.79 103.04 161.505 103.24 161.135C103.45 160.765 103.555 160.325 103.555 159.815ZM109.326 156.89C109.596 156.51 109.966 156.195 110.436 155.945C110.916 155.685 111.461 155.555 112.071 155.555C112.781 155.555 113.421 155.73 113.991 156.08C114.571 156.43 115.026 156.93 115.356 157.58C115.696 158.22 115.866 158.965 115.866 159.815C115.866 160.665 115.696 161.42 115.356 162.08C115.026 162.73 114.571 163.235 113.991 163.595C113.421 163.955 112.781 164.135 112.071 164.135C111.461 164.135 110.921 164.01 110.451 163.76C109.991 163.51 109.616 163.195 109.326 162.815V167.96H107.226V155.69H109.326V156.89ZM113.721 159.815C113.721 159.315 113.616 158.885 113.406 158.525C113.206 158.155 112.936 157.875 112.596 157.685C112.266 157.495 111.906 157.4 111.516 157.4C111.136 157.4 110.776 157.5 110.436 157.7C110.106 157.89 109.836 158.17 109.626 158.54C109.426 158.91 109.326 159.345 109.326 159.845C109.326 160.345 109.426 160.78 109.626 161.15C109.836 161.52 110.106 161.805 110.436 162.005C110.776 162.195 111.136 162.29 111.516 162.29C111.906 162.29 112.266 162.19 112.596 161.99C112.936 161.79 113.206 161.505 113.406 161.135C113.616 160.765 113.721 160.325 113.721 159.815ZM121.082 164.135C120.282 164.135 119.562 163.96 118.922 163.61C118.282 163.25 117.777 162.745 117.407 162.095C117.047 161.445 116.867 160.695 116.867 159.845C116.867 158.995 117.052 158.245 117.422 157.595C117.802 156.945 118.317 156.445 118.967 156.095C119.617 155.735 120.342 155.555 121.142 155.555C121.942 155.555 122.667 155.735 123.317 156.095C123.967 156.445 124.477 156.945 124.847 157.595C125.227 158.245 125.417 158.995 125.417 159.845C125.417 160.695 125.222 161.445 124.832 162.095C124.452 162.745 123.932 163.25 123.272 163.61C122.622 163.96 121.892 164.135 121.082 164.135ZM121.082 162.305C121.462 162.305 121.817 162.215 122.147 162.035C122.487 161.845 122.757 161.565 122.957 161.195C123.157 160.825 123.257 160.375 123.257 159.845C123.257 159.055 123.047 158.45 122.627 158.03C122.217 157.6 121.712 157.385 121.112 157.385C120.512 157.385 120.007 157.6 119.597 158.03C119.197 158.45 118.997 159.055 118.997 159.845C118.997 160.635 119.192 161.245 119.582 161.675C119.982 162.095 120.482 162.305 121.082 162.305ZM128.023 154.7C127.653 154.7 127.343 154.585 127.093 154.355C126.853 154.115 126.733 153.82 126.733 153.47C126.733 153.12 126.853 152.83 127.093 152.6C127.343 152.36 127.653 152.24 128.023 152.24C128.393 152.24 128.698 152.36 128.938 152.6C129.188 152.83 129.313 153.12 129.313 153.47C129.313 153.82 129.188 154.115 128.938 154.355C128.698 154.585 128.393 154.7 128.023 154.7ZM129.058 155.69V164H126.958V155.69H129.058ZM135.738 155.57C136.728 155.57 137.528 155.885 138.138 156.515C138.748 157.135 139.053 158.005 139.053 159.125V164H136.953V159.41C136.953 158.75 136.788 158.245 136.458 157.895C136.128 157.535 135.678 157.355 135.108 157.355C134.528 157.355 134.068 157.535 133.728 157.895C133.398 158.245 133.233 158.75 133.233 159.41V164H131.133V155.69H133.233V156.725C133.513 156.365 133.868 156.085 134.298 155.885C134.738 155.675 135.218 155.57 135.738 155.57ZM143.495 157.415V161.435C143.495 161.715 143.56 161.92 143.69 162.05C143.83 162.17 144.06 162.23 144.38 162.23H145.355V164H144.035C142.265 164 141.38 163.14 141.38 161.42V157.415H140.39V155.69H141.38V153.635H143.495V155.69H145.355V157.415H143.495ZM157.185 155.57C158.205 155.57 159.025 155.885 159.645 156.515C160.275 157.135 160.59 158.005 160.59 159.125V164H158.49V159.41C158.49 158.76 158.325 158.265 157.995 157.925C157.665 157.575 157.215 157.4 156.645 157.4C156.075 157.4 155.62 157.575 155.28 157.925C154.95 158.265 154.785 158.76 154.785 159.41V164H152.685V159.41C152.685 158.76 152.52 158.265 152.19 157.925C151.86 157.575 151.41 157.4 150.84 157.4C150.26 157.4 149.8 157.575 149.46 157.925C149.13 158.265 148.965 158.76 148.965 159.41V164H146.865V155.69H148.965V156.695C149.235 156.345 149.58 156.07 150 155.87C150.43 155.67 150.9 155.57 151.41 155.57C152.06 155.57 152.64 155.71 153.15 155.99C153.66 156.26 154.055 156.65 154.335 157.16C154.605 156.68 154.995 156.295 155.505 156.005C156.025 155.715 156.585 155.57 157.185 155.57ZM170.308 159.665C170.308 159.965 170.288 160.235 170.248 160.475H164.173C164.223 161.075 164.433 161.545 164.803 161.885C165.173 162.225 165.628 162.395 166.168 162.395C166.948 162.395 167.503 162.06 167.833 161.39H170.098C169.858 162.19 169.398 162.85 168.718 163.37C168.038 163.88 167.203 164.135 166.213 164.135C165.413 164.135 164.693 163.96 164.053 163.61C163.423 163.25 162.928 162.745 162.568 162.095C162.218 161.445 162.043 160.695 162.043 159.845C162.043 158.985 162.218 158.23 162.568 157.58C162.918 156.93 163.408 156.43 164.038 156.08C164.668 155.73 165.393 155.555 166.213 155.555C167.003 155.555 167.708 155.725 168.328 156.065C168.958 156.405 169.443 156.89 169.783 157.52C170.133 158.14 170.308 158.855 170.308 159.665ZM168.133 159.065C168.123 158.525 167.928 158.095 167.548 157.775C167.168 157.445 166.703 157.28 166.153 157.28C165.633 157.28 165.193 157.44 164.833 157.76C164.483 158.07 164.268 158.505 164.188 159.065H168.133ZM176.446 155.57C177.436 155.57 178.236 155.885 178.846 156.515C179.456 157.135 179.761 158.005 179.761 159.125V164H177.661V159.41C177.661 158.75 177.496 158.245 177.166 157.895C176.836 157.535 176.386 157.355 175.816 157.355C175.236 157.355 174.776 157.535 174.436 157.895C174.106 158.245 173.941 158.75 173.941 159.41V164H171.841V155.69H173.941V156.725C174.221 156.365 174.576 156.085 175.006 155.885C175.446 155.675 175.926 155.57 176.446 155.57ZM184.203 157.415V161.435C184.203 161.715 184.268 161.92 184.398 162.05C184.538 162.17 184.768 162.23 185.088 162.23H186.063V164H184.743C182.973 164 182.088 163.14 182.088 161.42V157.415H181.098V155.69H182.088V153.635H184.203V155.69H186.063V157.415H184.203ZM190.753 164.135C190.073 164.135 189.463 164.015 188.923 163.775C188.383 163.525 187.953 163.19 187.633 162.77C187.323 162.35 187.153 161.885 187.123 161.375H189.238C189.278 161.695 189.433 161.96 189.703 162.17C189.983 162.38 190.328 162.485 190.738 162.485C191.138 162.485 191.448 162.405 191.668 162.245C191.898 162.085 192.013 161.88 192.013 161.63C192.013 161.36 191.873 161.16 191.593 161.03C191.323 160.89 190.888 160.74 190.288 160.58C189.668 160.43 189.158 160.275 188.758 160.115C188.368 159.955 188.028 159.71 187.738 159.38C187.458 159.05 187.318 158.605 187.318 158.045C187.318 157.585 187.448 157.165 187.708 156.785C187.978 156.405 188.358 156.105 188.848 155.885C189.348 155.665 189.933 155.555 190.603 155.555C191.593 155.555 192.383 155.805 192.973 156.305C193.563 156.795 193.888 157.46 193.948 158.3H191.938C191.908 157.97 191.768 157.71 191.518 157.52C191.278 157.32 190.953 157.22 190.543 157.22C190.163 157.22 189.868 157.29 189.658 157.43C189.458 157.57 189.358 157.765 189.358 158.015C189.358 158.295 189.498 158.51 189.778 158.66C190.058 158.8 190.493 158.945 191.083 159.095C191.683 159.245 192.178 159.4 192.568 159.56C192.958 159.72 193.293 159.97 193.573 160.31C193.863 160.64 194.013 161.08 194.023 161.63C194.023 162.11 193.888 162.54 193.618 162.92C193.358 163.3 192.978 163.6 192.478 163.82C191.988 164.03 191.413 164.135 190.753 164.135Z" fill="black"/>
</svg>
