<svg xmlns="http://www.w3.org/2000/svg" width="169" height="168" fill="none" viewBox="0 0 169 168">
  <path fill="#193566" fill-rule="evenodd" d="M31.86 11.2h-.56c-2.565 0-4.771 0-6.72.46a16.8 16.8 0 00-12.432 12.42c-.448 1.949-.448 4.144-.448 6.72v28c0 2.565 0 4.771.46 6.72a16.8 16.8 0 0012.42 12.432c1.949.448 4.144.448 6.72.448h28c2.565 0 4.771 0 6.72-.46a16.8 16.8 0 0012.432-12.42c.448-1.949.448-4.144.448-6.72v-28c0-2.565 0-4.771-.459-6.72a16.8 16.8 0 00-12.42-12.432c-1.95-.448-4.145-.448-6.72-.448H31.86zm-4.67 11.357c.481-.112 1.232-.157 4.67-.157h26.88c3.45 0 4.189.034 4.67.157a5.6 5.6 0 014.145 4.144c.112.47.145 1.21.145 4.659v26.88c0 3.45-.033 4.189-.157 4.67a5.6 5.6 0 01-4.144 4.144c-.459.101-1.198.146-4.659.146H31.86c-3.45 0-4.189-.034-4.67-.157a5.6 5.6 0 01-4.144-4.144c-.101-.459-.146-1.198-.146-4.659V31.36c0-3.45.034-4.189.157-4.67a5.6 5.6 0 014.144-4.144l-.011.01zM110.26 11.2h-.56c-2.565 0-4.771 0-6.72.46a16.8 16.8 0 00-12.432 12.42c-.448 1.949-.448 4.144-.448 6.72v28c0 2.565 0 4.771.46 6.72a16.8 16.8 0 0012.42 12.432c1.949.448 4.144.448 6.72.448h28c2.565 0 4.771 0 6.72-.46a16.804 16.804 0 0012.432-12.42c.448-1.949.448-4.144.448-6.72v-28c0-2.565 0-4.771-.459-6.72a16.803 16.803 0 00-12.421-12.432c-1.949-.448-4.144-.448-6.72-.448h-27.44zm-4.67 11.357c.481-.112 1.232-.157 4.67-.157h26.88c3.45 0 4.189.034 4.671.157a5.602 5.602 0 014.144 4.144c.112.47.145 1.21.145 4.659v26.88c0 3.45-.045 4.189-.157 4.67a5.598 5.598 0 01-4.144 4.144c-.47.112-1.209.146-4.659.146h-26.88c-3.449 0-4.189-.034-4.67-.157a5.606 5.606 0 01-4.144-4.144c-.101-.459-.146-1.198-.146-4.659V31.36c0-3.45.034-4.189.157-4.67a5.6 5.6 0 014.144-4.144l-.011.01zM31.3 89.6h28c2.565 0 4.771 0 6.72.46a16.8 16.8 0 0112.432 12.42c.448 1.949.448 4.144.448 6.72v28c0 2.565 0 4.771-.459 6.72a16.804 16.804 0 01-12.42 12.432c-1.95.448-4.145.448-6.72.448h-28c-2.566 0-4.772 0-6.72-.459a16.803 16.803 0 01-12.433-12.421c-.448-1.949-.448-4.144-.448-6.72v-28c0-2.565 0-4.771.46-6.72a16.8 16.8 0 0112.42-12.432c1.949-.448 4.144-.448 6.72-.448zm.56 11.2c-3.45 0-4.189.034-4.67.157a5.598 5.598 0 00-4.144 4.144c-.101.459-.146 1.198-.146 4.659v26.88c0 3.45.034 4.189.157 4.67a5.6 5.6 0 004.144 4.144c.47.112 1.21.146 4.66.146h26.88c3.449 0 4.188-.045 4.67-.157a5.598 5.598 0 004.144-4.144c.112-.47.145-1.209.145-4.659v-26.88c0-3.45-.033-4.189-.157-4.67a5.606 5.606 0 00-4.144-4.144c-.459-.101-1.198-.146-4.659-.146H31.86zm78.4-11.2h-.56c-2.565 0-4.771 0-6.72.46a16.8 16.8 0 00-12.432 12.42c-.448 1.949-.448 4.144-.448 6.72v28c0 2.565 0 4.771.46 6.72a16.804 16.804 0 0012.42 12.432c1.949.459 4.155.459 6.72.459h28c2.565 0 4.771 0 6.72-.459a16.803 16.803 0 0012.421-12.421c.459-1.949.459-4.155.459-6.72V109.2c0-2.565 0-4.771-.459-6.72a16.803 16.803 0 00-12.421-12.432c-1.949-.448-4.144-.448-6.72-.448h-27.44zm-4.67 11.357c.481-.112 1.232-.157 4.67-.157h26.88c3.45 0 4.189.034 4.671.157a5.6 5.6 0 014.144 4.144c.112.47.145 1.209.145 4.659v26.88c0 3.45-.045 4.189-.157 4.67a5.598 5.598 0 01-4.144 4.144c-.47.112-1.209.146-4.659.146h-26.88c-3.449 0-4.189-.045-4.67-.157a5.603 5.603 0 01-4.144-4.144c-.101-.459-.146-1.198-.146-4.659v-26.88c0-3.45.034-4.189.157-4.67a5.605 5.605 0 014.144-4.144l-.011.011z" clip-rule="evenodd"/>
</svg>
