<svg width="595" height="159" viewBox="0 0 595 159" fill="none" xmlns="http://www.w3.org/2000/svg">
<path d="M96.6094 149.4V147.981H99.2604V156H97.6764V149.4H96.6094Z" fill="#193566" fill-opacity="0.4"/>
<path d="M100.595 149.4V147.981H103.246V156H101.662V149.4H100.595Z" fill="#193566" fill-opacity="0.4"/>
<path d="M107.168 152.931C107.168 152.315 107.289 151.769 107.531 151.292C107.781 150.815 108.114 150.449 108.532 150.192C108.958 149.935 109.431 149.807 109.951 149.807C110.406 149.807 110.802 149.899 111.139 150.082C111.484 150.265 111.759 150.496 111.964 150.775V149.906H113.515V156H111.964V155.109C111.766 155.395 111.491 155.633 111.139 155.824C110.795 156.007 110.395 156.099 109.94 156.099C109.427 156.099 108.958 155.967 108.532 155.703C108.114 155.439 107.781 155.069 107.531 154.592C107.289 154.108 107.168 153.554 107.168 152.931ZM111.964 152.953C111.964 152.579 111.891 152.26 111.744 151.996C111.598 151.725 111.4 151.519 111.15 151.38C110.901 151.233 110.633 151.16 110.347 151.16C110.061 151.16 109.797 151.23 109.555 151.369C109.313 151.508 109.115 151.714 108.961 151.985C108.815 152.249 108.741 152.564 108.741 152.931C108.741 153.298 108.815 153.62 108.961 153.899C109.115 154.17 109.313 154.379 109.555 154.526C109.805 154.673 110.069 154.746 110.347 154.746C110.633 154.746 110.901 154.676 111.15 154.537C111.4 154.39 111.598 154.185 111.744 153.921C111.891 153.65 111.964 153.327 111.964 152.953Z" fill="#193566" fill-opacity="0.4"/>
<path d="M122.587 149.818C123.335 149.818 123.937 150.049 124.391 150.511C124.853 150.966 125.084 151.604 125.084 152.425V156H123.544V152.634C123.544 152.157 123.423 151.794 123.181 151.545C122.939 151.288 122.609 151.16 122.191 151.16C121.773 151.16 121.44 151.288 121.19 151.545C120.948 151.794 120.827 152.157 120.827 152.634V156H119.287V152.634C119.287 152.157 119.166 151.794 118.924 151.545C118.682 151.288 118.352 151.16 117.934 151.16C117.509 151.16 117.172 151.288 116.922 151.545C116.68 151.794 116.559 152.157 116.559 152.634V156H115.019V149.906H116.559V150.643C116.757 150.386 117.01 150.185 117.318 150.038C117.634 149.891 117.978 149.818 118.352 149.818C118.829 149.818 119.254 149.921 119.628 150.126C120.002 150.324 120.292 150.61 120.497 150.984C120.695 150.632 120.981 150.35 121.355 150.137C121.737 149.924 122.147 149.818 122.587 149.818Z" fill="#193566" fill-opacity="0.4"/>
<path d="M193.602 149.4V147.981H196.253V156H194.669V149.4H193.602Z" fill="#193566" fill-opacity="0.4"/>
<path d="M202.111 150.786C202.309 150.507 202.581 150.276 202.926 150.093C203.278 149.902 203.677 149.807 204.124 149.807C204.645 149.807 205.115 149.935 205.533 150.192C205.958 150.449 206.291 150.815 206.533 151.292C206.783 151.761 206.908 152.308 206.908 152.931C206.908 153.554 206.783 154.108 206.533 154.592C206.291 155.069 205.958 155.439 205.533 155.703C205.115 155.967 204.645 156.099 204.124 156.099C203.677 156.099 203.281 156.007 202.936 155.824C202.599 155.641 202.324 155.41 202.111 155.131V158.904H200.572V149.906H202.111V150.786ZM205.335 152.931C205.335 152.564 205.258 152.249 205.104 151.985C204.957 151.714 204.759 151.508 204.51 151.369C204.268 151.23 204.003 151.16 203.717 151.16C203.439 151.16 203.175 151.233 202.926 151.38C202.684 151.519 202.485 151.725 202.331 151.996C202.185 152.267 202.111 152.586 202.111 152.953C202.111 153.32 202.185 153.639 202.331 153.91C202.485 154.181 202.684 154.39 202.926 154.537C203.175 154.676 203.439 154.746 203.717 154.746C204.003 154.746 204.268 154.673 204.51 154.526C204.759 154.379 204.957 154.17 205.104 153.899C205.258 153.628 205.335 153.305 205.335 152.931Z" fill="#193566" fill-opacity="0.4"/>
<path d="M215.595 149.818C216.343 149.818 216.944 150.049 217.399 150.511C217.861 150.966 218.092 151.604 218.092 152.425V156H216.552V152.634C216.552 152.157 216.431 151.794 216.189 151.545C215.947 151.288 215.617 151.16 215.199 151.16C214.781 151.16 214.447 151.288 214.198 151.545C213.956 151.794 213.835 152.157 213.835 152.634V156H212.295V152.634C212.295 152.157 212.174 151.794 211.932 151.545C211.69 151.288 211.36 151.16 210.942 151.16C210.516 151.16 210.179 151.288 209.93 151.545C209.688 151.794 209.567 152.157 209.567 152.634V156H208.027V149.906H209.567V150.643C209.765 150.386 210.018 150.185 210.326 150.038C210.641 149.891 210.986 149.818 211.36 149.818C211.836 149.818 212.262 149.921 212.636 150.126C213.01 150.324 213.299 150.61 213.505 150.984C213.703 150.632 213.989 150.35 214.363 150.137C214.744 149.924 215.155 149.818 215.595 149.818Z" fill="#193566" fill-opacity="0.4"/>
<path d="M290.011 150.093C290.048 149.36 290.305 148.795 290.781 148.399C291.265 147.996 291.9 147.794 292.684 147.794C293.22 147.794 293.678 147.889 294.059 148.08C294.441 148.263 294.727 148.516 294.917 148.839C295.115 149.154 295.214 149.514 295.214 149.917C295.214 150.379 295.093 150.771 294.851 151.094C294.617 151.409 294.334 151.622 294.004 151.732V151.776C294.43 151.908 294.76 152.143 294.994 152.48C295.236 152.817 295.357 153.25 295.357 153.778C295.357 154.218 295.255 154.61 295.049 154.955C294.851 155.3 294.554 155.571 294.158 155.769C293.77 155.96 293.3 156.055 292.75 156.055C291.922 156.055 291.247 155.846 290.726 155.428C290.206 155.01 289.931 154.394 289.901 153.58H291.397C291.412 153.939 291.533 154.229 291.76 154.449C291.995 154.662 292.314 154.768 292.717 154.768C293.091 154.768 293.377 154.665 293.575 154.46C293.781 154.247 293.883 153.976 293.883 153.646C293.883 153.206 293.744 152.891 293.465 152.7C293.187 152.509 292.754 152.414 292.167 152.414H291.848V151.149H292.167C293.209 151.149 293.729 150.801 293.729 150.104C293.729 149.789 293.634 149.543 293.443 149.367C293.26 149.191 292.992 149.103 292.64 149.103C292.296 149.103 292.028 149.198 291.837 149.389C291.654 149.572 291.548 149.807 291.518 150.093H290.011Z" fill="#193566" fill-opacity="0.4"/>
<path d="M300.911 150.786C301.109 150.507 301.381 150.276 301.725 150.093C302.077 149.902 302.477 149.807 302.924 149.807C303.445 149.807 303.914 149.935 304.332 150.192C304.758 150.449 305.091 150.815 305.333 151.292C305.583 151.761 305.707 152.308 305.707 152.931C305.707 153.554 305.583 154.108 305.333 154.592C305.091 155.069 304.758 155.439 304.332 155.703C303.914 155.967 303.445 156.099 302.924 156.099C302.477 156.099 302.081 156.007 301.736 155.824C301.399 155.641 301.124 155.41 300.911 155.131V158.904H299.371V149.906H300.911V150.786ZM304.134 152.931C304.134 152.564 304.057 152.249 303.903 151.985C303.757 151.714 303.559 151.508 303.309 151.369C303.067 151.23 302.803 151.16 302.517 151.16C302.239 151.16 301.975 151.233 301.725 151.38C301.483 151.519 301.285 151.725 301.131 151.996C300.985 152.267 300.911 152.586 300.911 152.953C300.911 153.32 300.985 153.639 301.131 153.91C301.285 154.181 301.483 154.39 301.725 154.537C301.975 154.676 302.239 154.746 302.517 154.746C302.803 154.746 303.067 154.673 303.309 154.526C303.559 154.379 303.757 154.17 303.903 153.899C304.057 153.628 304.134 153.305 304.134 152.931Z" fill="#193566" fill-opacity="0.4"/>
<path d="M314.394 149.818C315.142 149.818 315.744 150.049 316.198 150.511C316.66 150.966 316.891 151.604 316.891 152.425V156H315.351V152.634C315.351 152.157 315.23 151.794 314.988 151.545C314.746 151.288 314.416 151.16 313.998 151.16C313.58 151.16 313.247 151.288 312.997 151.545C312.755 151.794 312.634 152.157 312.634 152.634V156H311.094V152.634C311.094 152.157 310.973 151.794 310.731 151.545C310.489 151.288 310.159 151.16 309.741 151.16C309.316 151.16 308.979 151.288 308.729 151.545C308.487 151.794 308.366 152.157 308.366 152.634V156H306.826V149.906H308.366V150.643C308.564 150.386 308.817 150.185 309.125 150.038C309.441 149.891 309.785 149.818 310.159 149.818C310.636 149.818 311.061 149.921 311.435 150.126C311.809 150.324 312.099 150.61 312.304 150.984C312.502 150.632 312.788 150.35 313.162 150.137C313.544 149.924 313.954 149.818 314.394 149.818Z" fill="#193566" fill-opacity="0.4"/>
<path d="M390.632 149.312H387.068V151.193C387.222 151.002 387.442 150.848 387.728 150.731C388.014 150.606 388.319 150.544 388.641 150.544C389.228 150.544 389.708 150.672 390.082 150.929C390.456 151.186 390.728 151.516 390.896 151.919C391.065 152.315 391.149 152.74 391.149 153.195C391.149 154.038 390.907 154.717 390.423 155.23C389.947 155.743 389.265 156 388.377 156C387.541 156 386.874 155.791 386.375 155.373C385.877 154.955 385.594 154.409 385.528 153.734H387.024C387.09 154.027 387.237 154.262 387.464 154.438C387.699 154.614 387.996 154.702 388.355 154.702C388.788 154.702 389.114 154.566 389.334 154.295C389.554 154.024 389.664 153.664 389.664 153.217C389.664 152.762 389.551 152.418 389.323 152.183C389.103 151.941 388.777 151.82 388.344 151.82C388.036 151.82 387.78 151.897 387.574 152.051C387.369 152.205 387.222 152.41 387.134 152.667H385.66V147.959H390.632V149.312Z" fill="#193566" fill-opacity="0.4"/>
<path d="M396.658 150.786C396.856 150.507 397.128 150.276 397.472 150.093C397.824 149.902 398.224 149.807 398.671 149.807C399.192 149.807 399.661 149.935 400.079 150.192C400.505 150.449 400.838 150.815 401.08 151.292C401.33 151.761 401.454 152.308 401.454 152.931C401.454 153.554 401.33 154.108 401.08 154.592C400.838 155.069 400.505 155.439 400.079 155.703C399.661 155.967 399.192 156.099 398.671 156.099C398.224 156.099 397.828 156.007 397.483 155.824C397.146 155.641 396.871 155.41 396.658 155.131V158.904H395.118V149.906H396.658V150.786ZM399.881 152.931C399.881 152.564 399.804 152.249 399.65 151.985C399.504 151.714 399.306 151.508 399.056 151.369C398.814 151.23 398.55 151.16 398.264 151.16C397.986 151.16 397.722 151.233 397.472 151.38C397.23 151.519 397.032 151.725 396.878 151.996C396.732 152.267 396.658 152.586 396.658 152.953C396.658 153.32 396.732 153.639 396.878 153.91C397.032 154.181 397.23 154.39 397.472 154.537C397.722 154.676 397.986 154.746 398.264 154.746C398.55 154.746 398.814 154.673 399.056 154.526C399.306 154.379 399.504 154.17 399.65 153.899C399.804 153.628 399.881 153.305 399.881 152.931Z" fill="#193566" fill-opacity="0.4"/>
<path d="M410.141 149.818C410.889 149.818 411.491 150.049 411.945 150.511C412.407 150.966 412.638 151.604 412.638 152.425V156H411.098V152.634C411.098 152.157 410.977 151.794 410.735 151.545C410.493 151.288 410.163 151.16 409.745 151.16C409.327 151.16 408.994 151.288 408.744 151.545C408.502 151.794 408.381 152.157 408.381 152.634V156H406.841V152.634C406.841 152.157 406.72 151.794 406.478 151.545C406.236 151.288 405.906 151.16 405.488 151.16C405.063 151.16 404.726 151.288 404.476 151.545C404.234 151.794 404.113 152.157 404.113 152.634V156H402.573V149.906H404.113V150.643C404.311 150.386 404.564 150.185 404.872 150.038C405.188 149.891 405.532 149.818 405.906 149.818C406.383 149.818 406.808 149.921 407.182 150.126C407.556 150.324 407.846 150.61 408.051 150.984C408.249 150.632 408.535 150.35 408.909 150.137C409.291 149.924 409.701 149.818 410.141 149.818Z" fill="#193566" fill-opacity="0.4"/>
<path d="M486.873 149.147L483.947 156H482.385L485.333 149.323H481.571V148.003H486.873V149.147Z" fill="#193566" fill-opacity="0.4"/>
<path d="M492.132 150.786C492.33 150.507 492.601 150.276 492.946 150.093C493.298 149.902 493.698 149.807 494.145 149.807C494.666 149.807 495.135 149.935 495.553 150.192C495.978 150.449 496.312 150.815 496.554 151.292C496.803 151.761 496.928 152.308 496.928 152.931C496.928 153.554 496.803 154.108 496.554 154.592C496.312 155.069 495.978 155.439 495.553 155.703C495.135 155.967 494.666 156.099 494.145 156.099C493.698 156.099 493.302 156.007 492.957 155.824C492.62 155.641 492.345 155.41 492.132 155.131V158.904H490.592V149.906H492.132V150.786ZM495.355 152.931C495.355 152.564 495.278 152.249 495.124 151.985C494.977 151.714 494.779 151.508 494.53 151.369C494.288 151.23 494.024 151.16 493.738 151.16C493.459 151.16 493.195 151.233 492.946 151.38C492.704 151.519 492.506 151.725 492.352 151.996C492.205 152.267 492.132 152.586 492.132 152.953C492.132 153.32 492.205 153.639 492.352 153.91C492.506 154.181 492.704 154.39 492.946 154.537C493.195 154.676 493.459 154.746 493.738 154.746C494.024 154.746 494.288 154.673 494.53 154.526C494.779 154.379 494.977 154.17 495.124 153.899C495.278 153.628 495.355 153.305 495.355 152.931Z" fill="#193566" fill-opacity="0.4"/>
<path d="M505.615 149.818C506.363 149.818 506.964 150.049 507.419 150.511C507.881 150.966 508.112 151.604 508.112 152.425V156H506.572V152.634C506.572 152.157 506.451 151.794 506.209 151.545C505.967 151.288 505.637 151.16 505.219 151.16C504.801 151.16 504.467 151.288 504.218 151.545C503.976 151.794 503.855 152.157 503.855 152.634V156H502.315V152.634C502.315 152.157 502.194 151.794 501.952 151.545C501.71 151.288 501.38 151.16 500.962 151.16C500.537 151.16 500.199 151.288 499.95 151.545C499.708 151.794 499.587 152.157 499.587 152.634V156H498.047V149.906H499.587V150.643C499.785 150.386 500.038 150.185 500.346 150.038C500.661 149.891 501.006 149.818 501.38 149.818C501.857 149.818 502.282 149.921 502.656 150.126C503.03 150.324 503.32 150.61 503.525 150.984C503.723 150.632 504.009 150.35 504.383 150.137C504.764 149.924 505.175 149.818 505.615 149.818Z" fill="#193566" fill-opacity="0.4"/>
<path d="M72 70.5611C72 65.0383 76.4772 60.5611 82 60.5611C87.5228 60.5611 92 65.0383 92 70.5611V112C92 117.523 87.5228 122 82 122C76.4772 122 72 117.523 72 112V70.5611Z" fill="#193566" fill-opacity="0.4"/>
<path d="M120 48.6187C120 43.0959 124.477 38.6187 130 38.6187C135.523 38.6187 140 43.0959 140 48.6187V112C140 117.523 135.523 122 130 122C124.477 122 120 117.523 120 112V48.6187Z" fill="#193566" fill-opacity="0.4"/>
<path d="M169 66.1727C169 60.6498 173.477 56.1727 179 56.1727C184.523 56.1727 189 60.6498 189 66.1727V112C189 117.523 184.523 122 179 122C173.477 122 169 117.523 169 112V66.1727Z" fill="#193566" fill-opacity="0.4"/>
<path d="M215 53.0072C215 47.4843 219.477 43.0072 225 43.0072C230.523 43.0072 235 47.4843 235 53.0072V112C235 117.523 230.523 122 225 122C219.477 122 215 117.523 215 112V53.0072Z" fill="#193566" fill-opacity="0.4"/>
<path d="M264 79.3381C264 73.8153 268.477 69.3381 274 69.3381C279.523 69.3381 284 73.8153 284 79.3381V112C284 117.523 279.523 122 274 122C268.477 122 264 117.523 264 112V79.3381Z" fill="#193566" fill-opacity="0.4"/>
<path d="M313 43C313 37.4772 317.477 33 323 33C328.523 33 333 37.4772 333 43V112C333 117.523 328.523 122 323 122C317.477 122 313 117.523 313 112V43Z" fill="#193566" fill-opacity="0.4"/>
<path d="M363 31.0647C363 25.5419 367.477 21.0647 373 21.0647C378.523 21.0647 383 25.5419 383 31.0647V112C383 117.523 378.523 122 373 122C367.477 122 363 117.523 363 112V31.0647Z" fill="#193566" fill-opacity="0.4"/>
<path d="M408 10C408 4.47716 412.477 0 418 0C423.523 0 428 4.47715 428 10V112C428 117.523 423.523 122 418 122C412.477 122 408 117.523 408 112V10Z" fill="#193566" fill-opacity="0.4"/>
<path d="M455 17.8993C455 12.3764 459.477 7.89928 465 7.89928C470.523 7.89928 475 12.3764 475 17.8993V112C475 117.523 470.523 122 465 122C459.477 122 455 117.523 455 112V17.8993Z" fill="#193566" fill-opacity="0.4"/>
<path d="M504 81.9712C504 76.4484 508.477 71.9712 514 71.9712C519.523 71.9712 524 76.4484 524 81.9712V112C524 117.523 519.523 122 514 122C508.477 122 504 117.523 504 112V81.9712Z" fill="#193566" fill-opacity="0.4"/>
</svg>
