<svg width="452" height="167" viewBox="0 0 452 167" fill="none" xmlns="http://www.w3.org/2000/svg">
<line x1="39.5" y1="137" x2="38.5" y2="142" stroke="#193566"/>
<line x1="134.5" y1="137" x2="133.5" y2="142" stroke="#193566"/>
<line x1="232.5" y1="137" x2="231.5" y2="142" stroke="#193566"/>
<line x1="327.5" y1="137" x2="326.5" y2="142" stroke="#193566"/>
<line x1="423.5" y1="137" x2="422.5" y2="142" stroke="#193566"/>
<path d="M24.6094 149.4V147.981H27.2604V156H25.6764V149.4H24.6094ZM28.5947 149.4V147.981H31.2457V156H29.6617V149.4H28.5947ZM35.1682 152.931C35.1682 152.315 35.2892 151.769 35.5312 151.292C35.7805 150.815 36.1142 150.449 36.5322 150.192C36.9575 149.935 37.4305 149.807 37.9512 149.807C38.4058 149.807 38.8018 149.899 39.1392 150.082C39.4838 150.265 39.7588 150.496 39.9642 150.775V149.906H41.5152V156H39.9642V155.109C39.7662 155.395 39.4912 155.633 39.1392 155.824C38.7945 156.007 38.3948 156.099 37.9402 156.099C37.4268 156.099 36.9575 155.967 36.5322 155.703C36.1142 155.439 35.7805 155.069 35.5312 154.592C35.2892 154.108 35.1682 153.554 35.1682 152.931ZM39.9642 152.953C39.9642 152.579 39.8908 152.26 39.7442 151.996C39.5975 151.725 39.3995 151.519 39.1502 151.38C38.9008 151.233 38.6332 151.16 38.3472 151.16C38.0612 151.16 37.7972 151.23 37.5552 151.369C37.3132 151.508 37.1152 151.714 36.9612 151.985C36.8145 152.249 36.7412 152.564 36.7412 152.931C36.7412 153.298 36.8145 153.62 36.9612 153.899C37.1152 154.17 37.3132 154.379 37.5552 154.526C37.8045 154.673 38.0685 154.746 38.3472 154.746C38.6332 154.746 38.9008 154.676 39.1502 154.537C39.3995 154.39 39.5975 154.185 39.7442 153.921C39.8908 153.65 39.9642 153.327 39.9642 152.953ZM50.5873 149.818C51.3353 149.818 51.9366 150.049 52.3913 150.511C52.8533 150.966 53.0843 151.604 53.0843 152.425V156H51.5443V152.634C51.5443 152.157 51.4233 151.794 51.1813 151.545C50.9393 151.288 50.6093 151.16 50.1913 151.16C49.7733 151.16 49.4396 151.288 49.1903 151.545C48.9483 151.794 48.8273 152.157 48.8273 152.634V156H47.2873V152.634C47.2873 152.157 47.1663 151.794 46.9243 151.545C46.6823 151.288 46.3523 151.16 45.9343 151.16C45.5089 151.16 45.1716 151.288 44.9223 151.545C44.6803 151.794 44.5593 152.157 44.5593 152.634V156H43.0193V149.906H44.5593V150.643C44.7573 150.386 45.0103 150.185 45.3183 150.038C45.6336 149.891 45.9783 149.818 46.3523 149.818C46.8289 149.818 47.2543 149.921 47.6283 150.126C48.0023 150.324 48.2919 150.61 48.4973 150.984C48.6953 150.632 48.9813 150.35 49.3553 150.137C49.7366 149.924 50.1473 149.818 50.5873 149.818Z" fill="#193566"/>
<path d="M121.602 149.4V147.981H124.253V156H122.669V149.4H121.602ZM130.112 150.786C130.31 150.507 130.581 150.276 130.926 150.093C131.278 149.902 131.677 149.807 132.125 149.807C132.645 149.807 133.115 149.935 133.533 150.192C133.958 150.449 134.292 150.815 134.534 151.292C134.783 151.761 134.908 152.308 134.908 152.931C134.908 153.554 134.783 154.108 134.534 154.592C134.292 155.069 133.958 155.439 133.533 155.703C133.115 155.967 132.645 156.099 132.125 156.099C131.677 156.099 131.281 156.007 130.937 155.824C130.599 155.641 130.324 155.41 130.112 155.131V158.904H128.572V149.906H130.112V150.786ZM133.335 152.931C133.335 152.564 133.258 152.249 133.104 151.985C132.957 151.714 132.759 151.508 132.51 151.369C132.268 151.23 132.004 151.16 131.718 151.16C131.439 151.16 131.175 151.233 130.926 151.38C130.684 151.519 130.486 151.725 130.332 151.996C130.185 152.267 130.112 152.586 130.112 152.953C130.112 153.32 130.185 153.639 130.332 153.91C130.486 154.181 130.684 154.39 130.926 154.537C131.175 154.676 131.439 154.746 131.718 154.746C132.004 154.746 132.268 154.673 132.51 154.526C132.759 154.379 132.957 154.17 133.104 153.899C133.258 153.628 133.335 153.305 133.335 152.931ZM143.595 149.818C144.343 149.818 144.944 150.049 145.399 150.511C145.861 150.966 146.092 151.604 146.092 152.425V156H144.552V152.634C144.552 152.157 144.431 151.794 144.189 151.545C143.947 151.288 143.617 151.16 143.199 151.16C142.781 151.16 142.447 151.288 142.198 151.545C141.956 151.794 141.835 152.157 141.835 152.634V156H140.295V152.634C140.295 152.157 140.174 151.794 139.932 151.545C139.69 151.288 139.36 151.16 138.942 151.16C138.516 151.16 138.179 151.288 137.93 151.545C137.688 151.794 137.567 152.157 137.567 152.634V156H136.027V149.906H137.567V150.643C137.765 150.386 138.018 150.185 138.326 150.038C138.641 149.891 138.986 149.818 139.36 149.818C139.836 149.818 140.262 149.921 140.636 150.126C141.01 150.324 141.299 150.61 141.505 150.984C141.703 150.632 141.989 150.35 142.363 150.137C142.744 149.924 143.155 149.818 143.595 149.818Z" fill="#193566"/>
<path d="M218.011 150.093C218.048 149.36 218.305 148.795 218.781 148.399C219.265 147.996 219.9 147.794 220.684 147.794C221.22 147.794 221.678 147.889 222.059 148.08C222.441 148.263 222.727 148.516 222.917 148.839C223.115 149.154 223.214 149.514 223.214 149.917C223.214 150.379 223.093 150.771 222.851 151.094C222.617 151.409 222.334 151.622 222.004 151.732V151.776C222.43 151.908 222.76 152.143 222.994 152.48C223.236 152.817 223.357 153.25 223.357 153.778C223.357 154.218 223.255 154.61 223.049 154.955C222.851 155.3 222.554 155.571 222.158 155.769C221.77 155.96 221.3 156.055 220.75 156.055C219.922 156.055 219.247 155.846 218.726 155.428C218.206 155.01 217.931 154.394 217.901 153.58H219.397C219.412 153.939 219.533 154.229 219.76 154.449C219.995 154.662 220.314 154.768 220.717 154.768C221.091 154.768 221.377 154.665 221.575 154.46C221.781 154.247 221.883 153.976 221.883 153.646C221.883 153.206 221.744 152.891 221.465 152.7C221.187 152.509 220.754 152.414 220.167 152.414H219.848V151.149H220.167C221.209 151.149 221.729 150.801 221.729 150.104C221.729 149.789 221.634 149.543 221.443 149.367C221.26 149.191 220.992 149.103 220.64 149.103C220.296 149.103 220.028 149.198 219.837 149.389C219.654 149.572 219.548 149.807 219.518 150.093H218.011ZM228.911 150.786C229.109 150.507 229.381 150.276 229.725 150.093C230.077 149.902 230.477 149.807 230.924 149.807C231.445 149.807 231.914 149.935 232.332 150.192C232.758 150.449 233.091 150.815 233.333 151.292C233.583 151.761 233.707 152.308 233.707 152.931C233.707 153.554 233.583 154.108 233.333 154.592C233.091 155.069 232.758 155.439 232.332 155.703C231.914 155.967 231.445 156.099 230.924 156.099C230.477 156.099 230.081 156.007 229.736 155.824C229.399 155.641 229.124 155.41 228.911 155.131V158.904H227.371V149.906H228.911V150.786ZM232.134 152.931C232.134 152.564 232.057 152.249 231.903 151.985C231.757 151.714 231.559 151.508 231.309 151.369C231.067 151.23 230.803 151.16 230.517 151.16C230.239 151.16 229.975 151.233 229.725 151.38C229.483 151.519 229.285 151.725 229.131 151.996C228.985 152.267 228.911 152.586 228.911 152.953C228.911 153.32 228.985 153.639 229.131 153.91C229.285 154.181 229.483 154.39 229.725 154.537C229.975 154.676 230.239 154.746 230.517 154.746C230.803 154.746 231.067 154.673 231.309 154.526C231.559 154.379 231.757 154.17 231.903 153.899C232.057 153.628 232.134 153.305 232.134 152.931ZM242.394 149.818C243.142 149.818 243.744 150.049 244.198 150.511C244.66 150.966 244.891 151.604 244.891 152.425V156H243.351V152.634C243.351 152.157 243.23 151.794 242.988 151.545C242.746 151.288 242.416 151.16 241.998 151.16C241.58 151.16 241.247 151.288 240.997 151.545C240.755 151.794 240.634 152.157 240.634 152.634V156H239.094V152.634C239.094 152.157 238.973 151.794 238.731 151.545C238.489 151.288 238.159 151.16 237.741 151.16C237.316 151.16 236.979 151.288 236.729 151.545C236.487 151.794 236.366 152.157 236.366 152.634V156H234.826V149.906H236.366V150.643C236.564 150.386 236.817 150.185 237.125 150.038C237.441 149.891 237.785 149.818 238.159 149.818C238.636 149.818 239.061 149.921 239.435 150.126C239.809 150.324 240.099 150.61 240.304 150.984C240.502 150.632 240.788 150.35 241.162 150.137C241.544 149.924 241.954 149.818 242.394 149.818Z" fill="#193566"/>
<path d="M318.632 149.312H315.068V151.193C315.222 151.002 315.442 150.848 315.728 150.731C316.014 150.606 316.319 150.544 316.641 150.544C317.228 150.544 317.708 150.672 318.082 150.929C318.456 151.186 318.728 151.516 318.896 151.919C319.065 152.315 319.149 152.74 319.149 153.195C319.149 154.038 318.907 154.717 318.423 155.23C317.947 155.743 317.265 156 316.377 156C315.541 156 314.874 155.791 314.375 155.373C313.877 154.955 313.594 154.409 313.528 153.734H315.024C315.09 154.027 315.237 154.262 315.464 154.438C315.699 154.614 315.996 154.702 316.355 154.702C316.788 154.702 317.114 154.566 317.334 154.295C317.554 154.024 317.664 153.664 317.664 153.217C317.664 152.762 317.551 152.418 317.323 152.183C317.103 151.941 316.777 151.82 316.344 151.82C316.036 151.82 315.78 151.897 315.574 152.051C315.369 152.205 315.222 152.41 315.134 152.667H313.66V147.959H318.632V149.312ZM324.658 150.786C324.856 150.507 325.128 150.276 325.472 150.093C325.824 149.902 326.224 149.807 326.671 149.807C327.192 149.807 327.661 149.935 328.079 150.192C328.505 150.449 328.838 150.815 329.08 151.292C329.33 151.761 329.454 152.308 329.454 152.931C329.454 153.554 329.33 154.108 329.08 154.592C328.838 155.069 328.505 155.439 328.079 155.703C327.661 155.967 327.192 156.099 326.671 156.099C326.224 156.099 325.828 156.007 325.483 155.824C325.146 155.641 324.871 155.41 324.658 155.131V158.904H323.118V149.906H324.658V150.786ZM327.881 152.931C327.881 152.564 327.804 152.249 327.65 151.985C327.504 151.714 327.306 151.508 327.056 151.369C326.814 151.23 326.55 151.16 326.264 151.16C325.986 151.16 325.722 151.233 325.472 151.38C325.23 151.519 325.032 151.725 324.878 151.996C324.732 152.267 324.658 152.586 324.658 152.953C324.658 153.32 324.732 153.639 324.878 153.91C325.032 154.181 325.23 154.39 325.472 154.537C325.722 154.676 325.986 154.746 326.264 154.746C326.55 154.746 326.814 154.673 327.056 154.526C327.306 154.379 327.504 154.17 327.65 153.899C327.804 153.628 327.881 153.305 327.881 152.931ZM338.141 149.818C338.889 149.818 339.491 150.049 339.945 150.511C340.407 150.966 340.638 151.604 340.638 152.425V156H339.098V152.634C339.098 152.157 338.977 151.794 338.735 151.545C338.493 151.288 338.163 151.16 337.745 151.16C337.327 151.16 336.994 151.288 336.744 151.545C336.502 151.794 336.381 152.157 336.381 152.634V156H334.841V152.634C334.841 152.157 334.72 151.794 334.478 151.545C334.236 151.288 333.906 151.16 333.488 151.16C333.063 151.16 332.726 151.288 332.476 151.545C332.234 151.794 332.113 152.157 332.113 152.634V156H330.573V149.906H332.113V150.643C332.311 150.386 332.564 150.185 332.872 150.038C333.188 149.891 333.532 149.818 333.906 149.818C334.383 149.818 334.808 149.921 335.182 150.126C335.556 150.324 335.846 150.61 336.051 150.984C336.249 150.632 336.535 150.35 336.909 150.137C337.291 149.924 337.701 149.818 338.141 149.818Z" fill="#193566"/>
<path d="M414.873 149.147L411.947 156H410.385L413.333 149.323H409.571V148.003H414.873V149.147ZM420.132 150.786C420.33 150.507 420.601 150.276 420.946 150.093C421.298 149.902 421.698 149.807 422.145 149.807C422.666 149.807 423.135 149.935 423.553 150.192C423.978 150.449 424.312 150.815 424.554 151.292C424.803 151.761 424.928 152.308 424.928 152.931C424.928 153.554 424.803 154.108 424.554 154.592C424.312 155.069 423.978 155.439 423.553 155.703C423.135 155.967 422.666 156.099 422.145 156.099C421.698 156.099 421.302 156.007 420.957 155.824C420.62 155.641 420.345 155.41 420.132 155.131V158.904H418.592V149.906H420.132V150.786ZM423.355 152.931C423.355 152.564 423.278 152.249 423.124 151.985C422.977 151.714 422.779 151.508 422.53 151.369C422.288 151.23 422.024 151.16 421.738 151.16C421.459 151.16 421.195 151.233 420.946 151.38C420.704 151.519 420.506 151.725 420.352 151.996C420.205 152.267 420.132 152.586 420.132 152.953C420.132 153.32 420.205 153.639 420.352 153.91C420.506 154.181 420.704 154.39 420.946 154.537C421.195 154.676 421.459 154.746 421.738 154.746C422.024 154.746 422.288 154.673 422.53 154.526C422.779 154.379 422.977 154.17 423.124 153.899C423.278 153.628 423.355 153.305 423.355 152.931ZM433.615 149.818C434.363 149.818 434.964 150.049 435.419 150.511C435.881 150.966 436.112 151.604 436.112 152.425V156H434.572V152.634C434.572 152.157 434.451 151.794 434.209 151.545C433.967 151.288 433.637 151.16 433.219 151.16C432.801 151.16 432.467 151.288 432.218 151.545C431.976 151.794 431.855 152.157 431.855 152.634V156H430.315V152.634C430.315 152.157 430.194 151.794 429.952 151.545C429.71 151.288 429.38 151.16 428.962 151.16C428.537 151.16 428.199 151.288 427.95 151.545C427.708 151.794 427.587 152.157 427.587 152.634V156H426.047V149.906H427.587V150.643C427.785 150.386 428.038 150.185 428.346 150.038C428.661 149.891 429.006 149.818 429.38 149.818C429.857 149.818 430.282 149.921 430.656 150.126C431.03 150.324 431.32 150.61 431.525 150.984C431.723 150.632 432.009 150.35 432.383 150.137C432.764 149.924 433.175 149.818 433.615 149.818Z" fill="#193566"/>
<rect y="60.5612" width="20" height="61.4389" rx="10" fill="#193566" fill-opacity="0.35"/>
<rect x="48" y="38.6187" width="20" height="83.3813" rx="10" fill="#193566" fill-opacity="0.48"/>
<rect x="97" y="56.1726" width="20" height="65.8273" rx="10" fill="#193566" fill-opacity="0.27"/>
<rect x="143" y="43.0072" width="20" height="78.9928" rx="10" fill="#193566" fill-opacity="0.31"/>
<rect x="192" y="69.3381" width="20" height="52.6619" rx="10" fill="#193566" fill-opacity="0.16"/>
<rect x="241" y="33" width="20" height="89" rx="10" fill="#193566" fill-opacity="0.6"/>
<rect x="291" y="21.0648" width="20" height="100.935" rx="10" fill="#193566" fill-opacity="0.7"/>
<rect x="336" width="20" height="122" rx="10" fill="#193566" fill-opacity="0.8"/>
<rect x="383" y="7.89929" width="20" height="114.101" rx="10" fill="#193566" fill-opacity="0.7"/>
<rect x="432" y="71.9712" width="20" height="50.0288" rx="10" fill="#193566" fill-opacity="0.4"/>
</svg>
