<svg width="25" height="25" viewBox="0 0 25 25" fill="none" xmlns="http://www.w3.org/2000/svg">
<path d="M23.2916 5.7042L19.2958 1.70837C18.7743 1.21851 18.0909 0.937435 17.3756 0.918613C16.6604 0.89979 15.9632 1.14453 15.4166 1.60629L2.29161 14.7313C1.82023 15.2067 1.52672 15.8297 1.46036 16.4959L0.833278 22.5771C0.813632 22.7907 0.841349 23.006 0.91445 23.2077C0.987552 23.4093 1.10424 23.5924 1.25619 23.7438C1.39246 23.8789 1.55407 23.9859 1.73175 24.0585C1.90943 24.131 2.09968 24.1678 2.29161 24.1667H2.42286L8.50411 23.6125C9.17027 23.5462 9.79333 23.2527 10.2687 22.7813L23.3937 9.65629C23.9031 9.11811 24.1784 8.39994 24.1593 7.65915C24.1401 6.91836 23.8281 6.21536 23.2916 5.7042ZM8.24161 20.6959L3.86661 21.1042L4.26036 16.7292L12.4999 8.5917L16.4374 12.5292L8.24161 20.6959ZM18.3333 10.575L14.4249 6.6667L17.2687 3.75004L21.2499 7.73129L18.3333 10.575Z" fill="#97A7C3"/>
</svg>
