<svg width="14" height="21" viewBox="0 0 14 21" fill="none" xmlns="http://www.w3.org/2000/svg">
<path d="M6.78256 4.85507V1M2.92749 1H9.39499C10.1906 1 10.9537 1.31607 11.5163 1.87868L12.0833 2.44565" stroke="#193566" stroke-width="1.75"/>
<path d="M8.71005 4.85498H9.46005C9.46005 4.44077 9.12426 4.10498 8.71005 4.10498V4.85498ZM4.85498 4.85498V4.10498C4.44077 4.10498 4.10498 4.44077 4.10498 4.85498H4.85498ZM4.10498 7.74628C4.10498 8.1605 4.44077 8.49628 4.85498 8.49628C5.26919 8.49628 5.60498 8.1605 5.60498 7.74628H4.10498ZM9.46005 7.74628V4.85498H7.96005V7.74628H9.46005ZM8.71005 4.10498H4.85498V5.60498H8.71005V4.10498ZM4.10498 4.85498V7.74628H5.60498V4.85498H4.10498Z" fill="#193566"/>
<path d="M11.5652 20.0002H2C1.44772 20.0002 1 19.5525 1 19.0002V11.1733C1 11.1733 1 7.74658 4.85507 7.74658H8.71014C12.5652 7.74658 12.5652 11.1733 12.5652 11.1733V19.0002C12.5652 19.5525 12.1175 20.0002 11.5652 20.0002Z" stroke="#193566" stroke-width="1.75"/>
</svg>
