<svg width="20" height="21" viewBox="0 0 20 21" fill="none" xmlns="http://www.w3.org/2000/svg">
<path d="M14.3037 9.5625C14.6883 9.5625 15.0037 9.24998 14.9648 8.8674C14.8924 8.15325 14.7086 7.4548 14.4195 6.80046C14.0371 5.93504 13.4795 5.16757 12.7857 4.55153C12.0919 3.93549 11.2786 3.48569 10.4023 3.23347C9.75741 3.04787 9.08989 2.97255 8.4252 3.00887C8.02715 3.03062 7.76254 3.40695 7.82568 3.80057C7.89027 4.20318 8.27316 4.46878 8.68088 4.46269C9.1366 4.45588 9.59221 4.51644 10.0341 4.64363C10.7152 4.83965 11.3473 5.18923 11.8865 5.66801C12.4258 6.14679 12.8591 6.74326 13.1563 7.41587C13.3601 7.87725 13.4966 8.36685 13.5622 8.86818C13.6121 9.24947 13.9192 9.5625 14.3037 9.5625Z" fill="#97A7C3"/>
<path d="M15.7832 14.8911L20 19.1069L18.6069 20.5L14.3911 16.2832C12.8224 17.5407 10.8713 18.2246 8.86088 18.2218C3.96968 18.2218 0 14.2521 0 9.36088C0 4.46968 3.96968 0.5 8.86088 0.5C13.7521 0.5 17.7218 4.46968 17.7218 9.36088C17.7246 11.3713 17.0407 13.3224 15.7832 14.8911ZM13.8082 14.1605C15.0577 12.8756 15.7555 11.1532 15.7527 9.36088C15.7527 5.55267 12.6681 2.46909 8.86088 2.46909C5.05267 2.46909 1.96909 5.55267 1.96909 9.36088C1.96909 13.1681 5.05267 16.2527 8.86088 16.2527C10.6532 16.2555 12.3756 15.5577 13.6605 14.3082L13.8082 14.1605Z" fill="#97A7C3"/>
</svg>
