<svg width="31" height="31" viewBox="0 0 31 31" fill="none" xmlns="http://www.w3.org/2000/svg">
<path fill-rule="evenodd" clip-rule="evenodd" d="M4.53301 0.333496H4.41634C3.88201 0.333496 3.42234 0.333496 3.01634 0.429163C2.38783 0.579347 1.81316 0.900604 1.35601 1.35734C0.898867 1.81407 0.577092 2.38845 0.426341 3.01683C0.333008 3.42283 0.333008 3.88016 0.333008 4.41683V10.2502C0.333008 10.7845 0.333008 11.2442 0.428675 11.6502C0.578859 12.2787 0.900116 12.8533 1.35685 13.3105C1.81358 13.7676 2.38796 14.0894 3.01634 14.2402C3.42234 14.3335 3.87967 14.3335 4.41634 14.3335H10.2497C10.784 14.3335 11.2437 14.3335 11.6497 14.2378C12.2782 14.0876 12.8529 13.7664 13.31 13.3097C13.7671 12.8529 14.0889 12.2785 14.2397 11.6502C14.333 11.2442 14.333 10.7868 14.333 10.2502V4.41683C14.333 3.8825 14.333 3.42283 14.2373 3.01683C14.0872 2.38831 13.7659 1.81365 13.3092 1.3565C12.8524 0.899355 12.2781 0.57758 11.6497 0.426829C11.2437 0.333496 10.7863 0.333496 10.2497 0.333496H4.53301ZM3.56001 2.6995C3.66034 2.67616 3.81667 2.66683 4.53301 2.66683H10.133C10.8517 2.66683 11.0057 2.67383 11.106 2.6995C11.3156 2.74962 11.5072 2.85682 11.6596 3.00921C11.812 3.1616 11.9192 3.35323 11.9693 3.56283C11.9927 3.66083 11.9997 3.81483 11.9997 4.5335V10.1335C11.9997 10.8522 11.9927 11.0062 11.967 11.1065C11.9169 11.3161 11.8097 11.5077 11.6573 11.6601C11.5049 11.8125 11.3133 11.9197 11.1037 11.9698C11.008 11.9908 10.854 12.0002 10.133 12.0002H4.53301C3.81434 12.0002 3.66034 11.9932 3.56001 11.9675C3.3504 11.9174 3.15878 11.8102 3.00639 11.6578C2.854 11.5054 2.7468 11.3138 2.69667 11.1042C2.67567 11.0085 2.66634 10.8545 2.66634 10.1335V4.5335C2.66634 3.81483 2.67334 3.66083 2.69901 3.5605C2.74913 3.35089 2.85633 3.15927 3.00872 3.00688C3.16111 2.85449 3.35274 2.74729 3.56234 2.69716L3.56001 2.6995ZM20.8663 0.333496H20.7497C20.2153 0.333496 19.7557 0.333496 19.3497 0.429163C18.7212 0.579347 18.1465 0.900604 17.6893 1.35734C17.2322 1.81407 16.9104 2.38845 16.7597 3.01683C16.6663 3.42283 16.6663 3.88016 16.6663 4.41683V10.2502C16.6663 10.7845 16.6663 11.2442 16.762 11.6502C16.9122 12.2787 17.2334 12.8533 17.6902 13.3105C18.1469 13.7676 18.7213 14.0894 19.3497 14.2402C19.7557 14.3335 20.213 14.3335 20.7497 14.3335H26.583C27.1173 14.3335 27.577 14.3335 27.983 14.2378C28.6115 14.0876 29.1862 13.7664 29.6433 13.3097C30.1005 12.8529 30.4223 12.2785 30.573 11.6502C30.6663 11.2442 30.6663 10.7868 30.6663 10.2502V4.41683C30.6663 3.8825 30.6663 3.42283 30.5707 3.01683C30.4205 2.38831 30.0992 1.81365 29.6425 1.3565C29.1858 0.899355 28.6114 0.57758 27.983 0.426829C27.577 0.333496 27.1197 0.333496 26.583 0.333496H20.8663ZM19.8933 2.6995C19.9937 2.67616 20.15 2.66683 20.8663 2.66683H26.4663C27.185 2.66683 27.339 2.67383 27.4393 2.6995C27.6489 2.74962 27.8406 2.85682 27.993 3.00921C28.1453 3.1616 28.2526 3.35323 28.3027 3.56283C28.326 3.66083 28.333 3.81483 28.333 4.5335V10.1335C28.333 10.8522 28.3237 11.0062 28.3003 11.1065C28.2502 11.3161 28.143 11.5077 27.9906 11.6601C27.8382 11.8125 27.6466 11.9197 27.437 11.9698C27.339 11.9932 27.185 12.0002 26.4663 12.0002H20.8663C20.1477 12.0002 19.9937 11.9932 19.8933 11.9675C19.6837 11.9174 19.4921 11.8102 19.3397 11.6578C19.1873 11.5054 19.0801 11.3138 19.03 11.1042C19.009 11.0085 18.9997 10.8545 18.9997 10.1335V4.5335C18.9997 3.81483 19.0067 3.66083 19.0323 3.5605C19.0825 3.35089 19.1897 3.15927 19.3421 3.00688C19.4944 2.85449 19.6861 2.74729 19.8957 2.69716L19.8933 2.6995ZM4.41634 16.6668H10.2497C10.784 16.6668 11.2437 16.6668 11.6497 16.7625C12.2782 16.9127 12.8529 17.2339 13.31 17.6907C13.7671 18.1474 14.0889 18.7218 14.2397 19.3502C14.333 19.7562 14.333 20.2135 14.333 20.7502V26.5835C14.333 27.1178 14.333 27.5775 14.2373 27.9835C14.0872 28.612 13.7659 29.1867 13.3092 29.6438C12.8524 30.101 12.2781 30.4227 11.6497 30.5735C11.2437 30.6668 10.7863 30.6668 10.2497 30.6668H4.41634C3.88201 30.6668 3.42234 30.6668 3.01634 30.5712C2.38783 30.421 1.81316 30.0997 1.35601 29.643C0.898867 29.1863 0.577092 28.6119 0.426341 27.9835C0.333008 27.5775 0.333008 27.1202 0.333008 26.5835V20.7502C0.333008 20.2158 0.333008 19.7562 0.428675 19.3502C0.578859 18.7216 0.900116 18.147 1.35685 17.6898C1.81358 17.2327 2.38796 16.9109 3.01634 16.7602C3.42234 16.6668 3.87967 16.6668 4.41634 16.6668ZM4.53301 19.0002C3.81434 19.0002 3.66034 19.0072 3.56001 19.0328C3.3504 19.083 3.15878 19.1902 3.00639 19.3425C2.854 19.4949 2.7468 19.6866 2.69667 19.8962C2.67567 19.9918 2.66634 20.1458 2.66634 20.8668V26.4668C2.66634 27.1855 2.67334 27.3395 2.69901 27.4398C2.74913 27.6494 2.85633 27.8411 3.00872 27.9934C3.16111 28.1458 3.35274 28.253 3.56234 28.3032C3.66034 28.3265 3.81434 28.3335 4.53301 28.3335H10.133C10.8517 28.3335 11.0057 28.3242 11.106 28.3008C11.3156 28.2507 11.5072 28.1435 11.6596 27.9911C11.812 27.8387 11.9192 27.6471 11.9693 27.4375C11.9927 27.3395 11.9997 27.1855 11.9997 26.4668V20.8668C11.9997 20.1482 11.9927 19.9942 11.967 19.8938C11.9169 19.6842 11.8097 19.4926 11.6573 19.3402C11.5049 19.1878 11.3133 19.0806 11.1037 19.0305C11.008 19.0095 10.854 19.0002 10.133 19.0002H4.53301ZM20.8663 16.6668H20.7497C20.2153 16.6668 19.7557 16.6668 19.3497 16.7625C18.7212 16.9127 18.1465 17.2339 17.6893 17.6907C17.2322 18.1474 16.9104 18.7218 16.7597 19.3502C16.6663 19.7562 16.6663 20.2135 16.6663 20.7502V26.5835C16.6663 27.1178 16.6663 27.5775 16.762 27.9835C16.9122 28.612 17.2334 29.1867 17.6902 29.6438C18.1469 30.101 18.7213 30.4227 19.3497 30.5735C19.7557 30.6692 20.2153 30.6692 20.7497 30.6692H26.583C27.1173 30.6692 27.577 30.6692 27.983 30.5735C28.6111 30.4229 29.1853 30.1015 29.642 29.6448C30.0987 29.1881 30.4201 28.6139 30.5707 27.9858C30.6663 27.5798 30.6663 27.1202 30.6663 26.5858V20.7502C30.6663 20.2158 30.6663 19.7562 30.5707 19.3502C30.4205 18.7216 30.0992 18.147 29.6425 17.6898C29.1858 17.2327 28.6114 16.9109 27.983 16.7602C27.577 16.6668 27.1197 16.6668 26.583 16.6668H20.8663ZM19.8933 19.0328C19.9937 19.0095 20.15 19.0002 20.8663 19.0002H26.4663C27.185 19.0002 27.339 19.0072 27.4393 19.0328C27.6489 19.083 27.8406 19.1902 27.993 19.3425C28.1453 19.4949 28.2526 19.6866 28.3027 19.8962C28.326 19.9942 28.333 20.1482 28.333 20.8668V26.4668C28.333 27.1855 28.3237 27.3395 28.3003 27.4398C28.2502 27.6494 28.143 27.8411 27.9906 27.9934C27.8382 28.1458 27.6466 28.253 27.437 28.3032C27.339 28.3265 27.185 28.3335 26.4663 28.3335H20.8663C20.1477 28.3335 19.9937 28.3242 19.8933 28.3008C19.6837 28.2507 19.4921 28.1435 19.3397 27.9911C19.1873 27.8387 19.0801 27.6471 19.03 27.4375C19.009 27.3418 18.9997 27.1878 18.9997 26.4668V20.8668C18.9997 20.1482 19.0067 19.9942 19.0323 19.8938C19.0825 19.6842 19.1897 19.4926 19.3421 19.3402C19.4944 19.1878 19.6861 19.0806 19.8957 19.0305L19.8933 19.0328Z" fill="white"/>
</svg>
