<svg width="35" height="35" viewBox="0 0 35 35" fill="none" xmlns="http://www.w3.org/2000/svg">
<path fill-rule="evenodd" clip-rule="evenodd" d="M2.1875 30.625C2.1875 30.625 0 30.625 0 28.4375C0 26.25 2.1875 19.6875 10.9375 19.6875C19.6875 19.6875 21.875 26.25 21.875 28.4375C21.875 30.625 19.6875 30.625 19.6875 30.625H2.1875ZM19.6766 28.56V28.5556V28.56ZM19.6394 28.4375H2.23563C2.22538 28.4363 2.21517 28.4348 2.205 28.4331L2.1875 28.4288C2.19188 27.8512 2.55281 26.1756 3.85 24.6663C5.0575 23.2509 7.17937 21.875 10.9375 21.875C14.6934 21.875 16.8153 23.2531 18.025 24.6663C19.3222 26.1756 19.6853 27.8534 19.6875 28.4288C19.6715 28.4318 19.6554 28.4348 19.6394 28.4375ZM2.19844 28.56V28.5556V28.56ZM10.9375 15.3125C9.77718 15.3125 8.66438 14.8516 7.84391 14.0311C7.02344 13.2106 6.5625 12.0978 6.5625 10.9375C6.5625 9.77718 7.02344 8.66438 7.84391 7.84391C8.66438 7.02344 9.77718 6.5625 10.9375 6.5625C12.0978 6.5625 13.2106 7.02344 14.0311 7.84391C14.8516 8.66438 15.3125 9.77718 15.3125 10.9375C15.3125 12.0978 14.8516 13.2106 14.0311 14.0311C13.2106 14.8516 12.0978 15.3125 10.9375 15.3125ZM4.375 10.9375C4.375 11.7993 4.54474 12.6527 4.87454 13.4489C5.20434 14.2451 5.68773 14.9685 6.29711 15.5779C6.9065 16.1873 7.62994 16.6707 8.42614 17.0005C9.22234 17.3303 10.0757 17.5 10.9375 17.5C11.7993 17.5 12.6527 17.3303 13.4489 17.0005C14.2451 16.6707 14.9685 16.1873 15.5779 15.5779C16.1873 14.9685 16.6707 14.2451 17.0005 13.4489C17.3303 12.6527 17.5 11.7993 17.5 10.9375C17.5 9.19702 16.8086 7.52782 15.5779 6.29711C14.3472 5.0664 12.678 4.375 10.9375 4.375C9.19702 4.375 7.52782 5.0664 6.29711 6.29711C5.0664 7.52782 4.375 9.19702 4.375 10.9375ZM19.8275 20.3C20.7025 20.0245 21.6045 19.8433 22.5181 19.7597C23.0315 19.7109 23.5468 19.6868 24.0625 19.6875C32.8125 19.6875 35 26.25 35 28.4375C35 29.8966 34.2716 30.625 32.8125 30.625H23.59C23.9143 29.9421 24.076 29.1934 24.0625 28.4375C24.0625 26.2281 23.2378 23.9706 21.6781 22.085C21.1466 21.4419 20.5275 20.8403 19.8275 20.3ZM24.2375 21.875C27.8863 21.9188 29.9578 23.275 31.15 24.6663C32.4559 26.1844 32.8125 27.8666 32.8125 28.4375H26.25C26.25 26.1516 25.5434 23.8744 24.2375 21.875ZM31.7188 12.0312C31.7188 10.2908 31.0273 8.62157 29.7966 7.39086C28.5659 6.16015 26.8967 5.46875 25.1562 5.46875C23.4158 5.46875 21.7466 6.16015 20.5159 7.39086C19.2852 8.62157 18.5938 10.2908 18.5938 12.0312C18.5938 13.7717 19.2852 15.4409 20.5159 16.6716C21.7466 17.9023 23.4158 18.5938 25.1562 18.5938C26.8967 18.5938 28.5659 17.9023 29.7966 16.6716C31.0273 15.4409 31.7188 13.7717 31.7188 12.0312ZM25.1562 7.65625C26.3166 7.65625 27.4294 8.11719 28.2498 8.93766C29.0703 9.75813 29.5312 10.8709 29.5312 12.0312C29.5312 13.1916 29.0703 14.3044 28.2498 15.1248C27.4294 15.9453 26.3166 16.4062 25.1562 16.4062C23.9959 16.4062 22.8831 15.9453 22.0627 15.1248C21.2422 14.3044 20.7812 13.1916 20.7812 12.0312C20.7812 10.8709 21.2422 9.75813 22.0627 8.93766C22.8831 8.11719 23.9959 7.65625 25.1562 7.65625Z" fill="white"/>
</svg>
