<svg width="27" height="29" viewBox="0 0 27 29" fill="none" xmlns="http://www.w3.org/2000/svg">
<path d="M24.4375 2.375H20.0625V0.1875H17.875V2.375H9.125V0.1875H6.9375V2.375H2.5625C1.35938 2.375 0.375 3.35938 0.375 4.5625V26.4375C0.375 27.6406 1.35938 28.625 2.5625 28.625H24.4375C25.6406 28.625 26.625 27.6406 26.625 26.4375V4.5625C26.625 3.35938 25.6406 2.375 24.4375 2.375ZM24.4375 26.4375H2.5625V11.125H24.4375V26.4375ZM24.4375 8.9375H2.5625V4.5625H6.9375V6.75H9.125V4.5625H17.875V6.75H20.0625V4.5625H24.4375V8.9375Z" fill="white"/>
</svg>
