<svg width="35" height="35" viewBox="0 0 35 35" fill="none" xmlns="http://www.w3.org/2000/svg">
<path d="M23.1337 9.47933V9.67933H23.3337H27.7087C28.8159 9.67933 29.8779 10.1192 30.6608 10.9022C31.4438 11.6851 31.8837 12.7471 31.8837 13.8543V26.9793C31.8837 28.0866 31.4438 29.1485 30.6608 29.9315C29.8779 30.7145 28.8159 31.1543 27.7087 31.1543H7.29199C6.18471 31.1543 5.12279 30.7145 4.33982 29.9315C3.55686 29.1485 3.11699 28.0866 3.11699 26.9793V13.8543C3.11699 12.7471 3.55686 11.6851 4.33982 10.9022C5.12279 10.1192 6.18471 9.67933 7.29199 9.67933H11.667H11.867V9.47933V8.021C11.867 6.91372 12.3069 5.85179 13.0898 5.06883C13.8728 4.28586 14.9347 3.846 16.042 3.846H18.9587C20.0659 3.846 21.1279 4.28586 21.9108 5.06883C22.6938 5.85179 23.1337 6.91372 23.1337 8.021V9.47933ZM20.1313 6.84838L19.9899 6.9898L20.1313 6.84838C19.8203 6.53738 19.3985 6.36266 18.9587 6.36266H16.042C15.6022 6.36266 15.1804 6.53738 14.8694 6.84838C14.5584 7.15937 14.3837 7.58118 14.3837 8.021V9.47933V9.67933H14.5837H20.417H20.617V9.47933V8.021C20.617 7.58118 20.4423 7.15938 20.1313 6.84838ZM5.90741 18.7726L5.63366 18.664V18.9585V26.9793C5.63366 27.4191 5.80838 27.841 6.11937 28.1519C6.43037 28.4629 6.85218 28.6377 7.29199 28.6377H27.7087C28.1485 28.6377 28.5703 28.4629 28.8813 28.1519C29.1923 27.841 29.367 27.4191 29.367 26.9793V18.9585V18.6641L29.0933 18.7726C25.403 20.2351 21.4697 20.9873 17.5002 20.9897C13.5307 20.9887 9.5972 20.2364 5.90741 18.7726ZM29.2474 15.9479L29.367 15.8953V15.7647V13.8543C29.367 13.4145 29.1923 12.9927 28.8813 12.6817C28.5703 12.3707 28.1485 12.196 27.7087 12.196H7.29199C6.85218 12.196 6.43037 12.3707 6.11937 12.6817C5.80838 12.9927 5.63366 13.4145 5.63366 13.8543V15.7647V15.8953L5.75322 15.9479C9.45591 17.5745 13.4561 18.4144 17.5003 18.4144C21.5446 18.4144 25.5447 17.5745 29.2474 15.9479Z" fill="white" stroke="#193566" stroke-width="0.4"/>
</svg>
