<svg xmlns="http://www.w3.org/2000/svg" width="35" height="35" fill="none" viewBox="0 0 35 35">
  <path fill="#193566" stroke="#193566" stroke-width=".4" d="M23.133 9.48v.2h4.575a4.175 4.175 0 014.175 4.174V26.98a4.175 4.175 0 01-4.175 4.175H7.292a4.175 4.175 0 01-4.175-4.175V13.854A4.175 4.175 0 017.291 9.68h4.574V8.021a4.175 4.175 0 014.175-4.175h2.917a4.175 4.175 0 014.175 4.175v1.458zm-3.002-2.632l-.142.142.142-.142a1.658 1.658 0 00-1.173-.486h-2.916a1.658 1.658 0 00-1.659 1.659v1.658H20.616V8.021c0-.44-.174-.862-.485-1.173zM5.907 18.772l-.274-.108V26.979a1.658 1.658 0 001.659 1.659h20.416a1.658 1.658 0 001.659-1.659v-8.315l-.274.108A31.52 31.52 0 0117.5 20.99a31.461 31.461 0 01-11.593-2.218zm23.34-2.824l.12-.053v-2.04a1.658 1.658 0 00-1.659-1.66H7.292a1.658 1.658 0 00-1.659 1.66v2.04l.12.053a29.207 29.207 0 0023.494 0z"/>
</svg>
