<svg id="Layer_1" data-name="Layer 1" xmlns="http://www.w3.org/2000/svg" viewBox="0 0 14.16 19.65"><defs><style>.cls-1{fill:#1479ff;}</style></defs><path class="cls-1" d="M11.53,7.22c.6,0,1.8-1.15,1.8-2.89A4.37,4.37,0,0,0,8.69.21H4.3v10a6,6,0,0,0,6,6h0a4.88,4.88,0,0,0,5.06-4.89A4.09,4.09,0,0,0,11.53,7.22ZM6.81,2.66h2a2.07,2.07,0,0,1,2.13,2,2,2,0,0,1-2.16,2h-2Zm5.36,10.5c-.6.58-1.24,1.11-1.9,1.7,0-.29,0-.52,0-.74s0-.17-.17-.18a2.68,2.68,0,0,1-2.53-2.88,2.71,2.71,0,0,1,5.36-.3A2.55,2.55,0,0,1,12.17,13.16Z" transform="translate(-2.92 -0.21)"/><path class="cls-1" d="M16.81,15.87h0a1,1,0,0,0-1.32-.06,7.79,7.79,0,0,1-7.76,1.71,10.89,10.89,0,0,1-3.25-1.75,1,1,0,0,0-1.27.07h0a1,1,0,0,0,.09,1.44,12.75,12.75,0,0,0,3.77,2.05,9.82,9.82,0,0,0,3.11.52,10.06,10.06,0,0,0,6.56-2.57A1,1,0,0,0,16.81,15.87Z" transform="translate(-2.92 -0.21)"/><path class="cls-1" d="M10.93,11.69s0,0-.06,0L9.66,9.48a.11.11,0,0,0-.06-.07H9.54a.63.63,0,0,0-.25.83c.11.23.22.47.32.7l.36.77a.24.24,0,0,0,.22.14h.06s0,0,.05,0l.31.67a.67.67,0,0,0,.68.39.68.68,0,0,0,.59-.76A.66.66,0,0,0,10.93,11.69Zm-.67-.2a.11.11,0,0,1,0-.21.12.12,0,0,1,.1.11A.1.1,0,0,1,10.26,11.49Zm1.29.8a.33.33,0,0,1-.33.33.34.34,0,0,1-.34-.34.35.35,0,0,1,.34-.33A.34.34,0,0,1,11.55,12.29Z" transform="translate(-2.92 -0.21)"/><path class="cls-1" d="M10.81,11.12v0l.42-.89a.61.61,0,0,0,0-.42A.59.59,0,0,0,11,9.41h0a.13.13,0,0,0-.06.07l-.47.85a0,0,0,0,0,0,.05Z" transform="translate(-2.92 -0.21)"/><path class="cls-1" d="M10.13,12.06a.43.43,0,0,1-.35-.26l-.09-.19,0,.06s0,0,0,0a.66.66,0,0,0-.7.07.62.62,0,0,0-.25.64.68.68,0,0,0,.55.55.67.67,0,0,0,.69-.35c.09-.17.16-.34.24-.52C10.15,12.07,10.15,12.06,10.13,12.06Zm-.81.56a.34.34,0,1,1,.33-.34A.34.34,0,0,1,9.32,12.62Z" transform="translate(-2.92 -0.21)"/></svg>