<svg width="45" height="45" viewBox="0 0 45 45" fill="none" xmlns="http://www.w3.org/2000/svg">
<path d="M37.5 3.75H7.5C5.625 3.75 3.75 5.4375 3.75 7.5V13.1438C3.75 14.4938 4.55625 15.6563 5.625 16.3125V37.5C5.625 39.5625 7.6875 41.25 9.375 41.25H35.625C37.3125 41.25 39.375 39.5625 39.375 37.5V16.3125C40.4437 15.6563 41.25 14.4938 41.25 13.1438V7.5C41.25 5.4375 39.375 3.75 37.5 3.75ZM35.625 37.5H9.375V16.875H35.625V37.5ZM37.5 13.125H7.5V7.5H37.5V13.125Z" fill="#193566"/>
<path d="M16.875 22.5H28.125V26.25H16.875V22.5Z" fill="#193566"/>
</svg>
