<svg width="35" height="35" viewBox="0 0 35 35" fill="none" xmlns="http://www.w3.org/2000/svg">
<path d="M17.4999 16.5276C18.8459 16.5276 20.1617 16.1285 21.2809 15.3807C22.4 14.6329 23.2723 13.57 23.7874 12.3264C24.3025 11.0829 24.4373 9.71451 24.1747 8.39436C23.9121 7.07422 23.2639 5.86158 22.3121 4.90981C21.3604 3.95803 20.1477 3.30987 18.8276 3.04727C17.5074 2.78468 16.1391 2.91945 14.8955 3.43455C13.652 3.94965 12.5891 4.82193 11.8413 5.9411C11.0935 7.06027 10.6943 8.37605 10.6943 9.72206C10.6943 11.527 11.4113 13.258 12.6876 14.5343C13.9639 15.8106 15.6949 16.5276 17.4999 16.5276ZM17.4999 4.86095C18.4613 4.86095 19.4012 5.14605 20.2006 5.6802C21 6.21434 21.623 6.97354 21.991 7.8618C22.3589 8.75005 22.4552 9.72746 22.2676 10.6704C22.08 11.6134 21.6171 12.4795 20.9372 13.1594C20.2574 13.8392 19.3912 14.3022 18.4482 14.4898C17.5053 14.6773 16.5279 14.5811 15.6396 14.2131C14.7514 13.8452 13.9922 13.2222 13.458 12.4228C12.9239 11.6233 12.6388 10.6835 12.6388 9.72206C12.6388 8.43282 13.1509 7.19637 14.0626 6.28474C14.9742 5.3731 16.2106 4.86095 17.4999 4.86095Z" fill="white"/>
<path d="M29.6238 23.6929C28.0647 22.045 26.1858 20.7324 24.1021 19.8353C22.0184 18.9383 19.7737 18.4756 17.5051 18.4756C15.2365 18.4756 12.9917 18.9383 10.908 19.8353C8.82433 20.7324 6.94548 22.045 5.38633 23.6929C5.0483 24.054 4.86056 24.5303 4.86133 25.0248V30.1387C4.86133 30.6544 5.06619 31.149 5.43084 31.5137C5.7955 31.8783 6.29008 32.0832 6.80577 32.0832H28.1947C28.7104 32.0832 29.2049 31.8783 29.5696 31.5137C29.9342 31.149 30.1391 30.6544 30.1391 30.1387V25.0248C30.1425 24.5316 29.9583 24.0555 29.6238 23.6929ZM28.1947 30.1387H6.80577V25.0151C8.18364 23.5643 9.84231 22.4089 11.6808 21.6194C13.5194 20.8299 15.4993 20.4228 17.5002 20.4228C19.5011 20.4228 21.4811 20.8299 23.3196 21.6194C25.1581 22.4089 26.8168 23.5643 28.1947 25.0151V30.1387Z" fill="white"/>
</svg>
