<svg xmlns="http://www.w3.org/2000/svg" width="45" height="45" fill="none" viewBox="0 0 45 45">
  <path fill="#193566" fill-rule="evenodd" d="M8.4 3h-.15c-.687 0-1.278 0-1.8.123A4.5 4.5 0 003.12 6.45C3 6.972 3 7.56 3 8.25v7.5c0 .687 0 1.278.123 1.8a4.5 4.5 0 003.327 3.33c.522.12 1.11.12 1.8.12h7.5c.687 0 1.278 0 1.8-.123a4.5 4.5 0 003.33-3.327c.12-.522.12-1.11.12-1.8v-7.5c0-.687 0-1.278-.123-1.8a4.5 4.5 0 00-3.327-3.33C17.028 3 16.44 3 15.75 3H8.4zM7.149 6.042C7.278 6.012 7.479 6 8.4 6h7.2c.924 0 1.122.009 1.251.042a1.5 1.5 0 011.11 1.11c.03.126.039.324.039 1.248v7.2c0 .924-.009 1.122-.042 1.251a1.5 1.5 0 01-1.11 1.11c-.123.027-.321.039-1.248.039H8.4c-.924 0-1.122-.009-1.251-.042a1.5 1.5 0 01-1.11-1.11C6.012 16.725 6 16.527 6 15.6V8.4c0-.924.009-1.122.042-1.251a1.5 1.5 0 011.11-1.11l-.003.003zM29.4 3h-.15c-.687 0-1.278 0-1.8.123a4.5 4.5 0 00-3.33 3.327C24 6.972 24 7.56 24 8.25v7.5c0 .687 0 1.278.123 1.8a4.5 4.5 0 003.327 3.33c.522.12 1.11.12 1.8.12h7.5c.687 0 1.278 0 1.8-.123a4.5 4.5 0 003.33-3.327c.12-.522.12-1.11.12-1.8v-7.5c0-.687 0-1.278-.123-1.8a4.5 4.5 0 00-3.327-3.33C38.028 3 37.44 3 36.75 3H29.4zm-1.251 3.042c.129-.03.33-.042 1.251-.042h7.2c.924 0 1.122.009 1.251.042a1.5 1.5 0 011.11 1.11c.03.126.039.324.039 1.248v7.2c0 .924-.012 1.122-.042 1.251a1.5 1.5 0 01-1.11 1.11c-.126.03-.324.039-1.248.039h-7.2c-.924 0-1.122-.009-1.251-.042a1.5 1.5 0 01-1.11-1.11c-.027-.123-.039-.321-.039-1.248V8.4c0-.924.009-1.122.042-1.251a1.5 1.5 0 011.11-1.11l-.003.003zM8.25 24h7.5c.687 0 1.278 0 1.8.123a4.5 4.5 0 013.33 3.327c.12.522.12 1.11.12 1.8v7.5c0 .687 0 1.278-.123 1.8a4.5 4.5 0 01-3.327 3.33c-.522.12-1.11.12-1.8.12h-7.5c-.687 0-1.278 0-1.8-.123a4.5 4.5 0 01-3.33-3.327C3 38.028 3 37.44 3 36.75v-7.5c0-.687 0-1.278.123-1.8a4.5 4.5 0 013.327-3.33C6.972 24 7.56 24 8.25 24zm.15 3c-.924 0-1.122.009-1.251.042a1.5 1.5 0 00-1.11 1.11C6.012 28.275 6 28.473 6 29.4v7.2c0 .924.009 1.122.042 1.251a1.5 1.5 0 001.11 1.11c.126.03.324.039 1.248.039h7.2c.924 0 1.122-.012 1.251-.042a1.5 1.5 0 001.11-1.11c.03-.126.039-.324.039-1.248v-7.2c0-.924-.009-1.122-.042-1.251a1.5 1.5 0 00-1.11-1.11c-.123-.027-.321-.039-1.248-.039H8.4zm21-3h-.15c-.687 0-1.278 0-1.8.123a4.5 4.5 0 00-3.33 3.327c-.12.522-.12 1.11-.12 1.8v7.5c0 .687 0 1.278.123 1.8a4.5 4.5 0 003.327 3.33c.522.123 1.113.123 1.8.123h7.5c.687 0 1.278 0 1.8-.123a4.5 4.5 0 003.327-3.327c.123-.522.123-1.113.123-1.8V29.25c0-.687 0-1.278-.123-1.8a4.5 4.5 0 00-3.327-3.33c-.522-.12-1.11-.12-1.8-.12H29.4zm-1.251 3.042c.129-.03.33-.042 1.251-.042h7.2c.924 0 1.122.009 1.251.042a1.5 1.5 0 011.11 1.11c.03.126.039.324.039 1.248v7.2c0 .924-.012 1.122-.042 1.251a1.5 1.5 0 01-1.11 1.11c-.126.03-.324.039-1.248.039h-7.2c-.924 0-1.122-.012-1.251-.042a1.5 1.5 0 01-1.11-1.11c-.027-.123-.039-.321-.039-1.248v-7.2c0-.924.009-1.122.042-1.251a1.5 1.5 0 011.11-1.11l-.003.003z" clip-rule="evenodd"/>
</svg>
