<svg width="23" height="22" viewBox="0 0 23 22" fill="none" xmlns="http://www.w3.org/2000/svg">
<g clip-path="url(#clip0_736_3301)">
<path d="M15.1665 19.25V17.4167C15.1665 16.4442 14.7802 15.5116 14.0926 14.8239C13.4049 14.1363 12.4723 13.75 11.4998 13.75H5.08317C4.11071 13.75 3.17808 14.1363 2.49045 14.8239C1.80281 15.5116 1.4165 16.4442 1.4165 17.4167V19.25M16.9998 7.33333L21.5832 11.9167M21.5832 7.33333L16.9998 11.9167M11.9582 6.41667C11.9582 8.44171 10.3165 10.0833 8.2915 10.0833C6.26646 10.0833 4.62484 8.44171 4.62484 6.41667C4.62484 4.39162 6.26646 2.75 8.2915 2.75C10.3165 2.75 11.9582 4.39162 11.9582 6.41667Z" stroke="#E66666" stroke-width="1.5" stroke-linecap="round" stroke-linejoin="round"/>
</g>
<defs>
<clipPath id="clip0_736_3301">
<rect width="22" height="22" fill="white" transform="translate(0.5)"/>
</clipPath>
</defs>
</svg>
