<svg width="41" height="41" viewBox="0 0 41 41" fill="none" xmlns="http://www.w3.org/2000/svg">
<g clip-path="url(#clip0_885_3052)">
<path d="M24.1665 28.75V26.9167C24.1665 25.9442 23.7802 25.0116 23.0926 24.3239C22.4049 23.6363 21.4723 23.25 20.4998 23.25H14.0832C13.1107 23.25 12.1781 23.6363 11.4904 24.3239C10.8028 25.0116 10.4165 25.9442 10.4165 26.9167V28.75M25.0832 19.5833L26.9165 21.4167L30.5832 17.75M20.9582 15.9167C20.9582 17.9417 19.3165 19.5833 17.2915 19.5833C15.2665 19.5833 13.6248 17.9417 13.6248 15.9167C13.6248 13.8916 15.2665 12.25 17.2915 12.25C19.3165 12.25 20.9582 13.8916 20.9582 15.9167Z" stroke="#065F46" stroke-width="1.5" stroke-linecap="round" stroke-linejoin="round"/>
</g>
<rect x="0.5" y="0.5" width="40" height="40" rx="4.5" stroke="#065F46" stroke-opacity="0.5"/>
<defs>
<clipPath id="clip0_885_3052">
<rect width="22" height="22" fill="white" transform="translate(9.5 9.5)"/>
</clipPath>
</defs>
</svg>